<svg width="156" height="69" viewBox="0 0 156 69" fill="none" xmlns="http://www.w3.org/2000/svg">
<rect width="48" height="2" transform="matrix(1 0 0 -1 0 21)" fill="white"/>
<rect width="48" height="2" transform="matrix(1 0 0 -1 108 21)" fill="white"/>
<rect y="51.5593" width="155.308" height="17.4407" rx="2" fill="#0069D1"/>
<path d="M27.8517 56.0547V58.2051H27.6407C27.5157 57.709 27.3771 57.3535 27.2247 57.1387C27.0724 56.9199 26.8634 56.7461 26.5978 56.6172C26.4493 56.5469 26.1896 56.5117 25.8185 56.5117H25.2267V62.6406C25.2267 63.0469 25.2482 63.3008 25.2911 63.4023C25.338 63.5039 25.4259 63.5938 25.5548 63.6719C25.6876 63.7461 25.8673 63.7832 26.0939 63.7832H26.3575V64H22.1974V63.7832H22.4611C22.6915 63.7832 22.8771 63.7422 23.0177 63.6602C23.1193 63.6055 23.1993 63.5117 23.2579 63.3789C23.3009 63.2852 23.3224 63.0391 23.3224 62.6406V56.5117H22.7482C22.213 56.5117 21.8243 56.625 21.5822 56.8516C21.2423 57.168 21.0275 57.6191 20.9376 58.2051H20.715V56.0547H27.8517ZM33.9279 56.0547V59.2246C34.2286 58.9082 34.504 58.6855 34.754 58.5566C35.004 58.4238 35.2638 58.3574 35.5333 58.3574C35.8771 58.3574 36.17 58.4551 36.4122 58.6504C36.6583 58.8457 36.8204 59.0762 36.8986 59.3418C36.9806 59.6035 37.0216 60.0469 37.0216 60.6719V62.8105C37.0216 63.2285 37.0607 63.4902 37.1388 63.5957C37.2169 63.6973 37.3751 63.7617 37.6134 63.7891V64H34.8361V63.7891C35.0314 63.7617 35.1779 63.6836 35.2755 63.5547C35.3458 63.4531 35.381 63.2051 35.381 62.8105V60.3672C35.381 59.9141 35.3634 59.6309 35.3282 59.5176C35.2931 59.4004 35.2325 59.3105 35.1466 59.248C35.0646 59.1816 34.9708 59.1484 34.8654 59.1484C34.7091 59.1484 34.5568 59.2031 34.4083 59.3125C34.2599 59.418 34.0997 59.6055 33.9279 59.875V62.8105C33.9279 63.2012 33.9572 63.4453 34.0157 63.543C34.09 63.6758 34.2423 63.7578 34.4728 63.7891V64H31.6954V63.7891C31.9259 63.7656 32.09 63.6914 32.1876 63.5664C32.254 63.4805 32.2872 63.2285 32.2872 62.8105V57.2441C32.2872 56.8301 32.2482 56.5723 32.17 56.4707C32.0958 56.3691 31.9376 56.3027 31.6954 56.2715V56.0547H33.9279ZM46.0099 61.0645H43.004C43.0392 61.791 43.2325 62.3652 43.5841 62.7871C43.8536 63.1113 44.1779 63.2734 44.5568 63.2734C44.7911 63.2734 45.004 63.209 45.1954 63.0801C45.3868 62.9473 45.5919 62.7109 45.8107 62.3711L46.0099 62.5C45.713 63.1055 45.3849 63.5352 45.0255 63.7891C44.6661 64.0391 44.2501 64.1641 43.7775 64.1641C42.965 64.1641 42.3497 63.8516 41.9318 63.2266C41.5958 62.7227 41.4279 62.0977 41.4279 61.3516C41.4279 60.4375 41.674 59.7109 42.1661 59.1719C42.6622 58.6289 43.2423 58.3574 43.9064 58.3574C44.4611 58.3574 44.9415 58.5859 45.3478 59.043C45.7579 59.4961 45.9786 60.1699 46.0099 61.0645ZM44.5685 60.6719C44.5685 60.043 44.5333 59.6113 44.463 59.377C44.3966 59.1426 44.2911 58.9648 44.1466 58.8438C44.0646 58.7734 43.9552 58.7383 43.8185 58.7383C43.6154 58.7383 43.4493 58.8379 43.3204 59.0371C43.09 59.3848 42.9747 59.8613 42.9747 60.4668V60.6719H44.5685ZM55.5782 56.0547H59.6798V56.2715H59.4747C59.1661 56.2715 58.9532 56.3047 58.8361 56.3711C58.7228 56.4336 58.6407 56.5215 58.59 56.6348C58.5431 56.748 58.5197 57.0312 58.5197 57.4844V61.375C58.5197 62.0859 58.5724 62.5566 58.6779 62.7871C58.7872 63.0176 58.965 63.209 59.2111 63.3613C59.4572 63.5137 59.7677 63.5898 60.1427 63.5898C60.5724 63.5898 60.9376 63.4941 61.2384 63.3027C61.5431 63.1074 61.7697 62.8398 61.9181 62.5C62.0704 62.1602 62.1466 61.5684 62.1466 60.7246V57.4844C62.1466 57.1289 62.1095 56.875 62.0353 56.7227C61.9611 56.5703 61.8673 56.4648 61.754 56.4062C61.5782 56.3164 61.3302 56.2715 61.0099 56.2715V56.0547H63.7579V56.2715H63.5939C63.3712 56.2715 63.1857 56.3164 63.0372 56.4062C62.8888 56.4961 62.7814 56.6309 62.715 56.8105C62.6642 56.9355 62.6388 57.1602 62.6388 57.4844V60.502C62.6388 61.4355 62.5763 62.1094 62.4513 62.5234C62.3302 62.9375 62.0314 63.3184 61.5548 63.666C61.0782 64.0137 60.4279 64.1875 59.6036 64.1875C58.9161 64.1875 58.3849 64.0957 58.0099 63.9121C57.4982 63.6621 57.1368 63.3418 56.9259 62.9512C56.715 62.5605 56.6095 62.0352 56.6095 61.375V57.4844C56.6095 57.0273 56.5841 56.7441 56.5333 56.6348C56.4825 56.5215 56.3947 56.4316 56.2697 56.3652C56.1447 56.2988 55.9142 56.2676 55.5782 56.2715V56.0547ZM69.6115 58.5215V59.2305C69.8927 58.9258 70.1622 58.7051 70.42 58.5684C70.6779 58.4277 70.9552 58.3574 71.2521 58.3574C71.6075 58.3574 71.9025 58.457 72.1368 58.6562C72.3712 58.8516 72.5275 59.0957 72.6056 59.3887C72.6681 59.6113 72.6993 60.0391 72.6993 60.6719V62.8047C72.6993 63.2266 72.7365 63.4902 72.8107 63.5957C72.8888 63.6973 73.049 63.7617 73.2911 63.7891V64H70.5197V63.7891C70.7267 63.7617 70.8751 63.6758 70.965 63.5312C71.0275 63.4336 71.0587 63.1914 71.0587 62.8047V60.3672C71.0587 59.918 71.0411 59.6348 71.006 59.5176C70.9708 59.4004 70.9103 59.3105 70.8243 59.248C70.7423 59.1816 70.6505 59.1484 70.549 59.1484C70.213 59.1484 69.9005 59.3887 69.6115 59.8691V62.8047C69.6115 63.2148 69.6486 63.4746 69.7228 63.584C69.8009 63.6934 69.9435 63.7617 70.1505 63.7891V64H67.379V63.7891C67.6095 63.7656 67.7736 63.6914 67.8712 63.5664C67.9376 63.4805 67.9708 63.2266 67.9708 62.8047V59.7109C67.9708 59.2969 67.9318 59.0391 67.8536 58.9375C67.7794 58.8359 67.6212 58.7695 67.379 58.7383V58.5215H69.6115ZM78.3712 55.8672C78.6251 55.8672 78.84 55.957 79.0157 56.1367C79.1915 56.3125 79.2794 56.5254 79.2794 56.7754C79.2794 57.0254 79.1896 57.2383 79.0099 57.4141C78.8341 57.5898 78.6212 57.6777 78.3712 57.6777C78.1212 57.6777 77.9083 57.5898 77.7325 57.4141C77.5568 57.2383 77.4689 57.0254 77.4689 56.7754C77.4689 56.5254 77.5568 56.3125 77.7325 56.1367C77.9083 55.957 78.1212 55.8672 78.3712 55.8672ZM79.1915 58.5215V62.8633C79.1915 63.25 79.2365 63.498 79.3263 63.6074C79.4161 63.7129 79.5919 63.7734 79.8536 63.7891V64H76.8947V63.7891C77.1368 63.7812 77.3165 63.7109 77.4337 63.5781C77.5118 63.4883 77.5509 63.25 77.5509 62.8633V59.6641C77.5509 59.2773 77.506 59.0312 77.4161 58.9258C77.3263 58.8164 77.1525 58.7539 76.8947 58.7383V58.5215H79.1915ZM85.8654 64.1641L84.0197 59.916C83.797 59.4043 83.6232 59.0801 83.4982 58.9434C83.4083 58.8418 83.2755 58.7734 83.0997 58.7383V58.5215H86.0118V58.7383C85.8282 58.7383 85.7032 58.7715 85.6368 58.8379C85.5431 58.9238 85.4962 59.0254 85.4962 59.1426C85.4962 59.2871 85.5822 59.5586 85.754 59.957L86.6564 62.0137L87.3771 60.2383C87.5841 59.7305 87.6876 59.3711 87.6876 59.1602C87.6876 59.0391 87.6427 58.9414 87.5529 58.8672C87.4669 58.7891 87.3126 58.7461 87.09 58.7383V58.5215H88.8829V58.7383C88.7111 58.7617 88.5704 58.8262 88.4611 58.9316C88.3517 59.0371 88.1876 59.3477 87.9689 59.8633L86.1407 64.1641H85.8654ZM97.0333 61.0645H94.0275C94.0626 61.791 94.256 62.3652 94.6075 62.7871C94.8771 63.1113 95.2013 63.2734 95.5802 63.2734C95.8146 63.2734 96.0275 63.209 96.2189 63.0801C96.4103 62.9473 96.6154 62.7109 96.8341 62.3711L97.0333 62.5C96.7365 63.1055 96.4083 63.5352 96.049 63.7891C95.6896 64.0391 95.2736 64.1641 94.8009 64.1641C93.9884 64.1641 93.3732 63.8516 92.9552 63.2266C92.6193 62.7227 92.4513 62.0977 92.4513 61.3516C92.4513 60.4375 92.6974 59.7109 93.1896 59.1719C93.6857 58.6289 94.2657 58.3574 94.9298 58.3574C95.4845 58.3574 95.965 58.5859 96.3712 59.043C96.7814 59.4961 97.0021 60.1699 97.0333 61.0645ZM95.5919 60.6719C95.5919 60.043 95.5568 59.6113 95.4865 59.377C95.42 59.1426 95.3146 58.9648 95.17 58.8438C95.088 58.7734 94.9786 58.7383 94.8419 58.7383C94.6388 58.7383 94.4728 58.8379 94.3439 59.0371C94.1134 59.3848 93.9982 59.8613 93.9982 60.4668V60.6719H95.5919ZM102.998 58.5215V59.7637C103.361 59.1973 103.68 58.8223 103.953 58.6387C104.227 58.4512 104.49 58.3574 104.744 58.3574C104.963 58.3574 105.137 58.4258 105.266 58.5625C105.399 58.6953 105.465 58.8848 105.465 59.1309C105.465 59.3926 105.401 59.5957 105.272 59.7402C105.147 59.8848 104.994 59.957 104.815 59.957C104.608 59.957 104.428 59.8906 104.276 59.7578C104.123 59.625 104.033 59.5508 104.006 59.5352C103.967 59.5117 103.922 59.5 103.871 59.5C103.758 59.5 103.651 59.543 103.549 59.6289C103.389 59.7617 103.268 59.9512 103.186 60.1973C103.061 60.5762 102.998 60.9941 102.998 61.4512V62.7109L103.004 63.0391C103.004 63.2617 103.018 63.4043 103.045 63.4668C103.092 63.5723 103.16 63.6504 103.25 63.7012C103.344 63.748 103.5 63.7773 103.719 63.7891V64H100.76V63.7891C100.998 63.7695 101.158 63.7051 101.24 63.5957C101.326 63.4824 101.369 63.1875 101.369 62.7109V59.6816C101.369 59.3691 101.354 59.1699 101.322 59.084C101.283 58.9746 101.227 58.8945 101.152 58.8438C101.078 58.793 100.947 58.7578 100.76 58.7383V58.5215H102.998ZM112.52 58.3691L112.608 60.2383H112.408C112.17 59.6836 111.922 59.3047 111.664 59.1016C111.41 58.8984 111.156 58.7969 110.902 58.7969C110.742 58.7969 110.606 58.8516 110.492 58.9609C110.379 59.0664 110.322 59.1895 110.322 59.3301C110.322 59.4355 110.361 59.5371 110.44 59.6348C110.565 59.7949 110.914 60.0703 111.488 60.4609C112.063 60.8477 112.44 61.1777 112.619 61.4512C112.803 61.7207 112.895 62.0234 112.895 62.3594C112.895 62.6641 112.818 62.9629 112.666 63.2559C112.514 63.5488 112.299 63.7734 112.022 63.9297C111.744 64.0859 111.438 64.1641 111.102 64.1641C110.84 64.1641 110.49 64.082 110.053 63.918C109.936 63.875 109.856 63.8535 109.813 63.8535C109.684 63.8535 109.576 63.9512 109.49 64.1465H109.297L109.203 62.1777H109.402C109.578 62.6934 109.818 63.0801 110.123 63.3379C110.432 63.5957 110.723 63.7246 110.996 63.7246C111.184 63.7246 111.336 63.668 111.453 63.5547C111.574 63.4375 111.635 63.2969 111.635 63.1328C111.635 62.9453 111.576 62.7832 111.459 62.6465C111.342 62.5098 111.08 62.3027 110.674 62.0254C110.076 61.6113 109.69 61.2949 109.514 61.0762C109.256 60.7559 109.127 60.4023 109.127 60.0156C109.127 59.5938 109.272 59.2129 109.561 58.873C109.854 58.5293 110.276 58.3574 110.826 58.3574C111.123 58.3574 111.41 58.4297 111.688 58.5742C111.793 58.6328 111.879 58.6621 111.945 58.6621C112.016 58.6621 112.072 58.6484 112.115 58.6211C112.158 58.5898 112.227 58.5059 112.32 58.3691H112.52ZM118.051 55.8672C118.305 55.8672 118.52 55.957 118.695 56.1367C118.871 56.3125 118.959 56.5254 118.959 56.7754C118.959 57.0254 118.869 57.2383 118.69 57.4141C118.514 57.5898 118.301 57.6777 118.051 57.6777C117.801 57.6777 117.588 57.5898 117.412 57.4141C117.236 57.2383 117.149 57.0254 117.149 56.7754C117.149 56.5254 117.236 56.3125 117.412 56.1367C117.588 55.957 117.801 55.8672 118.051 55.8672ZM118.871 58.5215V62.8633C118.871 63.25 118.916 63.498 119.006 63.6074C119.096 63.7129 119.272 63.7734 119.533 63.7891V64H116.574V63.7891C116.817 63.7812 116.996 63.7109 117.113 63.5781C117.192 63.4883 117.231 63.25 117.231 62.8633V59.6641C117.231 59.2773 117.186 59.0312 117.096 58.9258C117.006 58.8164 116.832 58.7539 116.574 58.7383V58.5215H118.871ZM125.246 56.5176V58.5215H126.547V59.1016H125.246V62.4824C125.246 62.7988 125.26 63.0039 125.287 63.0977C125.318 63.1875 125.371 63.2617 125.445 63.3203C125.52 63.375 125.588 63.4023 125.651 63.4023C125.904 63.4023 126.145 63.209 126.371 62.8223L126.547 62.9512C126.231 63.7012 125.717 64.0762 125.006 64.0762C124.658 64.0762 124.363 63.9805 124.121 63.7891C123.883 63.5938 123.731 63.377 123.664 63.1387C123.625 63.0059 123.606 62.6465 123.606 62.0605V59.1016H122.891V58.8965C123.383 58.5488 123.801 58.1836 124.145 57.8008C124.492 57.418 124.795 56.9902 125.053 56.5176H125.246ZM132.582 64.2227L130.813 60.1621C130.547 59.5488 130.35 59.1719 130.221 59.0312C130.096 58.8906 129.943 58.793 129.764 58.7383V58.5215H132.676V58.7383C132.484 58.7461 132.35 58.7832 132.272 58.8496C132.193 58.916 132.154 58.9961 132.154 59.0898C132.154 59.2383 132.252 59.5312 132.447 59.9688L133.385 62.1133L134.024 60.4551C134.254 59.8652 134.369 59.4551 134.369 59.2246C134.369 59.0801 134.32 58.9648 134.223 58.8789C134.129 58.793 133.961 58.7461 133.719 58.7383V58.5215H135.553V58.7383C135.373 58.7578 135.227 58.8281 135.113 58.9492C135 59.0664 134.811 59.4707 134.545 60.1621L132.981 64.2227C132.586 65.2383 132.293 65.8633 132.102 66.0977C131.832 66.4258 131.494 66.5898 131.088 66.5898C130.764 66.5898 130.5 66.4961 130.297 66.3086C130.098 66.125 129.998 65.9023 129.998 65.6406C129.998 65.4141 130.067 65.2266 130.203 65.0781C130.344 64.9297 130.516 64.8555 130.719 64.8555C130.914 64.8555 131.07 64.918 131.188 65.043C131.309 65.168 131.371 65.3613 131.375 65.623C131.379 65.7715 131.397 65.8672 131.428 65.9102C131.459 65.9531 131.504 65.9746 131.563 65.9746C131.656 65.9746 131.756 65.918 131.861 65.8047C132.018 65.6406 132.201 65.2656 132.412 64.6797L132.582 64.2227Z" fill="white"/>
<path d="M7.91662 46.9328H1.19305C0.566273 46.9328 0.281372 46.6507 0.281372 46.0299V27.5779C0.281372 26.9572 0.566273 26.675 1.19305 26.675H7.91662C8.88527 26.675 9.79693 27.07 10.5377 27.8036C11.3354 28.5372 11.6773 29.44 11.6773 30.3993V33.785C11.6773 34.6314 11.3924 35.365 10.8795 36.0421L10.2528 36.8321L10.9365 37.6221C11.4493 38.2993 11.7342 39.0328 11.7342 39.8793V43.265C11.7342 44.2807 11.3354 45.1271 10.5946 45.8607C9.79694 46.5942 8.94225 46.9328 7.91662 46.9328ZM4.04202 34.9136H7.91662V30.3993H4.04202V34.9136ZM4.04202 43.2085H7.91662V38.6943H4.04202V43.2085Z" fill="white"/>
<path d="M21.9904 46.9323H17.1472C16.1785 46.9323 15.3238 46.5938 14.5831 45.8602C13.8993 45.1831 13.5005 44.3366 13.5005 43.3209V27.521C13.5005 26.9003 13.7854 26.6182 14.4122 26.6182H16.3495C16.9762 26.6182 17.2611 26.9003 17.2611 27.521V43.1516H21.9334C22.5602 43.1516 22.8451 43.4902 22.8451 44.0545V45.9166C22.9021 46.6502 22.6172 46.9323 21.9904 46.9323Z" fill="white"/>
<path d="M32.7027 46.9328H28.5432C27.5176 46.9328 26.6629 46.5378 25.8652 45.8042C25.1244 45.0707 24.7256 44.1678 24.7256 43.2085V27.5779C24.7256 26.9572 25.0105 26.675 25.6373 26.675H27.5176C28.1443 26.675 28.4292 26.9572 28.4292 27.5779V43.2085H32.6457V27.5779C32.6457 26.9572 32.9306 26.675 33.5574 26.675H35.4947C36.1215 26.675 36.4064 26.9572 36.4064 27.5779V43.2085C36.4064 44.2242 36.0075 45.0707 35.2668 45.8607C34.583 46.5942 33.7283 46.9328 32.7027 46.9328Z" fill="white"/>
<path d="M47.2894 46.9323H41.9333C40.9646 46.9323 40.11 46.5938 39.3692 45.8602C38.6855 45.1831 38.2866 44.3366 38.2866 43.3209V27.521C38.2866 26.9003 38.5715 26.6182 39.1983 26.6182H47.1184C47.7452 26.6182 48.0301 26.9003 48.0301 27.521V29.4396C48.0301 30.0603 47.7452 30.3424 47.1184 30.3424H42.0473V34.8567H46.2637C46.8905 34.8567 47.1754 35.1388 47.1754 35.7595V37.6781C47.1754 38.2988 46.8335 38.581 46.2637 38.581H42.0473V43.0952H47.1754C47.8022 43.0952 48.0871 43.4338 48.0871 43.9981V45.8602C48.258 46.6502 47.9161 46.9323 47.2894 46.9323Z" fill="white"/>
<path d="M69.8533 46.9328H67.916C67.2892 46.9328 67.0043 46.6507 67.0043 46.0299V35.5343L64.5542 40.7257C64.3832 41.0643 64.0983 41.2335 63.6995 41.2335C63.3006 41.2335 63.0157 41.0643 62.8448 40.7257L60.3947 35.5343V46.0299C60.3947 46.6507 60.0528 46.9328 59.483 46.9328H57.5457C56.9189 46.9328 56.634 46.6507 56.634 46.0299V27.5779C56.634 26.9572 56.9189 26.675 57.5457 26.675H59.8249C60.2237 26.675 60.5086 26.8443 60.6796 27.2393L63.6995 33.6722L66.7764 27.2393C66.9473 26.9008 67.2322 26.675 67.6311 26.675H69.9102C70.537 26.675 70.8219 26.9572 70.8219 27.5779V46.0299C70.7649 46.6507 70.48 46.9328 69.8533 46.9328Z" fill="white"/>
<path d="M80.6791 46.9323H76.3487C75.323 46.9323 74.4683 46.5373 73.7276 45.8038C72.9869 45.0702 72.588 44.1674 72.588 43.2081V30.3424C72.588 29.3267 72.9869 28.4803 73.7276 27.7467C74.4683 27.0132 75.38 26.6182 76.3487 26.6182H80.6791C81.7047 26.6182 82.5594 27.0132 83.3571 27.7467C84.1548 28.4803 84.4967 29.3832 84.4967 30.3424V43.1516C84.4967 44.1674 84.0979 45.0138 83.3571 45.7474C82.5594 46.5938 81.7047 46.9323 80.6791 46.9323ZM80.6791 43.2081V30.3989H76.3487V43.2081H80.6791Z" fill="white"/>
<path d="M94.2973 46.9328H90.1378C89.1122 46.9328 88.2575 46.5378 87.4598 45.8042C86.719 45.0707 86.3202 44.1678 86.3202 43.2085V27.5779C86.3202 26.9572 86.6051 26.675 87.2319 26.675H89.1122C89.739 26.675 90.0239 26.9572 90.0239 27.5779V43.2085H94.2403V27.5779C94.2403 26.9572 94.5252 26.675 95.152 26.675H97.0893C97.7161 26.675 98.001 26.9572 98.001 27.5779V43.2085C98.001 44.2242 97.6021 45.0707 96.8614 45.8607C96.1776 46.5942 95.266 46.9328 94.2973 46.9328Z" fill="white"/>
<path d="M107.631 46.3685L103.756 36.3243V46.0299C103.756 46.6507 103.471 46.9328 102.844 46.9328H100.964C100.337 46.9328 100.052 46.6507 100.052 46.0299V27.5779C100.052 26.9572 100.337 26.675 100.964 26.675H103.414C103.813 26.675 104.098 26.9008 104.269 27.2958L108.2 37.34V27.6343C108.2 27.0136 108.485 26.7315 109.112 26.7315H110.992C111.619 26.7315 111.904 27.0136 111.904 27.6343V46.0299C111.904 46.6507 111.619 46.9328 110.992 46.9328H108.542C108.086 46.9328 107.802 46.7635 107.631 46.3685Z" fill="white"/>
<path d="M124.098 30.3993H121.306V46.0299C121.306 46.6507 121.021 46.9328 120.394 46.9328H118.457C117.83 46.9328 117.545 46.6507 117.545 46.0299V30.3993H114.753C114.126 30.3993 113.841 30.1172 113.841 29.4965V27.5779C113.841 26.9572 114.126 26.675 114.753 26.675H124.212C124.838 26.675 125.123 26.9572 125.123 27.5779V29.4965C125.066 30.1172 124.724 30.3993 124.098 30.3993Z" fill="white"/>
<path d="M132.645 46.1988L131.904 42.4181H127.915L127.175 46.1988C127.061 46.7066 126.776 46.9323 126.263 46.9323H124.326C124.041 46.9323 123.756 46.8195 123.585 46.5938C123.414 46.3681 123.3 46.1424 123.414 45.8038L127.118 27.3517C127.232 26.8439 127.517 26.6182 128.029 26.6182H131.79C132.303 26.6182 132.588 26.8439 132.702 27.3517L136.405 45.8038C136.462 46.0859 136.405 46.3681 136.234 46.5938C136.063 46.8195 135.779 46.9323 135.494 46.9323H133.556C133.044 46.9323 132.759 46.7066 132.645 46.1988ZM131.163 38.6938L129.91 32.5996L128.656 38.6938H131.163Z" fill="white"/>
<path d="M141.191 46.9328H139.254C138.627 46.9328 138.343 46.6507 138.343 46.0299V27.5779C138.343 26.9572 138.627 26.675 139.254 26.675H141.191C141.818 26.675 142.103 26.9572 142.103 27.5779V46.0299C142.16 46.6507 141.818 46.9328 141.191 46.9328Z" fill="white"/>
<path d="M151.619 46.3685L147.744 36.3243V46.0299C147.744 46.6507 147.459 46.9328 146.832 46.9328H144.952C144.325 46.9328 144.04 46.6507 144.04 46.0299V27.5779C144.04 26.9572 144.325 26.675 144.952 26.675H147.402C147.801 26.675 148.086 26.9008 148.257 27.2958L152.188 37.34V27.6343C152.188 27.0136 152.473 26.7315 153.1 26.7315H154.98C155.607 26.7315 155.892 27.0136 155.892 27.6343V46.0299C155.892 46.6507 155.607 46.9328 154.98 46.9328H152.53C152.074 46.9328 151.79 46.7635 151.619 46.3685Z" fill="white"/>
<path d="M92.4438 20.9067H51.5896C51.3047 20.9067 51.1907 20.5681 51.3617 20.3988L71.8173 0.0846424C71.9312 -0.0282141 72.1022 -0.0282141 72.2161 0.0846424L92.6718 20.3988C92.8427 20.6245 92.7287 20.9067 92.4438 20.9067Z" fill="#0069D1"/>
<path d="M83.6123 8.77447L88.2276 4.20378C88.3416 4.09093 88.5125 4.09093 88.6265 4.20378L105.037 20.4551C105.207 20.6244 105.094 20.963 104.809 20.963H95.8059" fill="#DD071C"/>
</svg>
