<svg width="281" height="37" viewBox="0 0 281 37" fill="none" xmlns="http://www.w3.org/2000/svg">
<path d="M102.112 29.9077H94.524C93.8167 29.9077 93.4952 29.5854 93.4952 28.8764V7.79795C93.4952 7.0889 93.8167 6.7666 94.524 6.7666H102.112C103.205 6.7666 104.234 7.21782 105.07 8.0558C105.97 8.89378 106.356 9.92513 106.356 11.021V14.8885C106.356 15.8554 106.034 16.6934 105.455 17.4669L104.748 18.3694L105.52 19.2718C106.098 20.0453 106.42 20.8833 106.42 21.8502V25.7178C106.42 26.8781 105.97 27.845 105.134 28.683C104.234 29.5209 103.269 29.9077 102.112 29.9077ZM97.7391 16.1777H102.112V11.021H97.7391V16.1777ZM97.7391 25.6534H102.112V20.4966H97.7391V25.6534Z" fill="white"/>
<path d="M117.994 29.9077H112.529C111.435 29.9077 110.471 29.521 109.635 28.683C108.863 27.9095 108.413 26.9426 108.413 25.7823V7.73351C108.413 7.02445 108.735 6.70215 109.442 6.70215H111.628C112.336 6.70215 112.657 7.02445 112.657 7.73351V25.5889H117.93C118.637 25.5889 118.959 25.9757 118.959 26.6203V28.7474C119.023 29.5854 118.702 29.9077 117.994 29.9077Z" fill="white"/>
<path d="M130.083 29.9077H125.389C124.232 29.9077 123.267 29.4565 122.367 28.6185C121.531 27.7805 121.081 26.7492 121.081 25.6534V7.79795C121.081 7.0889 121.402 6.7666 122.11 6.7666H124.232C124.939 6.7666 125.26 7.0889 125.26 7.79795V25.6534H130.019V7.79795C130.019 7.0889 130.34 6.7666 131.048 6.7666H133.234C133.941 6.7666 134.263 7.0889 134.263 7.79795V25.6534C134.263 26.8136 133.813 27.7805 132.977 28.683C132.205 29.5209 131.241 29.9077 130.083 29.9077Z" fill="white"/>
<path d="M146.544 29.9077H140.5C139.407 29.9077 138.442 29.521 137.606 28.683C136.835 27.9095 136.385 26.9426 136.385 25.7823V7.73351C136.385 7.02445 136.706 6.70215 137.413 6.70215H146.351C147.059 6.70215 147.38 7.02445 147.38 7.73351V9.92514C147.38 10.6342 147.059 10.9565 146.351 10.9565H140.629V16.1133H145.387C146.094 16.1133 146.416 16.4356 146.416 17.1447V19.3363C146.416 20.0454 146.03 20.3676 145.387 20.3676H140.629V25.5244H146.416C147.123 25.5244 147.445 25.9112 147.445 26.5558V28.683C147.638 29.5854 147.252 29.9077 146.544 29.9077Z" fill="white"/>
<path d="M172.008 29.9077H169.822C169.114 29.9077 168.793 29.5854 168.793 28.8764V16.8868L166.028 22.8171C165.835 23.2039 165.514 23.3973 165.063 23.3973C164.613 23.3973 164.292 23.2039 164.099 22.8171L161.334 16.8868V28.8764C161.334 29.5854 160.948 29.9077 160.305 29.9077H158.119C157.411 29.9077 157.09 29.5854 157.09 28.8764V7.79795C157.09 7.0889 157.411 6.7666 158.119 6.7666H160.691C161.141 6.7666 161.462 6.95998 161.655 7.4112L165.063 14.7596L168.536 7.4112C168.729 7.02444 169.05 6.7666 169.5 6.7666H172.072C172.78 6.7666 173.101 7.0889 173.101 7.79795V28.8764C173.037 29.5854 172.715 29.9077 172.008 29.9077Z" fill="white"/>
<path d="M184.225 29.9077H179.338C178.181 29.9077 177.216 29.4565 176.381 28.6185C175.545 27.7806 175.094 26.7492 175.094 25.6534V10.9565C175.094 9.79623 175.545 8.82933 176.381 7.99135C177.216 7.15337 178.245 6.70215 179.338 6.70215H184.225C185.383 6.70215 186.347 7.15337 187.248 7.99135C188.148 8.82933 188.534 9.86069 188.534 10.9565V25.5889C188.534 26.7492 188.084 27.7161 187.248 28.5541C186.347 29.521 185.383 29.9077 184.225 29.9077ZM184.225 25.6534V11.021H179.338V25.6534H184.225Z" fill="white"/>
<path d="M199.594 29.9077H194.9C193.742 29.9077 192.778 29.4565 191.877 28.6185C191.041 27.7805 190.591 26.7492 190.591 25.6534V7.79795C190.591 7.0889 190.913 6.7666 191.62 6.7666H193.742C194.449 6.7666 194.771 7.0889 194.771 7.79795V25.6534H199.529V7.79795C199.529 7.0889 199.851 6.7666 200.558 6.7666H202.744C203.452 6.7666 203.773 7.0889 203.773 7.79795V25.6534C203.773 26.8136 203.323 27.7805 202.487 28.683C201.716 29.5209 200.687 29.9077 199.594 29.9077Z" fill="white"/>
<path d="M214.64 29.2631L210.268 17.7892V28.8764C210.268 29.5854 209.946 29.9077 209.239 29.9077H207.117C206.41 29.9077 206.088 29.5854 206.088 28.8764V7.79795C206.088 7.0889 206.41 6.7666 207.117 6.7666H209.882C210.332 6.7666 210.654 7.02444 210.846 7.47565L215.283 18.9495V7.86242C215.283 7.15336 215.605 6.83106 216.312 6.83106H218.434C219.141 6.83106 219.463 7.15336 219.463 7.86242V28.8764C219.463 29.5854 219.141 29.9077 218.434 29.9077H215.669C215.155 29.9077 214.833 29.7143 214.64 29.2631Z" fill="white"/>
<path d="M233.224 11.021H230.073V28.8764C230.073 29.5854 229.751 29.9077 229.044 29.9077H226.858C226.15 29.9077 225.829 29.5854 225.829 28.8764V11.021H222.678C221.971 11.021 221.649 10.6987 221.649 9.9896V7.79795C221.649 7.0889 221.971 6.7666 222.678 6.7666H233.352C234.059 6.7666 234.381 7.0889 234.381 7.79795V9.9896C234.317 10.6987 233.931 11.021 233.224 11.021Z" fill="white"/>
<path d="M242.869 29.0697L242.033 24.7509H237.532L236.696 29.0697C236.567 29.6499 236.246 29.9077 235.667 29.9077H233.481C233.159 29.9077 232.838 29.7788 232.645 29.521C232.452 29.2631 232.323 29.0053 232.452 28.6185L236.632 7.54013C236.76 6.95999 237.082 6.70215 237.66 6.70215H241.904C242.483 6.70215 242.805 6.95999 242.933 7.54013L247.113 28.6185C247.177 28.9408 247.113 29.2631 246.92 29.521C246.727 29.7788 246.406 29.9077 246.084 29.9077H243.898C243.319 29.9077 242.997 29.6499 242.869 29.0697ZM241.197 20.4966L239.782 13.5349L238.368 20.4966H241.197Z" fill="white"/>
<path d="M252.514 29.9077H250.328C249.621 29.9077 249.299 29.5854 249.299 28.8764V7.79795C249.299 7.0889 249.621 6.7666 250.328 6.7666H252.514C253.222 6.7666 253.543 7.0889 253.543 7.79795V28.8764C253.607 29.5854 253.222 29.9077 252.514 29.9077Z" fill="white"/>
<path d="M264.281 29.2631L259.909 17.7892V28.8764C259.909 29.5854 259.587 29.9077 258.88 29.9077H256.758C256.051 29.9077 255.729 29.5854 255.729 28.8764V7.79795C255.729 7.0889 256.051 6.7666 256.758 6.7666H259.523C259.973 6.7666 260.295 7.02444 260.488 7.47565L264.924 18.9495V7.86242C264.924 7.15336 265.246 6.83106 265.953 6.83106H268.075C268.783 6.83106 269.104 7.15336 269.104 7.86242V28.8764C269.104 29.5854 268.783 29.9077 268.075 29.9077H265.31C264.796 29.9077 264.474 29.7143 264.281 29.2631Z" fill="white"/>
<path d="M76.4551 37H4.62975C2.12197 37 0 34.9373 0 32.3589V4.64111C0 2.12718 2.05767 0 4.62975 0H76.5195C79.0272 0 81.1492 2.06272 81.1492 4.64111V32.3589C81.0849 34.9373 79.0272 37 76.4551 37Z" fill="#0069D1"/>
<path d="M57.6147 29.9078H11.5101C11.1886 29.9078 11.06 29.521 11.2529 29.3276L34.3373 6.12208C34.4659 5.99316 34.6588 5.99316 34.7874 6.12208L57.8719 29.3276C58.0648 29.5855 57.9362 29.9078 57.6147 29.9078Z" fill="white"/>
<path d="M47.6478 16.0489L52.8563 10.8276C52.9849 10.6987 53.1778 10.6987 53.3064 10.8276L71.8254 29.3921C72.0183 29.5855 71.8897 29.9722 71.5682 29.9722H61.4085" fill="#DD071C"/>
</svg>
