<svg width="176" height="122" viewBox="0 0 176 122" fill="none" xmlns="http://www.w3.org/2000/svg">
<path d="M175.944 2.62566C175.924 2.42851 175.885 2.23427 175.827 2.04476C175.768 1.85705 175.689 1.67589 175.592 1.50452C175.545 1.4232 175.537 1.32735 175.481 1.24893C175.425 1.17051 175.355 1.13856 175.299 1.07175C175.168 0.918905 175.021 0.779854 174.862 0.656413C174.723 0.546043 174.574 0.448741 174.416 0.365964C174.252 0.28246 174.08 0.215295 173.903 0.165556C173.711 0.109282 173.515 0.0704343 173.316 0.0493768C173.228 0.0493768 173.152 0 173.061 0H2.93333C2.8446 0.0130702 2.75623 0.0304961 2.66933 0.0522797C2.4783 0.0711589 2.28947 0.109282 2.10613 0.165556C1.92427 0.216748 1.74717 0.285002 1.57813 0.368869C1.42377 0.452373 1.27783 0.549675 1.14107 0.659319C0.979733 0.78276 0.832333 0.922901 0.701067 1.07756C0.645333 1.14437 0.569067 1.18213 0.5192 1.25474C0.469333 1.32735 0.454667 1.42901 0.407733 1.51033C0.310567 1.6817 0.231733 1.86287 0.173067 2.05057C0.114767 2.24009 0.0755333 2.43432 0.0557333 2.63146C0.0557333 2.72731 0 2.81154 0 2.92191V119.096C0 120.7 1.3134 122 2.93333 122H173.067C174.687 122 176 120.7 176 119.096V2.9161C176 2.81735 175.953 2.73312 175.944 2.62566ZM163.645 5.82059L88 57.4769L12.3552 5.82059H163.645ZM5.86667 116.191V8.44915L86.3339 63.3962C87.3367 64.0817 88.6633 64.0817 89.6661 63.3962L170.133 8.44915V116.191H5.86667Z" fill="#4285F4"/>
</svg>
