<svg width="132" height="92" viewBox="0 0 132 92" fill="none" xmlns="http://www.w3.org/2000/svg">
<path d="M131.958 1.96924C131.943 1.82139 131.914 1.67571 131.87 1.53357C131.826 1.39279 131.767 1.25692 131.694 1.12839C131.659 1.0674 131.652 0.995513 131.611 0.936697C131.569 0.877881 131.516 0.853918 131.474 0.803815C131.376 0.689179 131.266 0.58489 131.146 0.49231C131.042 0.409532 130.93 0.336556 130.812 0.274473C130.689 0.211845 130.56 0.161472 130.427 0.124167C130.283 0.0819613 130.136 0.0528258 129.987 0.0370326C129.921 0.0370326 129.864 0 129.796 0H2.2C2.13345 0.00980264 2.06718 0.0228721 2.002 0.0392098C1.85873 0.0533692 1.7171 0.0819613 1.5796 0.124167C1.4432 0.162561 1.31037 0.213752 1.1836 0.276652C1.06782 0.33928 0.958375 0.412256 0.8558 0.494489C0.7348 0.58707 0.62425 0.692176 0.5258 0.808174C0.484 0.858276 0.4268 0.886595 0.3894 0.941054C0.352 0.995513 0.341 1.07175 0.3058 1.13275C0.232925 1.26127 0.1738 1.39715 0.1298 1.53793C0.086075 1.68006 0.05665 1.82574 0.0418 1.9736C0.0418 2.04548 0 2.10866 0 2.19143V89.3216C0 90.5246 0.98505 91.5 2.2 91.5H129.8C131.015 91.5 132 90.5246 132 89.3216V2.18708C132 2.11301 131.965 2.04984 131.958 1.96924ZM122.734 4.36544L66 43.1077L9.2664 4.36544H122.734ZM4.4 87.1433V6.33686L64.7504 47.5472C65.5025 48.0612 66.4975 48.0612 67.2496 47.5472L127.6 6.33686V87.1433H4.4Z" fill="#E5CE00" fill-opacity="0.95"/>
</svg>
