<svg width="53" height="36" viewBox="0 0 53 36" fill="none" xmlns="http://www.w3.org/2000/svg">
<path d="M52.8427 0.000488281H0.105469V35.5326H52.8427V0.000488281Z" fill="#0052B4"/>
<path d="M23.116 17.7658C23.1441 17.7341 23.1719 17.7024 23.1997 17.6704C23.1719 17.7025 23.1435 17.7339 23.1152 17.7658H23.116Z" fill="#F0F0F0"/>
<path d="M19.5955 22.1299L20.7242 24.5151L23.2732 23.9198L22.1317 26.2988L24.1814 27.9415L21.6294 28.5229L21.6365 31.1667L19.5955 29.5126L17.5546 31.1667L17.5618 28.5229L15.0098 27.9415L17.0595 26.2988L15.9179 23.9198L18.4668 24.5151L19.5955 22.1299Z" fill="#F0F0F0"/>
<path d="M39.9763 25.0933L40.5147 26.2309L41.7304 25.947L41.186 27.0816L42.1637 27.8653L40.9464 28.1425L40.9497 29.4035L39.9763 28.6147L39.0029 29.4035L39.0062 28.1425L37.7891 27.8653L38.7667 27.0816L38.2223 25.947L39.438 26.2309L39.9763 25.0933Z" fill="#F0F0F0"/>
<path d="M34.9667 13.0239L35.505 14.1617L36.7208 13.8776L36.1763 15.0124L37.1539 15.796L35.9367 16.0732L35.94 17.3344L34.9667 16.5453L33.9932 17.3344L33.9966 16.0732L32.7793 15.796L33.7569 15.0124L33.2126 13.8776L34.4283 14.1617L34.9667 13.0239Z" fill="#F0F0F0"/>
<path d="M39.9763 6.12793L40.5147 7.26571L41.7304 6.98152L41.186 8.11639L42.1636 8.89993L40.9464 9.17724L40.9497 10.4383L39.9763 9.64922L39.0029 10.4383L39.0062 9.17724L37.7891 8.89993L38.7667 8.11639L38.2223 6.98152L39.438 7.26571L39.9763 6.12793Z" fill="#F0F0F0"/>
<path d="M44.3513 11.2998L44.8897 12.4375L46.1053 12.1535L45.5611 13.2882L46.5387 14.0717L45.3214 14.349L45.3248 15.61L44.3513 14.8212L43.3779 15.61L43.3812 14.349L42.1641 14.0717L43.1417 13.2882L42.5972 12.1535L43.8129 12.4375L44.3513 11.2998Z" fill="#F0F0F0"/>
<path d="M41.2236 17.335L41.6469 18.652H43.0173L41.9086 19.466L42.3322 20.7831L41.2236 19.9691L40.1148 20.7831L40.5383 19.466L39.4297 18.652H40.8L41.2236 17.335Z" fill="#F0F0F0"/>
<path d="M26.4741 0.000488281V3.18096L21.8218 5.79369H26.4741V11.9728H20.3863L26.4741 15.3908V17.766H23.726L16.1559 13.5161V17.766H10.4236V12.7097L1.41813 17.766H0.105469V14.5855L4.75778 11.9728H0.105469V5.79369H6.19322L0.105469 2.37452V0.000488281H2.85357L10.4236 4.25046V0.000488281H16.1559V5.05679L25.1614 0.000488281H26.4741Z" fill="#F0F0F0"/>
<path d="M14.9378 0.000976562H11.6417V7.21823H0.105469V10.5493H11.6417V17.7668H14.9378V10.5493H26.4741V7.21823H14.9378V0.000976562Z" fill="#D80027"/>
<path d="M16.1582 11.9727L26.4764 17.7659V16.1277L19.076 11.9727H16.1582Z" fill="#0052B4"/>
<path d="M16.1582 11.9727L26.4764 17.7659V16.1277L19.076 11.9727H16.1582Z" fill="#F0F0F0"/>
<path d="M16.1582 11.9727L26.4764 17.7659V16.1277L19.076 11.9727H16.1582Z" fill="#D80027"/>
<path d="M7.50578 11.9731L0.105469 16.1282V17.7663L10.4236 11.9731H7.50578Z" fill="#D80027"/>
<path d="M10.4236 5.79418L0.105469 0.000976562V1.63915L7.50589 5.79418H10.4236Z" fill="#0052B4"/>
<path d="M10.4236 5.79418L0.105469 0.000976562V1.63915L7.50589 5.79418H10.4236Z" fill="#F0F0F0"/>
<path d="M10.4236 5.79418L0.105469 0.000976562V1.63915L7.50589 5.79418H10.4236Z" fill="#D80027"/>
<path d="M19.0761 5.7932L26.4764 1.63817V0L16.1582 5.7932H19.0761Z" fill="#D80027"/>
<rect y="0.0405273" width="53" height="35.9594" fill="#505050" fill-opacity="0.88"/>
</svg>
