<svg width="137" height="54" viewBox="0 0 137 54" fill="none" xmlns="http://www.w3.org/2000/svg">
<path d="M106.521 32.5H7.38986C3.92869 32.5 1 30.6881 1 28.4233V4.07665C1 1.86846 3.83994 0 7.38986 0H106.61C110.071 0 113 1.81184 113 4.07665V28.4233C112.911 30.6881 110.071 32.5 106.521 32.5Z" fill="#031928"/>
<path d="M51.5409 26.2704H11.0969C10.8148 26.2704 10.702 25.9307 10.8713 25.7608L31.1215 5.37753C31.2343 5.26429 31.4035 5.26429 31.5163 5.37753L51.7666 25.7608C51.9358 25.9873 51.823 26.2704 51.5409 26.2704Z" fill="#0069D1"/>
<path d="M42.7979 14.0969L47.3668 9.51071C47.4797 9.39747 47.6489 9.39747 47.7617 9.51071L64.007 25.8173C64.1762 25.9872 64.0634 26.3269 63.7814 26.3269H54.869" fill="#DD071C"/>
<path d="M80.5749 26.2704H73.9189C73.2984 26.2704 73.0164 25.9873 73.0164 25.3645V6.84964C73.0164 6.22682 73.2984 5.94373 73.9189 5.94373H80.5749C81.5339 5.94373 82.4364 6.34007 83.1697 7.07613C83.9594 7.81219 84.2978 8.71811 84.2978 9.68065V13.0779C84.2978 13.9272 84.0158 14.6632 83.5081 15.3427L82.8876 16.1354L83.5645 16.928C84.0722 17.6075 84.3542 18.3436 84.3542 19.1929V22.5901C84.3542 23.6092 83.9594 24.4585 83.2261 25.1946C82.4364 25.9306 81.5903 26.2704 80.5749 26.2704ZM76.7392 14.2103H80.5749V9.68065H76.7392V14.2103ZM76.7392 22.5334H80.5749V18.0038H76.7392V22.5334Z" fill="white"/>
<path d="M101.89 26.2704H99.9719C99.3514 26.2704 99.0694 25.9873 99.0694 25.3645V14.8331L96.6439 20.0422C96.4746 20.3819 96.1926 20.5517 95.7977 20.5517C95.4029 20.5517 95.1209 20.3819 94.9516 20.0422L92.5261 14.8331V25.3645C92.5261 25.9873 92.1877 26.2704 91.6236 26.2704H89.7057C89.0853 26.2704 88.8032 25.9873 88.8032 25.3645V6.84964C88.8032 6.22682 89.0853 5.94373 89.7057 5.94373H91.962C92.3569 5.94373 92.6389 6.11359 92.8081 6.50993L95.7977 12.9646L98.8437 6.50993C99.013 6.17021 99.295 5.94373 99.6898 5.94373H101.946C102.567 5.94373 102.849 6.22682 102.849 6.84964V25.3645C102.792 25.9873 102.51 26.2704 101.89 26.2704Z" fill="white"/>
<path d="M9.47845 45.132C10.1625 44.772 10.5945 44.124 10.5945 43.284C10.5945 41.976 9.51445 41.1 7.41445 41.1H3.31045V49.5H7.65445C9.86245 49.5 11.0145 48.66 11.0145 47.208C11.0145 46.152 10.4145 45.432 9.47845 45.132ZM7.17445 42.564C8.12245 42.564 8.63845 42.888 8.63845 43.548C8.63845 44.208 8.12245 44.544 7.17445 44.544H5.24245V42.564H7.17445ZM7.51045 48.036H5.24245V45.96H7.51045C8.51845 45.96 9.05845 46.296 9.05845 47.004C9.05845 47.724 8.51845 48.036 7.51045 48.036ZM18.7622 49.5H20.8022L17.0462 41.1H15.1262L11.3822 49.5H13.3742L14.1182 47.7H18.0182L18.7622 49.5ZM14.7422 46.224L16.0742 43.008L17.4062 46.224H14.7422ZM27.4577 41.1V46.2L23.2817 41.1H21.6737V49.5H23.5937V44.4L27.7817 49.5H29.3777V41.1H27.4577ZM37.1131 49.5H39.3811L35.6971 44.844L39.1771 41.1H37.0171L33.2971 45.024V41.1H31.3651V49.5H33.2971V47.376L34.4251 46.2L37.1131 49.5ZM40.248 49.5H42.192V41.1H40.248V49.5ZM49.9695 41.1V46.2L45.7935 41.1H44.1855V49.5H46.1055V44.4L50.2935 49.5H51.8895V41.1H49.9695ZM59.5529 47.628C59.0609 47.892 58.5689 47.988 58.0409 47.988C56.4329 47.988 55.3169 46.872 55.3169 45.3C55.3169 43.704 56.4329 42.612 58.0649 42.612C58.9169 42.612 59.6249 42.912 60.2369 43.56L61.4849 42.408C60.6689 41.46 59.4449 40.956 57.9689 40.956C55.2929 40.956 53.3489 42.768 53.3489 45.3C53.3489 47.832 55.2929 49.644 57.9329 49.644C59.1329 49.644 60.4049 49.272 61.3289 48.576V45.168H59.5529V47.628ZM73.3131 45.816L72.4131 45.516C72.1851 46.116 71.8971 46.632 71.5851 47.052L69.9291 45.012C71.4411 44.292 72.1851 43.632 72.1851 42.576C72.1851 41.604 71.3811 41.028 70.2291 41.028C68.8131 41.028 67.7571 41.844 67.7571 43.2C67.7571 43.764 67.9851 44.268 68.3811 44.808C66.6771 45.624 65.8491 46.452 65.8491 47.616C65.8491 48.828 66.9171 49.596 68.5731 49.596C69.6291 49.596 70.6131 49.26 71.4411 48.576L72.2931 49.632L73.0611 48.876L72.1971 47.808C72.6291 47.268 73.0131 46.608 73.3131 45.816ZM70.1931 41.868C70.8291 41.868 71.2011 42.216 71.2011 42.672C71.2011 43.296 70.7931 43.692 69.3891 44.352C68.9811 43.836 68.8131 43.464 68.8131 43.092C68.8131 42.348 69.3531 41.868 70.1931 41.868ZM68.6451 48.636C67.5771 48.636 67.0011 48.132 67.0011 47.424C67.0011 46.656 67.5411 46.14 68.9211 45.48L70.8411 47.832C70.1811 48.372 69.4371 48.636 68.6451 48.636ZM84.5061 42.66V41.1H78.1581V49.5H80.1021V46.44H83.9901V44.88H80.1021V42.66H84.5061ZM85.8222 49.5H87.7662V41.1H85.8222V49.5ZM95.5437 41.1V46.2L91.3677 41.1H89.7597V49.5H91.6797V44.4L95.8677 49.5H97.4637V41.1H95.5437ZM105.727 49.5H107.767L104.011 41.1H102.091L98.3471 49.5H100.339L101.083 47.7H104.983L105.727 49.5ZM101.707 46.224L103.039 43.008L104.371 46.224H101.707ZM114.423 41.1V46.2L110.247 41.1H108.639V49.5H110.559V44.4L114.747 49.5H116.343V41.1H114.423ZM122.35 49.644C123.814 49.644 125.026 49.116 125.818 48.144L124.57 46.992C124.006 47.652 123.298 47.988 122.458 47.988C120.886 47.988 119.77 46.884 119.77 45.3C119.77 43.716 120.886 42.612 122.458 42.612C123.298 42.612 124.006 42.948 124.57 43.596L125.818 42.444C125.026 41.484 123.814 40.956 122.362 40.956C119.746 40.956 117.802 42.768 117.802 45.3C117.802 47.832 119.746 49.644 122.35 49.644ZM129.063 47.94V45.996H132.963V44.484H129.063V42.66H133.479V41.1H127.131V49.5H133.635V47.94H129.063Z" fill="black"/>
</svg>
