<svg width="205" height="84" viewBox="0 0 205 84" fill="none" xmlns="http://www.w3.org/2000/svg">
<path d="M170.282 48.75H21.5848C16.393 48.75 12 46.0322 12 42.635V6.11498C12 2.8027 16.2599 0 21.5848 0H170.415C175.607 0 180 2.71777 180 6.11498V42.635C179.867 46.0322 175.607 48.75 170.282 48.75Z" fill="#031928"/>
<path d="M87.8114 39.4056H27.1453C26.7223 39.4056 26.5531 38.896 26.8069 38.6412L57.1822 8.0663C57.3514 7.89644 57.6053 7.89644 57.7745 8.0663L88.1498 38.6412C88.4037 38.9809 88.2345 39.4056 87.8114 39.4056Z" fill="#0069D1"/>
<path d="M74.6968 21.1454L81.5503 14.2661C81.7195 14.0962 81.9733 14.0962 82.1425 14.2661L106.511 38.726C106.764 38.9808 106.595 39.4904 106.172 39.4904H92.8035" fill="#DD071C"/>
<path d="M131.362 39.4056H121.378C120.448 39.4056 120.025 38.9809 120.025 38.0467V10.2745C120.025 9.34023 120.448 8.91559 121.378 8.91559H131.362C132.801 8.91559 134.155 9.5101 135.255 10.6142C136.439 11.7183 136.947 13.0772 136.947 14.521V19.6168C136.947 20.8908 136.524 21.9948 135.762 23.014L134.831 24.203L135.847 25.3921C136.608 26.4112 137.031 27.5153 137.031 28.7893V33.8851C137.031 35.4138 136.439 36.6878 135.339 37.7919C134.155 38.896 132.885 39.4056 131.362 39.4056ZM125.609 21.3154H131.362V14.521H125.609V21.3154ZM125.609 33.8002H131.362V27.0057H125.609V33.8002Z" fill="white"/>
<path d="M163.335 39.4056H160.458C159.527 39.4056 159.104 38.9809 159.104 38.0467V22.2496L155.466 30.0632C155.212 30.5728 154.789 30.8276 154.197 30.8276C153.604 30.8276 153.181 30.5728 152.927 30.0632L149.289 22.2496V38.0467C149.289 38.9809 148.781 39.4056 147.935 39.4056H145.059C144.128 39.4056 143.705 38.9809 143.705 38.0467V10.2745C143.705 9.34023 144.128 8.91559 145.059 8.91559H148.443C149.035 8.91559 149.458 9.17038 149.712 9.76489L154.197 19.4469L158.766 9.76489C159.019 9.25531 159.442 8.91559 160.035 8.91559H163.419C164.35 8.91559 164.773 9.34023 164.773 10.2745V38.0467C164.688 38.9809 164.265 39.4056 163.335 39.4056Z" fill="white"/>
<path d="M16.6615 74.91V71.994H22.5115V69.726H16.6615V66.99H23.2855V64.65H13.7635V77.25H23.5195V74.91H16.6615ZM34.5157 64.65V72.3L28.2517 64.65H25.8397V77.25H28.7197V69.6L35.0017 77.25H37.3957V64.65H34.5157ZM43.2748 74.91V71.994H49.1248V69.726H43.2748V66.99H49.8988V64.65H40.3768V77.25H50.1328V74.91H43.2748ZM63.613 77.25L60.787 73.2C62.425 72.498 63.379 71.112 63.379 69.222C63.379 66.396 61.273 64.65 57.907 64.65H52.453V77.25H55.369V73.74H57.907H58.051L60.481 77.25H63.613ZM60.427 69.222C60.427 70.59 59.527 71.418 57.745 71.418H55.369V67.026H57.745C59.527 67.026 60.427 67.836 60.427 69.222ZM74.2033 74.442C73.4653 74.838 72.7273 74.982 71.9353 74.982C69.5233 74.982 67.8493 73.308 67.8493 70.95C67.8493 68.556 69.5233 66.918 71.9713 66.918C73.2493 66.918 74.3113 67.368 75.2293 68.34L77.1013 66.612C75.8773 65.19 74.0413 64.434 71.8273 64.434C67.8133 64.434 64.8973 67.152 64.8973 70.95C64.8973 74.748 67.8133 77.466 71.7733 77.466C73.5733 77.466 75.4813 76.908 76.8673 75.864V70.752H74.2033V74.442ZM90.52 64.65H87.658L84.292 70.248L80.926 64.65H77.83L82.708 72.75V77.25H85.624V72.786L90.52 64.65ZM91.9365 73.902C90.9465 73.902 90.1905 74.586 90.1905 75.63C90.1905 76.368 90.5685 76.926 91.1625 77.16L90.3705 80.022H92.1525L93.1785 77.43C93.5925 76.44 93.6645 76.098 93.6645 75.63C93.6645 74.604 92.9445 73.902 91.9365 73.902ZM106.965 77.466C110.925 77.466 113.859 74.712 113.859 70.95C113.859 67.188 110.925 64.434 106.965 64.434C102.987 64.434 100.071 67.206 100.071 70.95C100.071 74.694 102.987 77.466 106.965 77.466ZM106.965 74.982C104.715 74.982 103.023 73.344 103.023 70.95C103.023 68.556 104.715 66.918 106.965 66.918C109.215 66.918 110.907 68.556 110.907 70.95C110.907 73.344 109.215 74.982 106.965 74.982ZM116.051 77.25H118.967V64.65H116.051V77.25ZM121.957 77.25H131.191V74.874H124.873V64.65H121.957V77.25ZM147.824 71.724L146.474 71.274C146.132 72.174 145.7 72.948 145.232 73.578L142.748 70.518C145.016 69.438 146.132 68.448 146.132 66.864C146.132 65.406 144.926 64.542 143.198 64.542C141.074 64.542 139.49 65.766 139.49 67.8C139.49 68.646 139.832 69.402 140.426 70.212C137.87 71.436 136.628 72.678 136.628 74.424C136.628 76.242 138.23 77.394 140.714 77.394C142.298 77.394 143.774 76.89 145.016 75.864L146.294 77.448L147.446 76.314L146.15 74.712C146.798 73.902 147.374 72.912 147.824 71.724ZM143.144 65.802C144.098 65.802 144.656 66.324 144.656 67.008C144.656 67.944 144.044 68.538 141.938 69.528C141.326 68.754 141.074 68.196 141.074 67.638C141.074 66.522 141.884 65.802 143.144 65.802ZM140.822 75.954C139.22 75.954 138.356 75.198 138.356 74.136C138.356 72.984 139.166 72.21 141.236 71.22L144.116 74.748C143.126 75.558 142.01 75.954 140.822 75.954ZM163.342 74.442C162.604 74.838 161.866 74.982 161.074 74.982C158.662 74.982 156.988 73.308 156.988 70.95C156.988 68.556 158.662 66.918 161.11 66.918C162.388 66.918 163.45 67.368 164.368 68.34L166.24 66.612C165.016 65.19 163.18 64.434 160.966 64.434C156.952 64.434 154.036 67.152 154.036 70.95C154.036 74.748 156.952 77.466 160.912 77.466C162.712 77.466 164.62 76.908 166.006 75.864V70.752H163.342V74.442ZM178.129 77.25H181.189L175.555 64.65H172.675L167.059 77.25H170.047L171.163 74.55H177.013L178.129 77.25ZM172.099 72.336L174.097 67.512L176.095 72.336H172.099ZM186.636 77.466C190.236 77.466 191.982 75.666 191.982 73.56C191.982 68.934 184.656 70.536 184.656 68.214C184.656 67.422 185.322 66.774 187.05 66.774C188.166 66.774 189.372 67.098 190.542 67.764L191.442 65.55C190.272 64.812 188.652 64.434 187.068 64.434C183.486 64.434 181.758 66.216 181.758 68.358C181.758 73.038 189.084 71.418 189.084 73.776C189.084 74.55 188.382 75.126 186.654 75.126C185.142 75.126 183.558 74.586 182.496 73.812L181.506 76.008C182.622 76.872 184.638 77.466 186.636 77.466Z" fill="black"/>
</svg>
