<svg width="205" height="79" viewBox="0 0 205 79" fill="none" xmlns="http://www.w3.org/2000/svg">
<path d="M177.032 48.75H28.3348C23.143 48.75 18.75 46.0322 18.75 42.635V6.11498C18.75 2.8027 23.0099 0 28.3348 0H177.165C182.357 0 186.75 2.71777 186.75 6.11498V42.635C186.617 46.0322 182.357 48.75 177.032 48.75Z" fill="#031928"/>
<path d="M94.561 39.4056H33.895C33.4719 39.4056 33.3027 38.896 33.5565 38.6412L63.9319 8.0663C64.1011 7.89644 64.3549 7.89644 64.5241 8.0663L94.8995 38.6412C95.1533 38.9809 94.9841 39.4056 94.561 39.4056Z" fill="#0069D1"/>
<path d="M81.4468 21.1454L88.3003 14.2661C88.4695 14.0962 88.7233 14.0962 88.8925 14.2661L113.261 38.726C113.514 38.9808 113.345 39.4904 112.922 39.4904H99.5535" fill="#DD071C"/>
<path d="M138.113 39.4056H128.129C127.198 39.4056 126.775 38.9809 126.775 38.0467V10.2745C126.775 9.34023 127.198 8.91559 128.129 8.91559H138.113C139.551 8.91559 140.905 9.5101 142.005 10.6142C143.189 11.7183 143.697 13.0772 143.697 14.521V19.6168C143.697 20.8908 143.274 21.9948 142.513 23.014L141.582 24.203L142.597 25.3921C143.359 26.4112 143.782 27.5153 143.782 28.7893V33.8851C143.782 35.4138 143.189 36.6878 142.089 37.7919C140.905 38.896 139.636 39.4056 138.113 39.4056ZM132.359 21.3154H138.113V14.521H132.359V21.3154ZM132.359 33.8002H138.113V27.0057H132.359V33.8002Z" fill="white"/>
<path d="M170.085 39.4056H167.209C166.278 39.4056 165.855 38.9809 165.855 38.0467V22.2496L162.217 30.0632C161.963 30.5728 161.54 30.8276 160.947 30.8276C160.355 30.8276 159.932 30.5728 159.678 30.0632L156.04 22.2496V38.0467C156.04 38.9809 155.532 39.4056 154.686 39.4056H151.809C150.879 39.4056 150.456 38.9809 150.456 38.0467V10.2745C150.456 9.34023 150.879 8.91559 151.809 8.91559H155.194C155.786 8.91559 156.209 9.17038 156.463 9.76489L160.947 19.4469L165.516 9.76489C165.77 9.25531 166.193 8.91559 166.786 8.91559H170.17C171.101 8.91559 171.524 9.34023 171.524 10.2745V38.0467C171.439 38.9809 171.016 39.4056 170.085 39.4056Z" fill="white"/>
<path d="M13.6643 65.502H16.3283V70.614C15.6443 71.13 14.8523 71.526 13.9523 71.802C13.0523 72.078 12.1463 72.216 11.2343 72.216C9.92625 72.216 8.75025 71.94 7.70625 71.388C6.66225 70.824 5.84025 70.05 5.24025 69.066C4.65225 68.07 4.35825 66.948 4.35825 65.7C4.35825 64.452 4.65225 63.336 5.24025 62.352C5.84025 61.356 6.66825 60.582 7.72425 60.03C8.78025 59.466 9.96825 59.184 11.2883 59.184C12.3923 59.184 13.3943 59.37 14.2943 59.742C15.1943 60.114 15.9503 60.654 16.5623 61.362L14.6903 63.09C13.7903 62.142 12.7043 61.668 11.4323 61.668C10.6283 61.668 9.91425 61.836 9.29025 62.172C8.66625 62.508 8.18025 62.982 7.83225 63.594C7.48425 64.206 7.31025 64.908 7.31025 65.7C7.31025 66.48 7.48425 67.176 7.83225 67.788C8.18025 68.4 8.66025 68.88 9.27225 69.228C9.89625 69.564 10.6043 69.732 11.3963 69.732C12.2363 69.732 12.9923 69.552 13.6643 69.192V65.502ZM25.139 72.216C23.831 72.216 22.649 71.934 21.593 71.37C20.549 70.806 19.727 70.032 19.127 69.048C18.539 68.052 18.245 66.936 18.245 65.7C18.245 64.464 18.539 63.354 19.127 62.37C19.727 61.374 20.549 60.594 21.593 60.03C22.649 59.466 23.831 59.184 25.139 59.184C26.447 59.184 27.623 59.466 28.667 60.03C29.711 60.594 30.533 61.374 31.133 62.37C31.733 63.354 32.033 64.464 32.033 65.7C32.033 66.936 31.733 68.052 31.133 69.048C30.533 70.032 29.711 70.806 28.667 71.37C27.623 71.934 26.447 72.216 25.139 72.216ZM25.139 69.732C25.883 69.732 26.555 69.564 27.155 69.228C27.755 68.88 28.223 68.4 28.559 67.788C28.907 67.176 29.081 66.48 29.081 65.7C29.081 64.92 28.907 64.224 28.559 63.612C28.223 63 27.755 62.526 27.155 62.19C26.555 61.842 25.883 61.668 25.139 61.668C24.395 61.668 23.723 61.842 23.123 62.19C22.523 62.526 22.049 63 21.701 63.612C21.365 64.224 21.197 64.92 21.197 65.7C21.197 66.48 21.365 67.176 21.701 67.788C22.049 68.4 22.523 68.88 23.123 69.228C23.723 69.564 24.395 69.732 25.139 69.732ZM45.9166 59.4L40.4626 72H37.5826L32.1466 59.4H35.2966L39.1306 68.4L43.0186 59.4H45.9166ZM49.6138 61.776H45.5818V59.4H56.5618V61.776H52.5298V72H49.6138V61.776ZM72.9124 72.216L71.4004 70.812C70.2004 71.748 68.7964 72.216 67.1884 72.216C66.2764 72.216 65.4544 72.072 64.7224 71.784C63.9904 71.484 63.4144 71.07 62.9944 70.542C62.5864 70.014 62.3824 69.42 62.3824 68.76C62.3824 67.98 62.5984 67.296 63.0304 66.708C63.4744 66.108 64.1824 65.538 65.1544 64.998C64.6984 64.53 64.3684 64.086 64.1644 63.666C63.9604 63.234 63.8584 62.79 63.8584 62.334C63.8584 61.722 64.0204 61.182 64.3444 60.714C64.6684 60.246 65.1244 59.886 65.7124 59.634C66.3124 59.37 67.0024 59.238 67.7824 59.238C68.8744 59.238 69.7504 59.502 70.4104 60.03C71.0704 60.546 71.4004 61.248 71.4004 62.136C71.4004 62.784 71.2024 63.36 70.8064 63.864C70.4224 64.368 69.7984 64.854 68.9344 65.322L71.2384 67.464C71.5144 66.888 71.7244 66.234 71.8684 65.502L74.1184 66.204C73.8784 67.32 73.4944 68.274 72.9664 69.066L74.4424 70.434L72.9124 72.216ZM67.7824 61.146C67.3624 61.146 67.0264 61.254 66.7744 61.47C66.5344 61.686 66.4144 61.962 66.4144 62.298C66.4144 62.55 66.4804 62.79 66.6124 63.018C66.7444 63.234 67.0024 63.528 67.3864 63.9C67.9984 63.576 68.4244 63.288 68.6644 63.036C68.9044 62.772 69.0244 62.49 69.0244 62.19C69.0244 61.878 68.9164 61.626 68.7004 61.434C68.4844 61.242 68.1784 61.146 67.7824 61.146ZM67.3864 70.02C68.2624 70.02 69.0484 69.774 69.7444 69.282L66.7024 66.438C66.1384 66.762 65.7364 67.08 65.4964 67.392C65.2564 67.704 65.1364 68.058 65.1364 68.454C65.1364 68.922 65.3404 69.3 65.7484 69.588C66.1564 69.876 66.7024 70.02 67.3864 70.02ZM92.9777 59.4V72H90.5837L84.3017 64.35V72H81.4217V59.4H83.8337L90.0977 67.05V59.4H92.9777ZM102.061 72.216C100.753 72.216 99.5708 71.934 98.5148 71.37C97.4708 70.806 96.6488 70.032 96.0488 69.048C95.4608 68.052 95.1668 66.936 95.1668 65.7C95.1668 64.464 95.4608 63.354 96.0488 62.37C96.6488 61.374 97.4708 60.594 98.5148 60.03C99.5708 59.466 100.753 59.184 102.061 59.184C103.369 59.184 104.545 59.466 105.589 60.03C106.633 60.594 107.455 61.374 108.055 62.37C108.655 63.354 108.955 64.464 108.955 65.7C108.955 66.936 108.655 68.052 108.055 69.048C107.455 70.032 106.633 70.806 105.589 71.37C104.545 71.934 103.369 72.216 102.061 72.216ZM102.061 69.732C102.805 69.732 103.477 69.564 104.077 69.228C104.677 68.88 105.145 68.4 105.481 67.788C105.829 67.176 106.003 66.48 106.003 65.7C106.003 64.92 105.829 64.224 105.481 63.612C105.145 63 104.677 62.526 104.077 62.19C103.477 61.842 102.805 61.668 102.061 61.668C101.317 61.668 100.645 61.842 100.045 62.19C99.4448 62.526 98.9708 63 98.6228 63.612C98.2868 64.224 98.1188 64.92 98.1188 65.7C98.1188 66.48 98.2868 67.176 98.6228 67.788C98.9708 68.4 99.4448 68.88 100.045 69.228C100.645 69.564 101.317 69.732 102.061 69.732ZM122.702 59.4V72H120.308L114.026 64.35V72H111.146V59.4H113.558L119.822 67.05V59.4H122.702ZM125.125 65.808H130.219V68.058H125.125V65.808ZM138.081 59.4C139.197 59.4 140.163 59.586 140.979 59.958C141.807 60.33 142.443 60.858 142.887 61.542C143.331 62.226 143.553 63.036 143.553 63.972C143.553 64.896 143.331 65.706 142.887 66.402C142.443 67.086 141.807 67.614 140.979 67.986C140.163 68.346 139.197 68.526 138.081 68.526H135.543V72H132.627V59.4H138.081ZM137.919 66.15C138.795 66.15 139.461 65.964 139.917 65.592C140.373 65.208 140.601 64.668 140.601 63.972C140.601 63.264 140.373 62.724 139.917 62.352C139.461 61.968 138.795 61.776 137.919 61.776H135.543V66.15H137.919ZM153.663 72L151.233 68.49H151.089H148.551V72H145.635V59.4H151.089C152.205 59.4 153.171 59.586 153.987 59.958C154.815 60.33 155.451 60.858 155.895 61.542C156.339 62.226 156.561 63.036 156.561 63.972C156.561 64.908 156.333 65.718 155.877 66.402C155.433 67.074 154.797 67.59 153.969 67.95L156.795 72H153.663ZM153.609 63.972C153.609 63.264 153.381 62.724 152.925 62.352C152.469 61.968 151.803 61.776 150.927 61.776H148.551V66.168H150.927C151.803 66.168 152.469 65.976 152.925 65.592C153.381 65.208 153.609 64.668 153.609 63.972ZM164.973 72.216C163.665 72.216 162.483 71.934 161.427 71.37C160.383 70.806 159.561 70.032 158.961 69.048C158.373 68.052 158.079 66.936 158.079 65.7C158.079 64.464 158.373 63.354 158.961 62.37C159.561 61.374 160.383 60.594 161.427 60.03C162.483 59.466 163.665 59.184 164.973 59.184C166.281 59.184 167.457 59.466 168.501 60.03C169.545 60.594 170.367 61.374 170.967 62.37C171.567 63.354 171.867 64.464 171.867 65.7C171.867 66.936 171.567 68.052 170.967 69.048C170.367 70.032 169.545 70.806 168.501 71.37C167.457 71.934 166.281 72.216 164.973 72.216ZM164.973 69.732C165.717 69.732 166.389 69.564 166.989 69.228C167.589 68.88 168.057 68.4 168.393 67.788C168.741 67.176 168.915 66.48 168.915 65.7C168.915 64.92 168.741 64.224 168.393 63.612C168.057 63 167.589 62.526 166.989 62.19C166.389 61.842 165.717 61.668 164.973 61.668C164.229 61.668 163.557 61.842 162.957 62.19C162.357 62.526 161.883 63 161.535 63.612C161.199 64.224 161.031 64.92 161.031 65.7C161.031 66.48 161.199 67.176 161.535 67.788C161.883 68.4 162.357 68.88 162.957 69.228C163.557 69.564 164.229 69.732 164.973 69.732ZM176.974 61.74V65.07H182.806V67.41H176.974V72H174.058V59.4H183.58V61.74H176.974ZM185.555 59.4H188.471V72H185.555V59.4ZM194.071 61.776H190.039V59.4H201.019V61.776H196.987V72H194.071V61.776Z" fill="black"/>
</svg>
