<svg width="205" height="81" viewBox="0 0 205 81" fill="none" xmlns="http://www.w3.org/2000/svg">
<path d="M179.282 48.75H30.5848C25.393 48.75 21 46.0322 21 42.635V6.11498C21 2.8027 25.2599 0 30.5848 0H179.415C184.607 0 189 2.71777 189 6.11498V42.635C188.867 46.0322 184.607 48.75 179.282 48.75Z" fill="#031928"/>
<path d="M96.811 39.4056H36.145C35.7219 39.4056 35.5527 38.896 35.8065 38.6412L66.1819 8.0663C66.3511 7.89644 66.6049 7.89644 66.7741 8.0663L97.1495 38.6412C97.4033 38.9809 97.2341 39.4056 96.811 39.4056Z" fill="#0069D1"/>
<path d="M83.6968 21.1454L90.5503 14.2661C90.7195 14.0962 90.9733 14.0962 91.1425 14.2661L115.511 38.726C115.764 38.9808 115.595 39.4904 115.172 39.4904H101.804" fill="#DD071C"/>
<path d="M140.363 39.4056H130.379C129.448 39.4056 129.025 38.9809 129.025 38.0467V10.2745C129.025 9.34023 129.448 8.91559 130.379 8.91559H140.363C141.801 8.91559 143.155 9.5101 144.255 10.6142C145.439 11.7183 145.947 13.0772 145.947 14.521V19.6168C145.947 20.8908 145.524 21.9948 144.763 23.014L143.832 24.203L144.847 25.3921C145.609 26.4112 146.032 27.5153 146.032 28.7893V33.8851C146.032 35.4138 145.439 36.6878 144.339 37.7919C143.155 38.896 141.886 39.4056 140.363 39.4056ZM134.609 21.3154H140.363V14.521H134.609V21.3154ZM134.609 33.8002H140.363V27.0057H134.609V33.8002Z" fill="white"/>
<path d="M172.335 39.4056H169.459C168.528 39.4056 168.105 38.9809 168.105 38.0467V22.2496L164.467 30.0632C164.213 30.5728 163.79 30.8276 163.197 30.8276C162.605 30.8276 162.182 30.5728 161.928 30.0632L158.29 22.2496V38.0467C158.29 38.9809 157.782 39.4056 156.936 39.4056H154.059C153.129 39.4056 152.706 38.9809 152.706 38.0467V10.2745C152.706 9.34023 153.129 8.91559 154.059 8.91559H157.444C158.036 8.91559 158.459 9.17038 158.713 9.76489L163.197 19.4469L167.766 9.76489C168.02 9.25531 168.443 8.91559 169.036 8.91559H172.42C173.351 8.91559 173.774 9.34023 173.774 10.2745V38.0467C173.689 38.9809 173.266 39.4056 172.335 39.4056Z" fill="white"/>
<path d="M48.9797 60.9V73.5H46.0637V68.334H40.3397V73.5H37.4237V60.9H40.3397V65.868H46.0637V60.9H48.9797ZM61.7168 71.16V73.5H51.9608V60.9H61.4828V63.24H54.8588V65.976H60.7088V68.244H54.8588V71.16H61.7168ZM72.335 70.8H66.485L65.369 73.5H62.381L67.997 60.9H70.877L76.511 73.5H73.451L72.335 70.8ZM71.417 68.586L69.419 63.762L67.421 68.586H71.417ZM77.8182 60.9H80.7342V71.124H87.0522V73.5H77.8182V60.9ZM90.1138 63.276H86.0818V60.9H97.0618V63.276H93.0298V73.5H90.1138V63.276ZM110.187 60.9V73.5H107.271V68.334H101.547V73.5H98.6307V60.9H101.547V65.868H107.271V60.9H110.187ZM124.295 73.716C123.011 73.716 121.847 73.44 120.803 72.888C119.771 72.324 118.955 71.55 118.355 70.566C117.767 69.57 117.473 68.448 117.473 67.2C117.473 65.952 117.767 64.836 118.355 63.852C118.955 62.856 119.771 62.082 120.803 61.53C121.847 60.966 123.017 60.684 124.313 60.684C125.405 60.684 126.389 60.876 127.265 61.26C128.153 61.644 128.897 62.196 129.497 62.916L127.625 64.644C126.773 63.66 125.717 63.168 124.457 63.168C123.677 63.168 122.981 63.342 122.369 63.69C121.757 64.026 121.277 64.5 120.929 65.112C120.593 65.724 120.425 66.42 120.425 67.2C120.425 67.98 120.593 68.676 120.929 69.288C121.277 69.9 121.757 70.38 122.369 70.728C122.981 71.064 123.677 71.232 124.457 71.232C125.717 71.232 126.773 70.734 127.625 69.738L129.497 71.466C128.897 72.198 128.153 72.756 127.265 73.14C126.377 73.524 125.387 73.716 124.295 73.716ZM139.519 70.8H133.669L132.553 73.5H129.565L135.181 60.9H138.061L143.695 73.5H140.635L139.519 70.8ZM138.601 68.586L136.603 63.762L134.605 68.586H138.601ZM153.03 73.5L150.6 69.99H150.456H147.918V73.5H145.002V60.9H150.456C151.572 60.9 152.538 61.086 153.354 61.458C154.182 61.83 154.818 62.358 155.262 63.042C155.706 63.726 155.928 64.536 155.928 65.472C155.928 66.408 155.7 67.218 155.244 67.902C154.8 68.574 154.164 69.09 153.336 69.45L156.162 73.5H153.03ZM152.976 65.472C152.976 64.764 152.748 64.224 152.292 63.852C151.836 63.468 151.17 63.276 150.294 63.276H147.918V67.668H150.294C151.17 67.668 151.836 67.476 152.292 67.092C152.748 66.708 152.976 66.168 152.976 65.472ZM167.994 71.16V73.5H158.238V60.9H167.76V63.24H161.136V65.976H166.986V68.244H161.136V71.16H167.994Z" fill="black"/>
</svg>
