<svg width="344" height="100" viewBox="0 0 344 100" fill="none" xmlns="http://www.w3.org/2000/svg">
<path d="M271.043 65H72.7797C65.8574 65 60 61.3763 60 56.8467V8.15331C60 3.73693 65.6799 0 72.7797 0H271.22C278.143 0 284 3.62369 284 8.15331V56.8467C283.822 61.3763 278.143 65 271.043 65Z" fill="#031928"/>
<path d="M161.081 52.5408H80.1933C79.6292 52.5408 79.4036 51.8613 79.742 51.5216L120.242 10.7551C120.468 10.5286 120.807 10.5286 121.032 10.7551L161.533 51.5216C161.871 51.9746 161.645 52.5408 161.081 52.5408Z" fill="#0069D1"/>
<path d="M143.596 28.1939L152.734 19.0214C152.959 18.7949 153.298 18.7949 153.523 19.0214L186.014 51.6346C186.352 51.9744 186.127 52.6538 185.563 52.6538H167.738" fill="#DD071C"/>
<path d="M219.15 52.5408H205.838C204.597 52.5408 204.033 51.9746 204.033 50.7289V13.6993C204.033 12.4536 204.597 11.8875 205.838 11.8875H219.15C221.068 11.8875 222.873 12.6801 224.34 14.1523C225.919 15.6244 226.596 17.4362 226.596 19.3613V26.1557C226.596 27.8543 226.032 29.3265 225.017 30.6853L223.776 32.2707L225.13 33.8561C226.145 35.215 226.709 36.6871 226.709 38.3857V45.1801C226.709 47.2185 225.919 48.917 224.453 50.3892C222.873 51.8613 221.181 52.5408 219.15 52.5408ZM211.479 28.4205H219.15V19.3613H211.479V28.4205ZM211.479 45.0669H219.15V36.0077H211.479V45.0669Z" fill="white"/>
<path d="M261.78 52.5408H257.945C256.704 52.5408 256.14 51.9746 256.14 50.7289V29.6662L251.289 40.0843C250.95 40.7638 250.386 41.1035 249.596 41.1035C248.807 41.1035 248.243 40.7638 247.904 40.0843L243.053 29.6662V50.7289C243.053 51.9746 242.376 52.5408 241.248 52.5408H237.412C236.172 52.5408 235.607 51.9746 235.607 50.7289V13.6993C235.607 12.4536 236.172 11.8875 237.412 11.8875H241.925C242.715 11.8875 243.279 12.2272 243.617 13.0199L249.596 25.9293L255.688 13.0199C256.027 12.3404 256.591 11.8875 257.381 11.8875H261.893C263.134 11.8875 263.698 12.4536 263.698 13.6993V50.7289C263.585 51.9746 263.021 52.5408 261.78 52.5408Z" fill="white"/>
<path d="M23.1014 74.2H26.9894V87.832H35.4134V91H23.1014V74.2ZM37.5858 74.2H41.4738V91H37.5858V74.2ZM49.3488 77.32V81.76H57.1248V84.88H49.3488V91H45.4608V74.2H58.1568V77.32H49.3488ZM73.7969 87.88V91H60.7889V74.2H73.4849V77.32H64.6529V80.968H72.4529V83.992H64.6529V87.88H73.7969ZM89.2073 91.288C87.8793 91.288 86.5913 91.112 85.3433 90.76C84.1113 90.392 83.1193 89.92 82.3673 89.344L83.6873 86.416C84.4073 86.944 85.2633 87.368 86.2553 87.688C87.2473 88.008 88.2393 88.168 89.2313 88.168C90.3353 88.168 91.1513 88.008 91.6793 87.688C92.2073 87.352 92.4713 86.912 92.4713 86.368C92.4713 85.968 92.3113 85.64 91.9913 85.384C91.6873 85.112 91.2873 84.896 90.7913 84.736C90.3113 84.576 89.6553 84.4 88.8233 84.208C87.5433 83.904 86.4953 83.6 85.6793 83.296C84.8633 82.992 84.1593 82.504 83.5673 81.832C82.9913 81.16 82.7033 80.264 82.7033 79.144C82.7033 78.168 82.9673 77.288 83.4953 76.504C84.0233 75.704 84.8153 75.072 85.8713 74.608C86.9433 74.144 88.2473 73.912 89.7833 73.912C90.8553 73.912 91.9033 74.04 92.9273 74.296C93.9513 74.552 94.8473 74.92 95.6153 75.4L94.4153 78.352C92.8633 77.472 91.3113 77.032 89.7593 77.032C88.6713 77.032 87.8633 77.208 87.3353 77.56C86.8233 77.912 86.5673 78.376 86.5673 78.952C86.5673 79.528 86.8633 79.96 87.4553 80.248C88.0633 80.52 88.9833 80.792 90.2153 81.064C91.4953 81.368 92.5433 81.672 93.3593 81.976C94.1753 82.28 94.8713 82.76 95.4473 83.416C96.0393 84.072 96.3353 84.96 96.3353 86.08C96.3353 87.04 96.0633 87.92 95.5193 88.72C94.9913 89.504 94.1913 90.128 93.1193 90.592C92.0473 91.056 90.7433 91.288 89.2073 91.288ZM112 87.88V91H98.992V74.2H111.688V77.32H102.856V80.968H110.656V83.992H102.856V87.88H112ZM125.798 91L122.558 86.32H122.366H118.982V91H115.094V74.2H122.366C123.854 74.2 125.142 74.448 126.23 74.944C127.334 75.44 128.182 76.144 128.774 77.056C129.366 77.968 129.662 79.048 129.662 80.296C129.662 81.544 129.358 82.624 128.75 83.536C128.158 84.432 127.31 85.12 126.206 85.6L129.974 91H125.798ZM125.726 80.296C125.726 79.352 125.422 78.632 124.814 78.136C124.206 77.624 123.318 77.368 122.15 77.368H118.982V83.224H122.15C123.318 83.224 124.206 82.968 124.814 82.456C125.422 81.944 125.726 81.224 125.726 80.296ZM148.894 74.2L141.622 91H137.782L130.534 74.2H134.734L139.846 86.2L145.03 74.2H148.894ZM150.297 74.2H154.185V91H150.297V74.2ZM166.212 91.288C164.5 91.288 162.948 90.92 161.556 90.184C160.18 89.432 159.092 88.4 158.292 87.088C157.508 85.76 157.116 84.264 157.116 82.6C157.116 80.936 157.508 79.448 158.292 78.136C159.092 76.808 160.18 75.776 161.556 75.04C162.948 74.288 164.508 73.912 166.236 73.912C167.692 73.912 169.004 74.168 170.172 74.68C171.356 75.192 172.348 75.928 173.148 76.888L170.652 79.192C169.516 77.88 168.108 77.224 166.428 77.224C165.388 77.224 164.46 77.456 163.644 77.92C162.828 78.368 162.188 79 161.724 79.816C161.276 80.632 161.052 81.56 161.052 82.6C161.052 83.64 161.276 84.568 161.724 85.384C162.188 86.2 162.828 86.84 163.644 87.304C164.46 87.752 165.388 87.976 166.428 87.976C168.108 87.976 169.516 87.312 170.652 85.984L173.148 88.288C172.348 89.264 171.356 90.008 170.172 90.52C168.988 91.032 167.668 91.288 166.212 91.288ZM188.781 87.88V91H175.773V74.2H188.469V77.32H179.637V80.968H187.437V83.992H179.637V87.88H188.781ZM211.584 91.288L209.568 89.416C207.968 90.664 206.096 91.288 203.952 91.288C202.736 91.288 201.64 91.096 200.664 90.712C199.688 90.312 198.92 89.76 198.36 89.056C197.816 88.352 197.544 87.56 197.544 86.68C197.544 85.64 197.832 84.728 198.408 83.944C199 83.144 199.944 82.384 201.24 81.664C200.632 81.04 200.192 80.448 199.92 79.888C199.648 79.312 199.512 78.72 199.512 78.112C199.512 77.296 199.728 76.576 200.16 75.952C200.592 75.328 201.2 74.848 201.984 74.512C202.784 74.16 203.704 73.984 204.744 73.984C206.2 73.984 207.368 74.336 208.248 75.04C209.128 75.728 209.568 76.664 209.568 77.848C209.568 78.712 209.304 79.48 208.776 80.152C208.264 80.824 207.432 81.472 206.28 82.096L209.352 84.952C209.72 84.184 210 83.312 210.192 82.336L213.192 83.272C212.872 84.76 212.36 86.032 211.656 87.088L213.624 88.912L211.584 91.288ZM204.744 76.528C204.184 76.528 203.736 76.672 203.4 76.96C203.08 77.248 202.92 77.616 202.92 78.064C202.92 78.4 203.008 78.72 203.184 79.024C203.36 79.312 203.704 79.704 204.216 80.2C205.032 79.768 205.6 79.384 205.92 79.048C206.24 78.696 206.4 78.32 206.4 77.92C206.4 77.504 206.256 77.168 205.968 76.912C205.68 76.656 205.272 76.528 204.744 76.528ZM204.216 88.36C205.384 88.36 206.432 88.032 207.36 87.376L203.304 83.584C202.552 84.016 202.016 84.44 201.696 84.856C201.376 85.272 201.216 85.744 201.216 86.272C201.216 86.896 201.488 87.4 202.032 87.784C202.576 88.168 203.304 88.36 204.216 88.36ZM230.202 74.2C231.69 74.2 232.978 74.448 234.066 74.944C235.17 75.44 236.018 76.144 236.61 77.056C237.202 77.968 237.498 79.048 237.498 80.296C237.498 81.528 237.202 82.608 236.61 83.536C236.018 84.448 235.17 85.152 234.066 85.648C232.978 86.128 231.69 86.368 230.202 86.368H226.818V91H222.93V74.2H230.202ZM229.986 83.2C231.154 83.2 232.042 82.952 232.65 82.456C233.258 81.944 233.562 81.224 233.562 80.296C233.562 79.352 233.258 78.632 232.65 78.136C232.042 77.624 231.154 77.368 229.986 77.368H226.818V83.2H229.986ZM255.681 74.2V91H251.793V84.112H244.161V91H240.273V74.2H244.161V80.824H251.793V74.2H255.681ZM270.72 87.4H262.92L261.432 91H257.448L264.936 74.2H268.776L276.288 91H272.208L270.72 87.4ZM269.496 84.448L266.832 78.016L264.168 84.448H269.496ZM288.735 91L285.495 86.32H285.303H281.919V91H278.031V74.2H285.303C286.791 74.2 288.079 74.448 289.167 74.944C290.271 75.44 291.119 76.144 291.711 77.056C292.303 77.968 292.599 79.048 292.599 80.296C292.599 81.544 292.295 82.624 291.687 83.536C291.095 84.432 290.247 85.12 289.143 85.6L292.911 91H288.735ZM288.663 80.296C288.663 79.352 288.359 78.632 287.751 78.136C287.143 77.624 286.255 77.368 285.087 77.368H281.919V83.224H285.087C286.255 83.224 287.143 82.968 287.751 82.456C288.359 81.944 288.663 81.224 288.663 80.296ZM310.968 91L310.944 80.92L306 89.224H304.248L299.328 81.136V91H295.68V74.2H298.896L305.184 84.64L311.376 74.2H314.568L314.616 91H310.968ZM319.753 91.192C319.097 91.192 318.545 90.968 318.097 90.52C317.649 90.072 317.425 89.512 317.425 88.84C317.425 88.152 317.649 87.6 318.097 87.184C318.545 86.752 319.097 86.536 319.753 86.536C320.409 86.536 320.961 86.752 321.409 87.184C321.857 87.6 322.081 88.152 322.081 88.84C322.081 89.512 321.857 90.072 321.409 90.52C320.961 90.968 320.409 91.192 319.753 91.192Z" fill="black"/>
</svg>
