<svg width="179" height="79" viewBox="0 0 179 79" fill="none" xmlns="http://www.w3.org/2000/svg">
<path d="M163.532 48.75H14.8348C9.64303 48.75 5.25 46.0322 5.25 42.635V6.11498C5.25 2.8027 9.50991 0 14.8348 0H163.665C168.857 0 173.25 2.71777 173.25 6.11498V42.635C173.117 46.0322 168.857 48.75 163.532 48.75Z" fill="#031928"/>
<path d="M81.0618 39.4056H20.3957C19.9726 39.4056 19.8034 38.896 20.0573 38.6412L50.4326 8.0663C50.6018 7.89644 50.8556 7.89644 51.0249 8.0663L81.4002 38.6412C81.654 38.9809 81.4848 39.4056 81.0618 39.4056Z" fill="#0069D1"/>
<path d="M67.9468 21.1454L74.8003 14.2661C74.9695 14.0962 75.2233 14.0962 75.3925 14.2661L99.7605 38.726C100.014 38.9808 99.8451 39.4904 99.4221 39.4904H86.0535" fill="#DD071C"/>
<path d="M124.613 39.4056H114.629C113.698 39.4056 113.275 38.9809 113.275 38.0467V10.2745C113.275 9.34023 113.698 8.91559 114.629 8.91559H124.613C126.051 8.91559 127.405 9.5101 128.505 10.6142C129.689 11.7183 130.197 13.0772 130.197 14.521V19.6168C130.197 20.8908 129.774 21.9948 129.013 23.014L128.082 24.203L129.097 25.3921C129.859 26.4112 130.282 27.5153 130.282 28.7893V33.8851C130.282 35.4138 129.689 36.6878 128.589 37.7919C127.405 38.896 126.136 39.4056 124.613 39.4056ZM118.859 21.3154H124.613V14.521H118.859V21.3154ZM118.859 33.8002H124.613V27.0057H118.859V33.8002Z" fill="white"/>
<path d="M156.585 39.4056H153.709C152.778 39.4056 152.355 38.9809 152.355 38.0467V22.2496L148.717 30.0632C148.463 30.5728 148.04 30.8276 147.447 30.8276C146.855 30.8276 146.432 30.5728 146.178 30.0632L142.54 22.2496V38.0467C142.54 38.9809 142.032 39.4056 141.186 39.4056H138.309C137.379 39.4056 136.956 38.9809 136.956 38.0467V10.2745C136.956 9.34023 137.379 8.91559 138.309 8.91559H141.694C142.286 8.91559 142.709 9.17038 142.963 9.76489L147.447 19.4469L152.016 9.76489C152.27 9.25531 152.693 8.91559 153.286 8.91559H156.67C157.601 8.91559 158.024 9.34023 158.024 10.2745V38.0467C157.939 38.9809 157.516 39.4056 156.585 39.4056Z" fill="white"/>
<path d="M17.2022 72L17.1842 64.44L13.4762 70.668H12.1622L8.47219 64.602V72H5.73619V59.4H8.14819L12.8642 67.23L17.5082 59.4H19.9022L19.9382 72H17.2022ZM31.2256 69.3H25.3756L24.2596 72H21.2716L26.8876 59.4H29.7676L35.4016 72H32.3416L31.2256 69.3ZM30.3076 67.086L28.3096 62.262L26.3116 67.086H30.3076ZM48.2648 59.4V72H45.8708L39.5888 64.35V72H36.7088V59.4H39.1208L45.3848 67.05V59.4H48.2648ZM56.844 72.216C55.044 72.216 53.64 71.718 52.632 70.722C51.636 69.726 51.138 68.304 51.138 66.456V59.4H54.054V66.348C54.054 68.604 54.99 69.732 56.862 69.732C57.774 69.732 58.47 69.462 58.95 68.922C59.43 68.37 59.67 67.512 59.67 66.348V59.4H62.55V66.456C62.55 68.304 62.046 69.726 61.038 70.722C60.042 71.718 58.644 72.216 56.844 72.216ZM68.3475 61.74V65.07H74.1795V67.41H68.3475V72H65.4315V59.4H74.9535V61.74H68.3475ZM84.6983 69.3H78.8483L77.7323 72H74.7442L80.3603 59.4H83.2403L88.8743 72H85.8143L84.6983 69.3ZM83.7803 67.086L81.7823 62.262L79.7843 67.086H83.7803ZM96.0357 72.216C94.7517 72.216 93.5877 71.94 92.5437 71.388C91.5117 70.824 90.6957 70.05 90.0957 69.066C89.5077 68.07 89.2137 66.948 89.2137 65.7C89.2137 64.452 89.5077 63.336 90.0957 62.352C90.6957 61.356 91.5117 60.582 92.5437 60.03C93.5877 59.466 94.7577 59.184 96.0537 59.184C97.1457 59.184 98.1297 59.376 99.0057 59.76C99.8937 60.144 100.638 60.696 101.238 61.416L99.3657 63.144C98.5137 62.16 97.4577 61.668 96.1977 61.668C95.4177 61.668 94.7217 61.842 94.1097 62.19C93.4977 62.526 93.0177 63 92.6697 63.612C92.3337 64.224 92.1657 64.92 92.1657 65.7C92.1657 66.48 92.3337 67.176 92.6697 67.788C93.0177 68.4 93.4977 68.88 94.1097 69.228C94.7217 69.564 95.4177 69.732 96.1977 69.732C97.4577 69.732 98.5137 69.234 99.3657 68.238L101.238 69.966C100.638 70.698 99.8937 71.256 99.0057 71.64C98.1177 72.024 97.1277 72.216 96.0357 72.216ZM105.694 61.776H101.662V59.4H112.642V61.776H108.61V72H105.694V61.776ZM119.598 72.216C117.798 72.216 116.394 71.718 115.386 70.722C114.39 69.726 113.892 68.304 113.892 66.456V59.4H116.808V66.348C116.808 68.604 117.744 69.732 119.616 69.732C120.528 69.732 121.224 69.462 121.704 68.922C122.184 68.37 122.424 67.512 122.424 66.348V59.4H125.304V66.456C125.304 68.304 124.8 69.726 123.792 70.722C122.796 71.718 121.398 72.216 119.598 72.216ZM136.213 72L133.783 68.49H133.639H131.101V72H128.185V59.4H133.639C134.755 59.4 135.721 59.586 136.537 59.958C137.365 60.33 138.001 60.858 138.445 61.542C138.889 62.226 139.111 63.036 139.111 63.972C139.111 64.908 138.883 65.718 138.427 66.402C137.983 67.074 137.347 67.59 136.519 67.95L139.345 72H136.213ZM136.159 63.972C136.159 63.264 135.931 62.724 135.475 62.352C135.019 61.968 134.353 61.776 133.477 61.776H131.101V66.168H133.477C134.353 66.168 135.019 65.976 135.475 65.592C135.931 65.208 136.159 64.668 136.159 63.972ZM141.422 59.4H144.338V72H141.422V59.4ZM158.884 59.4V72H156.49L150.208 64.35V72H147.328V59.4H149.74L156.004 67.05V59.4H158.884ZM170.379 65.502H173.043V70.614C172.359 71.13 171.567 71.526 170.667 71.802C169.767 72.078 168.861 72.216 167.949 72.216C166.641 72.216 165.465 71.94 164.421 71.388C163.377 70.824 162.555 70.05 161.955 69.066C161.367 68.07 161.073 66.948 161.073 65.7C161.073 64.452 161.367 63.336 161.955 62.352C162.555 61.356 163.383 60.582 164.439 60.03C165.495 59.466 166.683 59.184 168.003 59.184C169.107 59.184 170.109 59.37 171.009 59.742C171.909 60.114 172.665 60.654 173.277 61.362L171.405 63.09C170.505 62.142 169.419 61.668 168.147 61.668C167.343 61.668 166.629 61.836 166.005 62.172C165.381 62.508 164.895 62.982 164.547 63.594C164.199 64.206 164.025 64.908 164.025 65.7C164.025 66.48 164.199 67.176 164.547 67.788C164.895 68.4 165.375 68.88 165.987 69.228C166.611 69.564 167.319 69.732 168.111 69.732C168.951 69.732 169.707 69.552 170.379 69.192V65.502Z" fill="black"/>
</svg>
