<svg width="54" height="36" viewBox="0 0 54 36" fill="none" xmlns="http://www.w3.org/2000/svg">
<path d="M53.4247 0.000976562H0V35.7984H53.4247V0.000976562Z" fill="#F0F0F0"/>
<path d="M11.8979 17.8985L0 5.93457V29.8644L11.8979 17.8985Z" fill="black"/>
<path d="M16.8196 17.8982L0 0.981445V5.93438L11.8979 17.8983L0 29.8643V34.808L16.8196 17.8982Z" fill="#FFDA44"/>
<path d="M53.1986 21.4016C53.2047 21.3555 53.2825 21.3095 53.4247 21.2634V17.8997V14.3977H53.1986H23.2274L8.90377 0.000976562H0V0.982943L16.8196 17.8997L0 34.8095V35.7984H8.90377L23.2274 21.4016H53.1986Z" fill="#6DA544"/>
<path d="M52.5044 24.9023H24.6705L13.8311 35.797H53.4246V24.9023H52.5044Z" fill="#0052B4"/>
<path d="M52.5044 10.8947H53.4246V0H13.8311L24.6705 10.8947H52.5044Z" fill="#D80027"/>
</svg>
