<svg width="53" height="36" viewBox="0 0 53 36" fill="none" xmlns="http://www.w3.org/2000/svg">
<path d="M52.8935 0.000976562H0.15625V35.532H52.8935V0.000976562Z" fill="#F0F0F0"/>
<path d="M11.901 17.766L0.15625 5.89111V29.6429L11.901 17.766Z" fill="black"/>
<path d="M16.7594 17.7655L0.15625 0.974609V5.89069L11.901 17.7656L0.15625 29.6425V34.5494L16.7594 17.7655Z" fill="#FFDA44"/>
<path d="M52.6703 21.2424C52.6763 21.1966 52.7531 21.151 52.8935 21.1052V17.7665V14.2906H52.6703H23.0848L8.94545 0.000976562H0.15625V0.975636L16.7594 17.7665L0.15625 34.5504V35.532H8.94545L23.0848 21.2424H52.6703V21.2424Z" fill="#6DA544"/>
<path d="M51.9843 24.7178H24.5086L13.8086 35.5314H52.8927V24.7178H51.9843Z" fill="#0052B4"/>
<path d="M51.9843 10.8136H52.8927V0H13.8086L24.5086 10.8136H51.9843Z" fill="#D80027"/>
<rect y="0.0405273" width="53" height="35.9594" fill="#505050" fill-opacity="0.88"/>
</svg>
