<svg width="168" height="81" viewBox="0 0 168 81" fill="none" xmlns="http://www.w3.org/2000/svg">
<path d="M158.282 48.75H9.58479C4.39303 48.75 0 46.0322 0 42.635V6.11498C0 2.8027 4.25991 0 9.58479 0H158.415C163.607 0 168 2.71777 168 6.11498V42.635C167.867 46.0322 163.607 48.75 158.282 48.75Z" fill="#031928"/>
<path d="M75.811 39.4056H15.145C14.7219 39.4056 14.5527 38.896 14.8065 38.6412L45.1819 8.0663C45.3511 7.89644 45.6049 7.89644 45.7741 8.0663L76.1495 38.6412C76.4033 38.9809 76.2341 39.4056 75.811 39.4056Z" fill="#0069D1"/>
<path d="M62.6968 21.1454L69.5503 14.2661C69.7195 14.0962 69.9733 14.0962 70.1425 14.2661L94.5105 38.726C94.7643 38.9808 94.5951 39.4904 94.1721 39.4904H80.8035" fill="#DD071C"/>
<path d="M119.363 39.4056H109.379C108.448 39.4056 108.025 38.9809 108.025 38.0467V10.2745C108.025 9.34023 108.448 8.91559 109.379 8.91559H119.363C120.801 8.91559 122.155 9.5101 123.255 10.6142C124.439 11.7183 124.947 13.0772 124.947 14.521V19.6168C124.947 20.8908 124.524 21.9948 123.763 23.014L122.832 24.203L123.847 25.3921C124.609 26.4112 125.032 27.5153 125.032 28.7893V33.8851C125.032 35.4138 124.439 36.6878 123.339 37.7919C122.155 38.896 120.886 39.4056 119.363 39.4056ZM113.609 21.3154H119.363V14.521H113.609V21.3154ZM113.609 33.8002H119.363V27.0057H113.609V33.8002Z" fill="white"/>
<path d="M151.335 39.4056H148.459C147.528 39.4056 147.105 38.9809 147.105 38.0467V22.2496L143.467 30.0632C143.213 30.5728 142.79 30.8276 142.197 30.8276C141.605 30.8276 141.182 30.5728 140.928 30.0632L137.29 22.2496V38.0467C137.29 38.9809 136.782 39.4056 135.936 39.4056H133.059C132.129 39.4056 131.706 38.9809 131.706 38.0467V10.2745C131.706 9.34023 132.129 8.91559 133.059 8.91559H136.444C137.036 8.91559 137.459 9.17038 137.713 9.76489L142.197 19.4469L146.766 9.76489C147.02 9.25531 147.443 8.91559 148.036 8.91559H151.42C152.351 8.91559 152.774 9.34023 152.774 10.2745V38.0467C152.689 38.9809 152.266 39.4056 151.335 39.4056Z" fill="white"/>
<path d="M27.4683 63.276H23.4363V60.9H34.4163V63.276H30.3843V73.5H27.4683V63.276ZM45.7412 71.16V73.5H35.9852V60.9H45.5072V63.24H38.8832V65.976H44.7332V68.244H38.8832V71.16H45.7412ZM54.0562 73.716C52.7722 73.716 51.6082 73.44 50.5642 72.888C49.5322 72.324 48.7162 71.55 48.1162 70.566C47.5282 69.57 47.2342 68.448 47.2342 67.2C47.2342 65.952 47.5282 64.836 48.1162 63.852C48.7162 62.856 49.5322 62.082 50.5642 61.53C51.6082 60.966 52.7782 60.684 54.0742 60.684C55.1662 60.684 56.1502 60.876 57.0262 61.26C57.9142 61.644 58.6582 62.196 59.2582 62.916L57.3862 64.644C56.5342 63.66 55.4782 63.168 54.2182 63.168C53.4382 63.168 52.7422 63.342 52.1302 63.69C51.5182 64.026 51.0382 64.5 50.6902 65.112C50.3542 65.724 50.1862 66.42 50.1862 67.2C50.1862 67.98 50.3542 68.676 50.6902 69.288C51.0382 69.9 51.5182 70.38 52.1302 70.728C52.7422 71.064 53.4382 71.232 54.2182 71.232C55.4782 71.232 56.5342 70.734 57.3862 69.738L59.2582 71.466C58.6582 72.198 57.9142 72.756 57.0262 73.14C56.1382 73.524 55.1482 73.716 54.0562 73.716ZM72.7834 60.9V73.5H69.8674V68.334H64.1434V73.5H61.2274V60.9H64.1434V65.868H69.8674V60.9H72.7834ZM87.3205 60.9V73.5H84.9265L78.6445 65.85V73.5H75.7645V60.9H78.1765L84.4405 68.55V60.9H87.3205ZM96.4036 73.716C95.0956 73.716 93.9136 73.434 92.8576 72.87C91.8136 72.306 90.9916 71.532 90.3916 70.548C89.8036 69.552 89.5096 68.436 89.5096 67.2C89.5096 65.964 89.8036 64.854 90.3916 63.87C90.9916 62.874 91.8136 62.094 92.8576 61.53C93.9136 60.966 95.0956 60.684 96.4036 60.684C97.7116 60.684 98.8876 60.966 99.9316 61.53C100.976 62.094 101.798 62.874 102.398 63.87C102.998 64.854 103.298 65.964 103.298 67.2C103.298 68.436 102.998 69.552 102.398 70.548C101.798 71.532 100.976 72.306 99.9316 72.87C98.8876 73.434 97.7116 73.716 96.4036 73.716ZM96.4036 71.232C97.1476 71.232 97.8196 71.064 98.4196 70.728C99.0196 70.38 99.4876 69.9 99.8236 69.288C100.172 68.676 100.346 67.98 100.346 67.2C100.346 66.42 100.172 65.724 99.8236 65.112C99.4876 64.5 99.0196 64.026 98.4196 63.69C97.8196 63.342 97.1476 63.168 96.4036 63.168C95.6596 63.168 94.9876 63.342 94.3876 63.69C93.7876 64.026 93.3136 64.5 92.9656 65.112C92.6296 65.724 92.4616 66.42 92.4616 67.2C92.4616 67.98 92.6296 68.676 92.9656 69.288C93.3136 69.9 93.7876 70.38 94.3876 70.728C94.9876 71.064 95.6596 71.232 96.4036 71.232ZM105.489 60.9H108.405V71.124H114.723V73.5H105.489V60.9ZM122.243 73.716C120.935 73.716 119.753 73.434 118.697 72.87C117.653 72.306 116.831 71.532 116.231 70.548C115.643 69.552 115.349 68.436 115.349 67.2C115.349 65.964 115.643 64.854 116.231 63.87C116.831 62.874 117.653 62.094 118.697 61.53C119.753 60.966 120.935 60.684 122.243 60.684C123.551 60.684 124.727 60.966 125.771 61.53C126.815 62.094 127.637 62.874 128.237 63.87C128.837 64.854 129.137 65.964 129.137 67.2C129.137 68.436 128.837 69.552 128.237 70.548C127.637 71.532 126.815 72.306 125.771 72.87C124.727 73.434 123.551 73.716 122.243 73.716ZM122.243 71.232C122.987 71.232 123.659 71.064 124.259 70.728C124.859 70.38 125.327 69.9 125.663 69.288C126.011 68.676 126.185 67.98 126.185 67.2C126.185 66.42 126.011 65.724 125.663 65.112C125.327 64.5 124.859 64.026 124.259 63.69C123.659 63.342 122.987 63.168 122.243 63.168C121.499 63.168 120.827 63.342 120.227 63.69C119.627 64.026 119.153 64.5 118.805 65.112C118.469 65.724 118.301 66.42 118.301 67.2C118.301 67.98 118.469 68.676 118.805 69.288C119.153 69.9 119.627 70.38 120.227 70.728C120.827 71.064 121.499 71.232 122.243 71.232ZM139.843 67.002H142.507V72.114C141.823 72.63 141.031 73.026 140.131 73.302C139.231 73.578 138.325 73.716 137.413 73.716C136.105 73.716 134.929 73.44 133.885 72.888C132.841 72.324 132.019 71.55 131.419 70.566C130.831 69.57 130.537 68.448 130.537 67.2C130.537 65.952 130.831 64.836 131.419 63.852C132.019 62.856 132.847 62.082 133.903 61.53C134.959 60.966 136.147 60.684 137.467 60.684C138.571 60.684 139.573 60.87 140.473 61.242C141.373 61.614 142.129 62.154 142.741 62.862L140.869 64.59C139.969 63.642 138.883 63.168 137.611 63.168C136.807 63.168 136.093 63.336 135.469 63.672C134.845 64.008 134.359 64.482 134.011 65.094C133.663 65.706 133.489 66.408 133.489 67.2C133.489 67.98 133.663 68.676 134.011 69.288C134.359 69.9 134.839 70.38 135.451 70.728C136.075 71.064 136.783 71.232 137.575 71.232C138.415 71.232 139.171 71.052 139.843 70.692V67.002ZM151.264 69.036V73.5H148.348V69L143.47 60.9H146.566L149.932 66.498L153.298 60.9H156.16L151.264 69.036Z" fill="black"/>
</svg>
