<svg width="258" height="81" viewBox="0 0 258 81" fill="none" xmlns="http://www.w3.org/2000/svg">
<path d="M203.282 48.75H54.5848C49.393 48.75 45 46.0322 45 42.635V6.11498C45 2.8027 49.2599 0 54.5848 0H203.415C208.607 0 213 2.71777 213 6.11498V42.635C212.867 46.0322 208.607 48.75 203.282 48.75Z" fill="#031928"/>
<path d="M120.811 39.4056H60.1453C59.7223 39.4056 59.5531 38.896 59.8069 38.6412L90.1822 8.0663C90.3514 7.89644 90.6053 7.89644 90.7745 8.0663L121.15 38.6412C121.404 38.9809 121.234 39.4056 120.811 39.4056Z" fill="#0069D1"/>
<path d="M107.697 21.1454L114.55 14.2661C114.719 14.0962 114.973 14.0962 115.143 14.2661L139.511 38.726C139.764 38.9808 139.595 39.4904 139.172 39.4904H125.804" fill="#DD071C"/>
<path d="M164.362 39.4056H154.378C153.448 39.4056 153.025 38.9809 153.025 38.0467V10.2745C153.025 9.34023 153.448 8.91559 154.378 8.91559H164.362C165.801 8.91559 167.155 9.5101 168.255 10.6142C169.439 11.7183 169.947 13.0772 169.947 14.521V19.6168C169.947 20.8908 169.524 21.9948 168.762 23.014L167.831 24.203L168.847 25.3921C169.608 26.4112 170.031 27.5153 170.031 28.7893V33.8851C170.031 35.4138 169.439 36.6878 168.339 37.7919C167.155 38.896 165.885 39.4056 164.362 39.4056ZM158.609 21.3154H164.362V14.521H158.609V21.3154ZM158.609 33.8002H164.362V27.0057H158.609V33.8002Z" fill="white"/>
<path d="M196.335 39.4056H193.458C192.527 39.4056 192.104 38.9809 192.104 38.0467V22.2496L188.466 30.0632C188.212 30.5728 187.789 30.8276 187.197 30.8276C186.604 30.8276 186.181 30.5728 185.927 30.0632L182.289 22.2496V38.0467C182.289 38.9809 181.781 39.4056 180.935 39.4056H178.059C177.128 39.4056 176.705 38.9809 176.705 38.0467V10.2745C176.705 9.34023 177.128 8.91559 178.059 8.91559H181.443C182.035 8.91559 182.458 9.17038 182.712 9.76489L187.197 19.4469L191.766 9.76489C192.019 9.25531 192.442 8.91559 193.035 8.91559H196.419C197.35 8.91559 197.773 9.34023 197.773 10.2745V38.0467C197.688 38.9809 197.265 39.4056 196.335 39.4056Z" fill="white"/>
<path d="M24.6763 73.5H27.5923V63.276H31.6243V60.9H20.6443V63.276H24.6763V73.5ZM36.0912 71.16V68.244H41.9412V65.976H36.0912V63.24H42.7152V60.9H33.1932V73.5H42.9492V71.16H36.0912ZM45.2694 73.5H54.5034V71.124H48.1854V60.9H45.2694V73.5ZM59.0307 71.16V68.244H64.8807V65.976H59.0307V63.24H65.6547V60.9H56.1327V73.5H65.8887V71.16H59.0307ZM74.2037 73.716C76.3997 73.716 78.2177 72.924 79.4057 71.466L77.5337 69.738C76.6877 70.728 75.6257 71.232 74.3657 71.232C72.0077 71.232 70.3337 69.576 70.3337 67.2C70.3337 64.824 72.0077 63.168 74.3657 63.168C75.6257 63.168 76.6877 63.672 77.5337 64.644L79.4057 62.916C78.2177 61.476 76.3997 60.684 74.2217 60.684C70.2977 60.684 67.3817 63.402 67.3817 67.2C67.3817 70.998 70.2977 73.716 74.2037 73.716ZM87.2132 73.716C91.1732 73.716 94.1072 70.962 94.1072 67.2C94.1072 63.438 91.1732 60.684 87.2132 60.684C83.2352 60.684 80.3192 63.456 80.3192 67.2C80.3192 70.944 83.2352 73.716 87.2132 73.716ZM87.2132 71.232C84.9632 71.232 83.2712 69.594 83.2712 67.2C83.2712 64.806 84.9632 63.168 87.2132 63.168C89.4632 63.168 91.1552 64.806 91.1552 67.2C91.1552 69.594 89.4632 71.232 87.2132 71.232ZM110.501 73.5L110.465 60.9H108.071L103.427 68.73L98.7107 60.9H96.2987V73.5H99.0347V66.102L102.725 72.168H104.039L107.747 65.94L107.765 73.5H110.501ZM127.692 73.5L127.656 60.9H125.262L120.618 68.73L115.902 60.9H113.49V73.5H116.226V66.102L119.916 72.168H121.23L124.938 65.94L124.956 73.5H127.692ZM136.28 73.716C139.862 73.716 141.986 71.664 141.986 67.956V60.9H139.105V67.848C139.105 70.242 138.08 71.232 136.298 71.232C134.534 71.232 133.49 70.242 133.49 67.848V60.9H130.574V67.956C130.574 71.664 132.698 73.716 136.28 73.716ZM153.543 60.9V68.55L147.279 60.9H144.867V73.5H147.747V65.85L154.029 73.5H156.423V60.9H153.543ZM159.404 73.5H162.32V60.9H159.404V73.5ZM171.34 73.716C173.536 73.716 175.354 72.924 176.542 71.466L174.67 69.738C173.824 70.728 172.762 71.232 171.502 71.232C169.144 71.232 167.47 69.576 167.47 67.2C167.47 64.824 169.144 63.168 171.502 63.168C172.762 63.168 173.824 63.672 174.67 64.644L176.542 62.916C175.354 61.476 173.536 60.684 171.358 60.684C167.434 60.684 164.518 63.402 164.518 67.2C164.518 70.998 167.434 73.716 171.34 73.716ZM187.679 73.5H190.739L185.105 60.9H182.225L176.609 73.5H179.597L180.713 70.8H186.563L187.679 73.5ZM181.649 68.586L183.647 63.762L185.645 68.586H181.649ZM194.024 73.5H196.94V63.276H200.972V60.9H189.992V63.276H194.024V73.5ZM202.541 73.5H205.457V60.9H202.541V73.5ZM214.549 73.716C218.509 73.716 221.443 70.962 221.443 67.2C221.443 63.438 218.509 60.684 214.549 60.684C210.571 60.684 207.655 63.456 207.655 67.2C207.655 70.944 210.571 73.716 214.549 73.716ZM214.549 71.232C212.299 71.232 210.607 69.594 210.607 67.2C210.607 64.806 212.299 63.168 214.549 63.168C216.799 63.168 218.491 64.806 218.491 67.2C218.491 69.594 216.799 71.232 214.549 71.232ZM232.311 60.9V68.55L226.047 60.9H223.635V73.5H226.515V65.85L232.797 73.5H235.191V60.9H232.311Z" fill="black"/>
</svg>
