<svg width="53" height="36" viewBox="0 0 53 36" fill="none" xmlns="http://www.w3.org/2000/svg">
<path d="M52.8427 0.000976562H0.105469V35.5732H52.8427V0.000976562Z" fill="#F0F0F0"/>
<path d="M29.7702 0.000488281H23.178V14.4515H0.105469V21.1212H23.178V35.5722H29.7702V21.1212H52.8427V14.4515H29.7702V0.000488281Z" fill="#D80027"/>
<path d="M40.668 23.9717L52.8444 30.8161V23.9717H40.668Z" fill="#0052B4"/>
<path d="M32.207 23.9727L52.8434 35.5721V32.2921L38.0426 23.9727H32.207Z" fill="#0052B4"/>
<path d="M47.3465 35.5711L32.207 27.0605V35.5711H47.3465Z" fill="#0052B4"/>
<path d="M32.207 23.9722L52.8434 35.5717V32.2916L38.0426 23.9722H32.207Z" fill="#F0F0F0"/>
<path d="M32.207 23.9722L52.8434 35.5717V32.2916L38.0426 23.9722H32.207Z" fill="#D80027"/>
<path d="M9.41081 23.9722L0.105469 29.2027V23.9722H9.41081Z" fill="#0052B4"/>
<path d="M20.7431 25.4468V35.5713H2.73242L20.7431 25.4468Z" fill="#0052B4"/>
<path d="M14.9062 23.9722L0.105469 32.2916V35.5717L20.7418 23.9722H14.9062Z" fill="#D80027"/>
<path d="M12.2819 11.5993L0.105469 4.75488V11.5993H12.2819Z" fill="#0052B4"/>
<path d="M20.7418 11.6L0.105469 0.000488281V3.28053L14.9062 11.6H20.7418Z" fill="#0052B4"/>
<path d="M5.60352 0L20.743 8.51057V0H5.60352Z" fill="#0052B4"/>
<path d="M20.7418 11.6L0.105469 0.000488281V3.28053L14.9062 11.6H20.7418Z" fill="#F0F0F0"/>
<path d="M20.7418 11.6L0.105469 0.000488281V3.28053L14.9062 11.6H20.7418Z" fill="#D80027"/>
<path d="M43.5391 11.5997L52.8444 6.36914V11.5997H43.5391Z" fill="#0052B4"/>
<path d="M32.207 10.1245V0H50.2177L32.207 10.1245Z" fill="#0052B4"/>
<path d="M38.0426 11.5995L52.8434 3.28005V0L32.207 11.5995H38.0426Z" fill="#D80027"/>
<rect width="53" height="36" fill="#505050" fill-opacity="0.88"/>
</svg>
