<svg width="500" height="68" viewBox="0 0 50 7" fill="none" xmlns="http://www.w3.org/2000/svg">
<path d="M49.1762 6.58363H14.0275C13.5812 6.58363 13.2037 6.2166 13.2037 5.75781V0.825821C13.2037 0.378501 13.5698 0 14.0275 0H49.1762C49.6224 0 50 0.367031 50 0.825821V5.75781C50 6.2166 49.6339 6.58363 49.1762 6.58363Z" fill="#0069D1"/>
<path d="M18.1693 5.32165H16.8192C16.6934 5.32165 16.6361 5.2643 16.6361 5.13813V1.38753C16.6361 1.26136 16.6934 1.20401 16.8192 1.20401H18.1693C18.3638 1.20401 18.5469 1.2843 18.6956 1.43341C18.8558 1.58251 18.9245 1.76603 18.9245 1.96102V2.6492C18.9245 2.82125 18.8673 2.97035 18.7643 3.10799L18.6384 3.26857L18.7757 3.42914C18.8787 3.56678 18.9359 3.71589 18.9359 3.88793V4.57612C18.9359 4.78257 18.8558 4.95462 18.7071 5.10372C18.5469 5.25283 18.3753 5.32165 18.1693 5.32165ZM17.3913 2.87859H18.1693V1.96102H17.3913V2.87859ZM17.3913 4.56465H18.1693V3.64707H17.3913V4.56465Z" fill="white"/>
<path d="M20.9954 5.32165H20.0229C19.8284 5.32165 19.6568 5.25283 19.508 5.10372C19.3707 4.96608 19.2906 4.79404 19.2906 4.58758V1.37606C19.2906 1.24989 19.3478 1.19254 19.4737 1.19254H19.8627C19.9886 1.19254 20.0458 1.24989 20.0458 1.37606V4.55318H20.984C21.1098 4.55318 21.1671 4.62199 21.1671 4.73669V5.11519C21.1785 5.2643 21.1213 5.32165 20.9954 5.32165Z" fill="white"/>
<path d="M23.1465 5.32165H22.3112C22.1053 5.32165 21.9336 5.24136 21.7735 5.09226C21.6247 4.94315 21.5446 4.75963 21.5446 4.56465V1.38753C21.5446 1.26136 21.6018 1.20401 21.7277 1.20401H22.1053C22.2311 1.20401 22.2883 1.26136 22.2883 1.38753V4.56465H23.135V1.38753C23.135 1.26136 23.1922 1.20401 23.3181 1.20401H23.7071C23.833 1.20401 23.8902 1.26136 23.8902 1.38753V4.56465C23.8902 4.7711 23.8101 4.94315 23.6613 5.10372C23.524 5.25283 23.3524 5.32165 23.1465 5.32165Z" fill="white"/>
<path d="M26.0755 5.32165H25C24.8055 5.32165 24.6338 5.25283 24.4851 5.10372C24.3478 4.96608 24.2677 4.79404 24.2677 4.58758V1.37606C24.2677 1.24989 24.3249 1.19254 24.4508 1.19254H26.0412C26.167 1.19254 26.2242 1.24989 26.2242 1.37606V1.76603C26.2242 1.8922 26.167 1.94955 26.0412 1.94955H25.0229V2.86712H25.8695C25.9954 2.86712 26.0526 2.92447 26.0526 3.05064V3.44061C26.0526 3.56678 25.984 3.62413 25.8695 3.62413H25.0229V4.5417H26.0526C26.1785 4.5417 26.2357 4.61052 26.2357 4.72522V5.10372C26.27 5.2643 26.2013 5.32165 26.0755 5.32165Z" fill="white"/>
<path d="M30.6064 5.32165H30.2174C30.0915 5.32165 30.0343 5.2643 30.0343 5.13813V3.00476L29.5423 4.05998C29.508 4.1288 29.4508 4.16321 29.3707 4.16321C29.2906 4.16321 29.2334 4.1288 29.1991 4.05998L28.7071 3.00476V5.13813C28.7071 5.2643 28.6384 5.32165 28.524 5.32165H28.135C28.0091 5.32165 27.9519 5.2643 27.9519 5.13813V1.38753C27.9519 1.26136 28.0091 1.20401 28.135 1.20401H28.5927C28.6728 1.20401 28.73 1.23842 28.7643 1.31871L29.3707 2.62626L29.9885 1.31871C30.0229 1.24989 30.0801 1.20401 30.1602 1.20401H30.6178C30.7437 1.20401 30.8009 1.26136 30.8009 1.38753V5.13813C30.7895 5.2643 30.7323 5.32165 30.6064 5.32165Z" fill="white"/>
<path d="M32.7803 5.32165H31.9108C31.7048 5.32165 31.5332 5.24136 31.3844 5.09225C31.2357 4.94315 31.1556 4.75963 31.1556 4.56465V1.94955C31.1556 1.74309 31.2357 1.57104 31.3844 1.42194C31.5332 1.27283 31.7162 1.19254 31.9108 1.19254H32.7803C32.9863 1.19254 33.1579 1.27283 33.3181 1.42194C33.4783 1.57104 33.5469 1.75456 33.5469 1.94955V4.55318C33.5469 4.75963 33.4668 4.93168 33.3181 5.08078C33.1579 5.25283 32.9863 5.32165 32.7803 5.32165ZM32.7803 4.56465V1.96101H31.9108V4.56465H32.7803Z" fill="white"/>
<path d="M35.5149 5.32165H34.6796C34.4737 5.32165 34.3021 5.24136 34.1419 5.09226C33.9931 4.94315 33.913 4.75963 33.913 4.56465V1.38753C33.913 1.26136 33.9703 1.20401 34.0961 1.20401H34.4737C34.5995 1.20401 34.6568 1.26136 34.6568 1.38753V4.56465H35.5034V1.38753C35.5034 1.26136 35.5606 1.20401 35.6865 1.20401H36.0755C36.2014 1.20401 36.2586 1.26136 36.2586 1.38753V4.56465C36.2586 4.7711 36.1785 4.94315 36.0297 5.10372C35.8924 5.25283 35.7094 5.32165 35.5149 5.32165Z" fill="white"/>
<path d="M38.1922 5.20695L37.4142 3.16534V5.13813C37.4142 5.2643 37.357 5.32165 37.2311 5.32165H36.8536C36.7277 5.32165 36.6705 5.2643 36.6705 5.13813V1.38753C36.6705 1.26136 36.7277 1.20401 36.8536 1.20401H37.3455C37.4256 1.20401 37.4828 1.24989 37.5172 1.33018L38.3066 3.37179V1.399C38.3066 1.27283 38.3638 1.21548 38.4897 1.21548H38.8673C38.9931 1.21548 39.0503 1.27283 39.0503 1.399V5.13813C39.0503 5.2643 38.9931 5.32165 38.8673 5.32165H38.3753C38.2838 5.32165 38.2265 5.28724 38.1922 5.20695Z" fill="white"/>
<path d="M41.4989 1.96102H40.9382V5.13813C40.9382 5.2643 40.881 5.32165 40.7551 5.32165H40.3661C40.2403 5.32165 40.1831 5.2643 40.1831 5.13813V1.96102H39.6224C39.4966 1.96102 39.4394 1.90367 39.4394 1.7775V1.38753C39.4394 1.26136 39.4966 1.20401 39.6224 1.20401H41.5217C41.6476 1.20401 41.7048 1.26136 41.7048 1.38753V1.7775C41.6934 1.90367 41.6247 1.96102 41.4989 1.96102Z" fill="white"/>
<path d="M43.2151 5.17254L43.0664 4.40407H42.2654L42.1167 5.17254C42.0938 5.27577 42.0366 5.32165 41.9336 5.32165H41.5446C41.4874 5.32165 41.4302 5.29871 41.3959 5.25283C41.3615 5.20695 41.3387 5.16107 41.3616 5.09225L42.1053 1.34165C42.1281 1.23842 42.1853 1.19254 42.2883 1.19254H43.0435C43.1464 1.19254 43.2037 1.23842 43.2265 1.34165L43.9702 5.09225C43.9817 5.1496 43.9702 5.20695 43.9359 5.25283C43.9016 5.29871 43.8444 5.32165 43.7872 5.32165H43.3982C43.2952 5.32165 43.238 5.27577 43.2151 5.17254ZM42.9176 3.64707L42.6659 2.40834L42.4142 3.64707H42.9176Z" fill="white"/>
<path d="M44.9313 5.32165H44.5423C44.4165 5.32165 44.3593 5.2643 44.3593 5.13813V1.38753C44.3593 1.26136 44.4165 1.20401 44.5423 1.20401H44.9313C45.0572 1.20401 45.1144 1.26136 45.1144 1.38753V5.13813C45.1259 5.2643 45.0572 5.32165 44.9313 5.32165Z" fill="white"/>
<path d="M47.0252 5.20695L46.2471 3.16534V5.13813C46.2471 5.2643 46.1899 5.32165 46.0641 5.32165H45.6865C45.5606 5.32165 45.5034 5.2643 45.5034 5.13813V1.38753C45.5034 1.26136 45.5606 1.20401 45.6865 1.20401H46.1785C46.2586 1.20401 46.3158 1.24989 46.3501 1.33018L47.1396 3.37179V1.399C47.1396 1.27283 47.1968 1.21548 47.3226 1.21548H47.7002C47.8261 1.21548 47.8833 1.27283 47.8833 1.399V5.13813C47.8833 5.2643 47.8261 5.32165 47.7002 5.32165H47.2082C47.1167 5.32165 47.0595 5.28724 47.0252 5.20695Z" fill="white"/>
<path d="M13.6041 6.58363H0.823799C0.377574 6.58363 0 6.2166 0 5.75781V0.825821C0 0.378501 0.366133 0 0.823799 0H13.6156C14.0618 0 14.4394 0.367031 14.4394 0.825821V5.75781C14.4279 6.2166 14.0618 6.58363 13.6041 6.58363Z" fill="#031928"/>
<path d="M10.2517 5.32165H2.04803C1.99083 5.32165 1.96794 5.25283 2.00227 5.21842L6.10982 1.08932C6.1327 1.06638 6.16703 1.06638 6.18991 1.08932L10.2975 5.21842C10.3318 5.2643 10.3089 5.32165 10.2517 5.32165Z" fill="#0069D1"/>
<path d="M8.47828 2.85566L9.40506 1.92661C9.42794 1.90367 9.46226 1.90367 9.48515 1.92661L12.7803 5.22989C12.8147 5.2643 12.7918 5.33312 12.7346 5.33312H10.9268" fill="#DD071C"/>
</svg>
