<svg width="500" height="68" viewBox="0 0 50 7" fill="none" xmlns="http://www.w3.org/2000/svg">
<path d="M13.6041 6.58363H0.823799C0.377574 6.58363 0 6.2166 0 5.75781V0.825821C0 0.378501 0.366133 0 0.823799 0H13.6156C14.0618 0 14.4394 0.367031 14.4394 0.825821V5.75781C14.4279 6.2166 14.0618 6.58363 13.6041 6.58363Z" fill="#031928"/>
<path d="M10.2517 5.32165H2.04803C1.99083 5.32165 1.96794 5.25283 2.00227 5.21842L6.10982 1.08932C6.1327 1.06638 6.16703 1.06638 6.18991 1.08932L10.2975 5.21842C10.3318 5.2643 10.3089 5.32165 10.2517 5.32165Z" fill="#0069D1"/>
<path d="M8.47828 2.85566L9.40506 1.92661C9.42794 1.90367 9.46226 1.90367 9.48515 1.92661L12.7803 5.22989C12.8147 5.2643 12.7918 5.33312 12.7346 5.33312H10.9268" fill="#DD071C"/>
</svg>
