<svg width="102" height="102" viewBox="0 0 102 102" fill="none" xmlns="http://www.w3.org/2000/svg">
<path d="M93.4999 60.6087V16.9999C93.4999 12.3121 89.6857 8.49987 84.9999 8.49987H72.2499V2.12487C72.2501 0.950473 71.2996 0 70.125 0C68.9504 0 67.9999 0.950473 67.9999 2.12507V8.50007H29.7499V2.12507C29.7499 0.950473 28.7997 0 27.6251 0C26.4505 0 25.5 0.950473 25.5 2.12507V8.50007H8.50007C3.81424 8.50007 0 12.3121 0 16.9999V84.9999C0 89.6877 3.81424 93.4999 8.50007 93.4999H60.6083C64.8999 98.6882 71.3833 102 78.6251 102C91.5119 102 102 91.5141 102 78.6251C102 71.3827 98.6878 64.8995 93.4999 60.6087ZM4.24993 16.9999C4.24993 14.6571 6.15506 12.75 8.50007 12.75H25.5V16.9999C23.155 16.9999 21.2501 18.9071 21.2501 21.2499C21.2501 23.5927 23.1552 25.4998 25.5 25.4998C27.8448 25.4998 29.7499 23.5927 29.7499 21.2499V12.75H67.9999V16.9999C65.6549 16.9999 63.75 18.9071 63.75 21.2499C63.75 23.5927 65.6551 25.4998 67.9999 25.4998C70.3449 25.4998 72.2499 23.5927 72.2499 21.2499V12.75H84.9999C87.3451 12.75 89.25 14.6571 89.25 16.9999V29.7499H4.24993V16.9999ZM8.50007 89.25C6.15506 89.25 4.25013 87.3429 4.25013 85.0001V34.0001H89.25V57.8308C86.0579 56.1926 82.4525 55.2501 78.6251 55.2501C65.738 55.2501 55.2501 65.736 55.2501 78.6251C55.2501 82.4525 56.193 86.0579 57.8308 89.25H8.50007ZM78.6251 97.7501C68.0788 97.7501 59.5001 89.1711 59.5001 78.6251C59.5001 68.079 68.079 59.5001 78.6251 59.5001C89.1711 59.5001 97.7501 68.079 97.7501 78.6251C97.7501 89.1711 89.1711 97.7501 78.6251 97.7501Z" fill="#E5CE00"/>
<path d="M80.7499 77.7451V65.8751C80.7499 64.7005 79.7995 63.75 78.6249 63.75C77.4503 63.75 76.5 64.7005 76.5 65.8751V78.6251C76.5 79.1895 76.7241 79.7291 77.1226 80.1276L83.4976 86.5026C83.9125 86.9175 84.4564 87.1251 85.0001 87.1251C85.5437 87.1251 86.0874 86.9175 86.5026 86.5026C87.3327 85.6724 87.3327 84.3277 86.5026 83.4978L80.7499 77.7451Z" fill="#E5CE00"/>
</svg>
