<svg width="31" height="21" viewBox="0 0 31 21" fill="none" xmlns="http://www.w3.org/2000/svg">
<path d="M30.2066 0.578308H0.958984V20.0885H30.2066V0.578308Z" fill="#F0F0F0"/>
<path d="M7.47253 10.3334L0.958984 3.81293V16.8551L7.47253 10.3334Z" fill="black"/>
<path d="M10.167 10.3334L0.958984 1.11349V3.81293L7.47253 10.3335L0.958984 16.8551V19.5495L10.167 10.3334Z" fill="#FFDA44"/>
<path d="M30.0829 12.242C30.0862 12.2169 30.1288 12.1918 30.2066 12.1667V10.3334V8.42477H30.0829H13.675L5.8334 0.578308H0.958984V1.1135L10.167 10.3334L0.958984 19.5495V20.0885H5.8334L13.675 12.242H30.0829Z" fill="#6DA544"/>
<path d="M29.7032 14.1507H14.4654L8.53125 20.0885H30.207V14.1507H29.7032Z" fill="#0052B4"/>
<path d="M29.7032 6.51608H30.207V0.578308H8.53125L14.4654 6.51608H29.7032Z" fill="#D80027"/>
</svg>
