<svg width="30" height="21" viewBox="0 0 30 21" fill="none" xmlns="http://www.w3.org/2000/svg">
<path d="M29.2477 0.578644H0V20.0895H29.2477V0.578644Z" fill="#F0F0F0"/>
<path d="M16.4518 0.578522H12.7959V8.50466H0V12.1629H12.7959V20.089H16.4518V12.1629H29.2477V8.50466H16.4518V0.578522Z" fill="#D80027"/>
<path d="M22.4941 13.7268L29.2471 17.4808V13.7268H22.4941Z" fill="#0052B4"/>
<path d="M17.8027 13.727L29.2475 20.0891V18.2901L21.0391 13.727H17.8027Z" fill="#0052B4"/>
<path d="M26.199 20.0889L17.8027 15.421V20.0889H26.199Z" fill="#0052B4"/>
<path d="M17.8037 13.7267L29.2485 20.0888V18.2898L21.0401 13.7267H17.8037Z" fill="#F0F0F0"/>
<path d="M17.8037 13.7267L29.2485 20.0888V18.2898L21.0401 13.7267H17.8037Z" fill="#D80027"/>
<path d="M5.16067 13.7266L0 16.5955V13.7266H5.16067Z" fill="#0052B4"/>
<path d="M11.4446 14.5356V20.0887H1.45605L11.4446 14.5356Z" fill="#0052B4"/>
<path d="M8.20837 13.7267L0 18.2898V20.0888L11.4447 13.7267H8.20837Z" fill="#D80027"/>
<path d="M6.75295 6.94044L0 3.1864V6.94044H6.75295Z" fill="#0052B4"/>
<path d="M11.4447 6.94068L0 0.578552V2.3776L8.20837 6.94068H11.4447Z" fill="#0052B4"/>
<path d="M3.04883 0.578308L11.4451 5.24622V0.578308H3.04883Z" fill="#0052B4"/>
<path d="M11.4447 6.94065L0 0.578522V2.37757L8.20837 6.94065H11.4447Z" fill="#F0F0F0"/>
<path d="M11.4447 6.94065L0 0.578522V2.37757L8.20837 6.94065H11.4447Z" fill="#D80027"/>
<path d="M24.0869 6.94057L29.2476 4.07172V6.94057H24.0869Z" fill="#0052B4"/>
<path d="M17.8037 6.13152V0.578369H27.7923L17.8037 6.13152Z" fill="#0052B4"/>
<path d="M21.0401 6.94044L29.2485 2.37736V0.578308L17.8037 6.94044H21.0401Z" fill="#D80027"/>
</svg>
