<svg width="54" height="36" viewBox="0 0 54 36" fill="none" xmlns="http://www.w3.org/2000/svg">
<path d="M53.4247 0.000976562H0V35.7995H53.4247V0.000976562Z" fill="#0052B4"/>
<path d="M23.3103 17.8988C23.3388 17.8669 23.367 17.8349 23.3951 17.8027C23.367 17.835 23.3382 17.8667 23.3096 17.8988H23.3103Z" fill="#F0F0F0"/>
<path d="M19.7437 22.2959L20.8871 24.699L23.4693 24.0993L22.3129 26.496L24.3894 28.1511L21.8041 28.7368L21.8113 31.4005L19.7437 29.734L17.6762 31.4005L17.6834 28.7368L15.0981 28.1511L17.1746 26.496L16.0182 24.0993L18.6003 24.699L19.7437 22.2959Z" fill="#F0F0F0"/>
<path d="M40.3896 25.2812L40.935 26.4275L42.1666 26.1414L41.615 27.2845L42.6055 28.074L41.3723 28.3533L41.3757 29.6238L40.3896 28.829L39.4035 29.6238L39.4069 28.3533L38.1738 28.074L39.1642 27.2845L38.6127 26.1414L39.8443 26.4275L40.3896 25.2812Z" fill="#F0F0F0"/>
<path d="M35.316 13.1221L35.8614 14.2684L37.093 13.9822L36.5414 15.1254L37.5317 15.915L36.2987 16.1942L36.302 17.4648L35.316 16.6699L34.3298 17.4648L34.3332 16.1942L33.1001 15.915L34.0904 15.1254L33.5391 13.9822L34.7706 14.2684L35.316 13.1221Z" fill="#F0F0F0"/>
<path d="M40.3896 6.17383L40.935 7.32014L42.1666 7.03382L41.615 8.1772L42.6054 8.96661L41.3723 9.246L41.3757 10.5165L40.3896 9.72151L39.4035 10.5165L39.4069 9.246L38.1738 8.96661L39.1642 8.1772L38.6127 7.03382L39.8443 7.32014L40.3896 6.17383Z" fill="#F0F0F0"/>
<path d="M44.8212 11.3857L45.3666 12.5319L46.5981 12.2458L46.0468 13.389L47.0371 14.1784L45.804 14.4578L45.8074 15.7283L44.8212 14.9335L43.8352 15.7283L43.8385 14.4578L42.6055 14.1784L43.5958 13.389L43.0442 12.2458L44.2758 12.5319L44.8212 11.3857Z" fill="#F0F0F0"/>
<path d="M41.6522 17.4648L42.0811 18.7918H43.4693L42.3462 19.6119L42.7753 20.9388L41.6522 20.1188L40.529 20.9388L40.958 19.6119L39.835 18.7918H41.2232L41.6522 17.4648Z" fill="#F0F0F0"/>
<path d="M26.7124 0.000976562V3.2053L21.9994 5.83761H26.7124V12.063H20.5453L26.7124 15.5067V17.8997H23.9284L16.2597 13.6179V17.8997H10.4527V12.8055L1.32977 17.8997H0V14.6953L4.71296 12.063H0V5.83761H6.16711L0 2.39281V0.000976562H2.78393L10.4527 4.28281V0.000976562H16.2597V5.09519L25.3826 0.000976562H26.7124Z" fill="#F0F0F0"/>
<path d="M15.0262 0.000976562H11.6871V7.27233H0.000488281V10.6284H11.6871V17.9H15.0262V10.6284H26.7129V7.27233H15.0262V0.000976562Z" fill="#D80027"/>
<path d="M16.2598 12.0625L26.7124 17.8991V16.2487L19.2156 12.0625H16.2598Z" fill="#0052B4"/>
<path d="M16.2598 12.0625L26.7124 17.8991V16.2487L19.2156 12.0625H16.2598Z" fill="#F0F0F0"/>
<path d="M16.2598 12.0625L26.7124 17.8991V16.2487L19.2156 12.0625H16.2598Z" fill="#D80027"/>
<path d="M7.49678 12.0635L0 16.2497V17.9001L10.4527 12.0635H7.49678Z" fill="#D80027"/>
<path d="M10.4532 5.83761L0.000488281 0.000976562V1.65143L7.49738 5.83761H10.4532Z" fill="#0052B4"/>
<path d="M10.4532 5.83761L0.000488281 0.000976562V1.65143L7.49738 5.83761H10.4532Z" fill="#F0F0F0"/>
<path d="M10.4537 5.83761L0.000976562 0.000976562V1.65143L7.49786 5.83761H10.4537Z" fill="#D80027"/>
<path d="M19.2157 5.83664L26.7124 1.65046V0L16.2598 5.83664H19.2157Z" fill="#D80027"/>
</svg>
