<svg width="168" height="76" viewBox="0 0 168 76" fill="none" xmlns="http://www.w3.org/2000/svg">
<path d="M158.282 48.75H9.58479C4.39303 48.75 0 46.0322 0 42.635V6.11498C0 2.8027 4.25991 0 9.58479 0H158.415C163.607 0 168 2.71777 168 6.11498V42.635C167.867 46.0322 163.607 48.75 158.282 48.75Z" fill="#031928"/>
<path d="M75.811 39.4056H15.145C14.7219 39.4056 14.5527 38.896 14.8065 38.6412L45.1819 8.0663C45.3511 7.89644 45.6049 7.89644 45.7741 8.0663L76.1495 38.6412C76.4033 38.9809 76.2341 39.4056 75.811 39.4056Z" fill="#0069D1"/>
<path d="M62.6968 21.1454L69.5503 14.2661C69.7195 14.0962 69.9733 14.0962 70.1425 14.2661L94.5105 38.726C94.7643 38.9808 94.5951 39.4904 94.1721 39.4904H80.8035" fill="#DD071C"/>
<path d="M119.363 39.4056H109.379C108.448 39.4056 108.025 38.9809 108.025 38.0467V10.2745C108.025 9.34023 108.448 8.91559 109.379 8.91559H119.363C120.801 8.91559 122.155 9.5101 123.255 10.6142C124.439 11.7183 124.947 13.0772 124.947 14.521V19.6168C124.947 20.8908 124.524 21.9948 123.763 23.014L122.832 24.203L123.847 25.3921C124.609 26.4112 125.032 27.5153 125.032 28.7893V33.8851C125.032 35.4138 124.439 36.6878 123.339 37.7919C122.155 38.896 120.886 39.4056 119.363 39.4056ZM113.609 21.3154H119.363V14.521H113.609V21.3154ZM113.609 33.8002H119.363V27.0057H113.609V33.8002Z" fill="white"/>
<path d="M151.335 39.4056H148.459C147.528 39.4056 147.105 38.9809 147.105 38.0467V22.2496L143.467 30.0632C143.213 30.5728 142.79 30.8276 142.197 30.8276C141.605 30.8276 141.182 30.5728 140.928 30.0632L137.29 22.2496V38.0467C137.29 38.9809 136.782 39.4056 135.936 39.4056H133.059C132.129 39.4056 131.706 38.9809 131.706 38.0467V10.2745C131.706 9.34023 132.129 8.91559 133.059 8.91559H136.444C137.036 8.91559 137.459 9.17038 137.713 9.76489L142.197 19.4469L146.766 9.76489C147.02 9.25531 147.443 8.91559 148.036 8.91559H151.42C152.351 8.91559 152.774 9.34023 152.774 10.2745V38.0467C152.689 38.9809 152.266 39.4056 151.335 39.4056Z" fill="white"/>
<path d="M42.7529 66.66V69H32.9969V56.4H42.5189V58.74H35.8949V61.476H41.7449V63.744H35.8949V66.66H42.7529ZM45.0731 56.4H50.7971C52.1651 56.4 53.3711 56.664 54.4151 57.192C55.4711 57.708 56.2871 58.44 56.8631 59.388C57.4511 60.336 57.7451 61.44 57.7451 62.7C57.7451 63.96 57.4511 65.064 56.8631 66.012C56.2871 66.96 55.4711 67.698 54.4151 68.226C53.3711 68.742 52.1651 69 50.7971 69H45.0731V56.4ZM50.6531 66.606C51.9131 66.606 52.9151 66.258 53.6591 65.562C54.4151 64.854 54.7931 63.9 54.7931 62.7C54.7931 61.5 54.4151 60.552 53.6591 59.856C52.9151 59.148 51.9131 58.794 50.6531 58.794H47.9891V66.606H50.6531ZM65.5422 69.216C63.7422 69.216 62.3382 68.718 61.3302 67.722C60.3342 66.726 59.8362 65.304 59.8362 63.456V56.4H62.7522V63.348C62.7522 65.604 63.6882 66.732 65.5602 66.732C66.4722 66.732 67.1682 66.462 67.6482 65.922C68.1282 65.37 68.3682 64.512 68.3682 63.348V56.4H71.2482V63.456C71.2482 65.304 70.7442 66.726 69.7362 67.722C68.7402 68.718 67.3422 69.216 65.5422 69.216ZM80.1597 69.216C78.8757 69.216 77.7117 68.94 76.6677 68.388C75.6357 67.824 74.8197 67.05 74.2197 66.066C73.6317 65.07 73.3377 63.948 73.3377 62.7C73.3377 61.452 73.6317 60.336 74.2197 59.352C74.8197 58.356 75.6357 57.582 76.6677 57.03C77.7117 56.466 78.8817 56.184 80.1777 56.184C81.2697 56.184 82.2537 56.376 83.1297 56.76C84.0177 57.144 84.7617 57.696 85.3617 58.416L83.4897 60.144C82.6377 59.16 81.5817 58.668 80.3217 58.668C79.5417 58.668 78.8457 58.842 78.2337 59.19C77.6217 59.526 77.1417 60 76.7937 60.612C76.4577 61.224 76.2897 61.92 76.2897 62.7C76.2897 63.48 76.4577 64.176 76.7937 64.788C77.1417 65.4 77.6217 65.88 78.2337 66.228C78.8457 66.564 79.5417 66.732 80.3217 66.732C81.5817 66.732 82.6377 66.234 83.4897 65.238L85.3617 66.966C84.7617 67.698 84.0177 68.256 83.1297 68.64C82.2417 69.024 81.2517 69.216 80.1597 69.216ZM95.3828 66.3H89.5328L88.4168 69H85.4288L91.0448 56.4H93.9248L99.5588 69H96.4988L95.3828 66.3ZM94.4648 64.086L92.4668 59.262L90.4688 64.086H94.4648ZM102.843 58.776H98.8113V56.4H109.791V58.776H105.759V69H102.843V58.776ZM111.36 56.4H114.276V69H111.36V56.4ZM123.368 69.216C122.06 69.216 120.878 68.934 119.822 68.37C118.778 67.806 117.956 67.032 117.356 66.048C116.768 65.052 116.474 63.936 116.474 62.7C116.474 61.464 116.768 60.354 117.356 59.37C117.956 58.374 118.778 57.594 119.822 57.03C120.878 56.466 122.06 56.184 123.368 56.184C124.676 56.184 125.852 56.466 126.896 57.03C127.94 57.594 128.762 58.374 129.362 59.37C129.962 60.354 130.262 61.464 130.262 62.7C130.262 63.936 129.962 65.052 129.362 66.048C128.762 67.032 127.94 67.806 126.896 68.37C125.852 68.934 124.676 69.216 123.368 69.216ZM123.368 66.732C124.112 66.732 124.784 66.564 125.384 66.228C125.984 65.88 126.452 65.4 126.788 64.788C127.136 64.176 127.31 63.48 127.31 62.7C127.31 61.92 127.136 61.224 126.788 60.612C126.452 60 125.984 59.526 125.384 59.19C124.784 58.842 124.112 58.668 123.368 58.668C122.624 58.668 121.952 58.842 121.352 59.19C120.752 59.526 120.278 60 119.93 60.612C119.594 61.224 119.426 61.92 119.426 62.7C119.426 63.48 119.594 64.176 119.93 64.788C120.278 65.4 120.752 65.88 121.352 66.228C121.952 66.564 122.624 66.732 123.368 66.732ZM144.01 56.4V69H141.616L135.334 61.35V69H132.454V56.4H134.866L141.13 64.05V56.4H144.01Z" fill="black"/>
</svg>
