<svg width="54" height="36" viewBox="0 0 54 36" fill="none" xmlns="http://www.w3.org/2000/svg">
<path d="M53.4247 0.000976562H0V35.7995H53.4247V0.000976562Z" fill="#F0F0F0"/>
<path d="M30.0514 0.000976562H23.3733V14.5439H0V21.2561H23.3733V35.799H30.0514V21.2561H53.4247V14.5439H30.0514V0.000976562Z" fill="#D80027"/>
<path d="M41.0898 24.125L53.425 31.0129V24.125H41.0898Z" fill="#0052B4"/>
<path d="M32.52 24.126L53.4254 35.7992V32.4983L38.4317 24.126H32.52Z" fill="#0052B4"/>
<path d="M47.8564 35.7981L32.5195 27.2334V35.7981H47.8564Z" fill="#0052B4"/>
<path d="M32.519 24.125L53.4244 35.7983V32.4974L38.4307 24.125H32.519Z" fill="#F0F0F0"/>
<path d="M32.519 24.125L53.4244 35.7983V32.4974L38.4307 24.125H32.519Z" fill="#D80027"/>
<path d="M9.42665 24.125L0 29.3888V24.125H9.42665Z" fill="#0052B4"/>
<path d="M20.9056 25.6094V35.7983H2.66016L20.9056 25.6094Z" fill="#0052B4"/>
<path d="M14.9937 24.125L0 32.4974V35.7983L20.9053 24.125H14.9937Z" fill="#D80027"/>
<path d="M12.3352 11.6731L0 4.78516V11.6731H12.3352Z" fill="#0052B4"/>
<path d="M20.9053 11.6742L0 0.000976562V3.30189L14.9937 11.6742H20.9053Z" fill="#0052B4"/>
<path d="M5.56836 0L20.9052 8.56471V0H5.56836Z" fill="#0052B4"/>
<path d="M20.9053 11.6742L0 0.000976562V3.30189L14.9937 11.6742H20.9053Z" fill="#F0F0F0"/>
<path d="M20.9053 11.6742L0 0.000976562V3.30189L14.9937 11.6742H20.9053Z" fill="#D80027"/>
<path d="M43.998 11.673L53.4247 6.40918V11.673H43.998Z" fill="#0052B4"/>
<path d="M32.519 10.1889V0H50.7645L32.519 10.1889Z" fill="#0052B4"/>
<path d="M38.4307 11.6733L53.4244 3.30091V0L32.519 11.6733H38.4307Z" fill="#D80027"/>
</svg>
