<svg width="54" height="36" viewBox="0 0 54 36" fill="none" xmlns="http://www.w3.org/2000/svg">
<path d="M53.4247 0H0V35.7985H53.4247V0Z" fill="#F0F0F0"/>
<path d="M53.4247 4.47461H0V8.94899H53.4247V4.47461Z" fill="#D80027"/>
<path d="M53.4247 13.4248H0V17.8992H53.4247V13.4248Z" fill="#D80027"/>
<path d="M53.4247 22.373H0V26.8474H53.4247V22.373Z" fill="#D80027"/>
<path d="M53.4247 31.3232H0V35.7976H53.4247V31.3232Z" fill="#D80027"/>
<path d="M26.7124 0H0V19.2761H26.7124V0Z" fill="#2E52B2"/>
<path d="M10.416 7.89648L9.98579 9.22675H8.59424L9.72023 10.0485L9.29001 11.3786L10.416 10.5569L11.5413 11.3786L11.1111 10.0485L12.2371 9.22675H10.8455L10.416 7.89648Z" fill="#F0F0F0"/>
<path d="M10.8455 14.0274L10.416 12.6973L9.98579 14.0274H8.59424L9.72023 14.8492L9.29001 16.1794L10.416 15.3576L11.5413 16.1794L11.1111 14.8492L12.2371 14.0274H10.8455Z" fill="#F0F0F0"/>
<path d="M4.96424 14.0274L4.53465 12.6973L4.10444 14.0274H2.71289L3.83888 14.8492L3.40866 16.1794L4.53465 15.3576L5.66002 16.1794L5.22991 14.8492L6.35568 14.0274H4.96424Z" fill="#F0F0F0"/>
<path d="M4.53465 7.89648L4.10444 9.22675H2.71289L3.83888 10.0485L3.40866 11.3786L4.53465 10.5569L5.66002 11.3786L5.22991 10.0485L6.35568 9.22675H4.96424L4.53465 7.89648Z" fill="#F0F0F0"/>
<path d="M10.416 3.0957L9.98579 4.42607H8.59424L9.72023 5.24789L9.29001 6.57805L10.416 5.75623L11.5413 6.57805L11.1111 5.24789L12.2371 4.42607H10.8455L10.416 3.0957Z" fill="#F0F0F0"/>
<path d="M4.53465 3.0957L4.10444 4.42607H2.71289L3.83888 5.24789L3.40866 6.57805L4.53465 5.75623L5.66002 6.57805L5.22991 5.24789L6.35568 4.42607H4.96424L4.53465 3.0957Z" fill="#F0F0F0"/>
<path d="M16.2968 7.89648L15.8666 9.22675H14.4751L15.601 10.0485L15.171 11.3786L16.2968 10.5569L17.4222 11.3786L16.992 10.0485L18.118 9.22675H16.7264L16.2968 7.89648Z" fill="#F0F0F0"/>
<path d="M16.7264 14.0274L16.2968 12.6973L15.8666 14.0274H14.4751L15.601 14.8492L15.171 16.1794L16.2968 15.3576L17.4222 16.1794L16.992 14.8492L18.118 14.0274H16.7264Z" fill="#F0F0F0"/>
<path d="M22.6077 14.0274L22.1781 12.6973L21.7479 14.0274H20.3564L21.4822 14.8492L21.0521 16.1794L22.1781 15.3576L23.3035 16.1794L22.8733 14.8492L23.9992 14.0274H22.6077Z" fill="#F0F0F0"/>
<path d="M22.1781 7.89648L21.7479 9.22675H20.3564L21.4822 10.0485L21.0521 11.3786L22.1781 10.5569L23.3035 11.3786L22.8733 10.0485L23.9992 9.22675H22.6077L22.1781 7.89648Z" fill="#F0F0F0"/>
<path d="M16.2968 3.0957L15.8666 4.42607H14.4751L15.601 5.24789L15.171 6.57805L16.2968 5.75623L17.4222 6.57805L16.992 5.24789L18.118 4.42607H16.7264L16.2968 3.0957Z" fill="#F0F0F0"/>
<path d="M22.1781 3.0957L21.7479 4.42607H20.3564L21.4822 5.24789L21.0521 6.57805L22.1781 5.75623L23.3035 6.57805L22.8733 5.24789L23.9992 4.42607H22.6077L22.1781 3.0957Z" fill="#F0F0F0"/>
</svg>
