<svg width="53" height="36" viewBox="0 0 53 36" fill="none" xmlns="http://www.w3.org/2000/svg">
<path d="M52.7373 0H0V35.5723H52.7373V0Z" fill="#F0F0F0"/>
<path d="M52.7373 4.44629H0V8.89239H52.7373V4.44629Z" fill="#D80027"/>
<path d="M52.7373 13.3394H0V17.7855H52.7373V13.3394Z" fill="#D80027"/>
<path d="M52.7373 22.2314H0V26.6775H52.7373V22.2314Z" fill="#D80027"/>
<path d="M52.7373 31.125H0V35.5711H52.7373V31.125Z" fill="#D80027"/>
<path d="M26.3686 0H0V19.1543H26.3686V0Z" fill="#2E52B2"/>
<path d="M10.2827 7.84668L9.85802 9.16854H8.48438L9.59587 9.98506L9.1712 11.3068L10.2827 10.4903L11.3935 11.3068L10.9689 9.98506L12.0804 9.16854H10.7067L10.2827 7.84668Z" fill="#F0F0F0"/>
<path d="M10.7067 13.9385L10.2827 12.6167L9.85802 13.9385H8.48438L9.59587 14.7551L9.1712 16.0768L10.2827 15.2602L11.3935 16.0768L10.9689 14.7551L12.0804 13.9385H10.7067Z" fill="#F0F0F0"/>
<path d="M4.90012 13.9385L4.47605 12.6167L4.05138 13.9385H2.67773L3.78923 14.7551L3.36455 16.0768L4.47605 15.2602L5.58694 16.0768L5.16236 14.7551L6.27365 13.9385H4.90012Z" fill="#F0F0F0"/>
<path d="M4.47605 7.84668L4.05138 9.16854H2.67773L3.78923 9.98506L3.36455 11.3068L4.47605 10.4903L5.58694 11.3068L5.16236 9.98506L6.27365 9.16854H4.90012L4.47605 7.84668Z" fill="#F0F0F0"/>
<path d="M10.2827 3.07617L9.85802 4.39813H8.48438L9.59587 5.21476L9.1712 6.53651L10.2827 5.71989L11.3935 6.53651L10.9689 5.21476L12.0804 4.39813H10.7067L10.2827 3.07617Z" fill="#F0F0F0"/>
<path d="M4.47605 3.07666L4.05138 4.39862H2.67773L3.78923 5.21525L3.36455 6.537L4.47605 5.72037L5.58694 6.537L5.16236 5.21525L6.27365 4.39862H4.90012L4.47605 3.07666Z" fill="#F0F0F0"/>
<path d="M16.0883 7.84668L15.6637 9.16854H14.29L15.4014 9.98506L14.977 11.3068L16.0883 10.4903L17.1992 11.3068L16.7746 9.98506L17.8861 9.16854H16.5124L16.0883 7.84668Z" fill="#F0F0F0"/>
<path d="M16.5124 13.9385L16.0883 12.6167L15.6637 13.9385H14.29L15.4014 14.7551L14.977 16.0768L16.0883 15.2602L17.1992 16.0768L16.7746 14.7551L17.8861 13.9385H16.5124Z" fill="#F0F0F0"/>
<path d="M22.316 13.9385L21.892 12.6167L21.4673 13.9385H20.0938L21.205 14.7551L20.7805 16.0768L21.892 15.2602L23.0028 16.0768L22.5782 14.7551L23.6897 13.9385H22.316Z" fill="#F0F0F0"/>
<path d="M21.892 7.84668L21.4673 9.16854H20.0938L21.205 9.98506L20.7805 11.3068L21.892 10.4903L23.0028 11.3068L22.5782 9.98506L23.6897 9.16854H22.316L21.892 7.84668Z" fill="#F0F0F0"/>
<path d="M16.0883 3.07617L15.6637 4.39813H14.29L15.4014 5.21476L14.977 6.53651L16.0883 5.71989L17.1992 6.53651L16.7746 5.21476L17.8861 4.39813H16.5124L16.0883 3.07617Z" fill="#F0F0F0"/>
<path d="M21.892 3.07617L21.4673 4.39813H20.0938L21.205 5.21476L20.7805 6.53651L21.892 5.71989L23.0028 6.53651L22.5782 5.21476L23.6897 4.39813H22.316L21.892 3.07617Z" fill="#F0F0F0"/>
<rect width="53" height="36" fill="#505050" fill-opacity="0.88"/>
</svg>
