<svg width="30" height="21" viewBox="0 0 30 21" fill="none" xmlns="http://www.w3.org/2000/svg">
<path d="M29.815 0.578613H0.567383V20.0894H29.815V0.578613Z" fill="#0052B4"/>
<path d="M13.3285 10.334C13.3442 10.3165 13.3598 10.2989 13.3753 10.2812C13.3598 10.299 13.3439 10.3163 13.3281 10.334H13.3285Z" fill="#F0F0F0"/>
<path d="M11.3762 12.7301L12.0022 14.0398L13.4159 13.713L12.7828 15.0192L13.9195 15.9213L12.5042 16.2405L12.5082 17.6923L11.3762 16.784L10.2444 17.6923L10.2483 16.2405L8.83301 15.9213L9.96978 15.0192L9.33667 13.713L10.7503 14.0398L11.3762 12.7301Z" fill="#F0F0F0"/>
<path d="M22.6789 14.3571L22.9774 14.9818L23.6517 14.8259L23.3497 15.449L23.8919 15.8793L23.2169 16.0315L23.2187 16.7239L22.6789 16.2908L22.139 16.7239L22.1409 16.0315L21.4658 15.8793L22.008 15.449L21.7061 14.8259L22.3803 14.9818L22.6789 14.3571Z" fill="#F0F0F0"/>
<path d="M19.9006 7.73007L20.1992 8.35483L20.8734 8.19884L20.5715 8.82194L21.1136 9.25224L20.4386 9.40446L20.4404 10.097L19.9006 9.66368L19.3607 10.097L19.3626 9.40446L18.6875 9.25224L19.2297 8.82194L18.9278 8.19884L19.602 8.35483L19.9006 7.73007Z" fill="#F0F0F0"/>
<path d="M22.6789 3.94324L22.9774 4.568L23.6517 4.41195L23.3497 5.03511L23.8919 5.46535L23.2169 5.61762L23.2187 6.31006L22.6789 5.87679L22.139 6.31006L22.1409 5.61762L21.4658 5.46535L22.008 5.03511L21.7061 4.41195L22.3803 4.568L22.6789 3.94324Z" fill="#F0F0F0"/>
<path d="M25.1046 6.78339L25.4032 7.40809L26.0774 7.25216L25.7756 7.8752L26.3177 8.30544L25.6426 8.45772L25.6445 9.15015L25.1046 8.71699L24.5648 9.15015L24.5666 8.45772L23.8916 8.30544L24.4338 7.8752L24.1318 7.25216L24.806 7.40809L25.1046 6.78339Z" fill="#F0F0F0"/>
<path d="M23.3699 10.0969L23.6047 10.8201H24.3646L23.7498 11.2671L23.9847 11.9903L23.3699 11.5434L22.7549 11.9903L22.9898 11.2671L22.375 10.8201H23.135L23.3699 10.0969Z" fill="#F0F0F0"/>
<path d="M15.1912 0.578613V2.32502L12.6111 3.75968H15.1912V7.15264H11.815L15.1912 9.02949V10.3337H13.6671L9.46884 8.00009V10.3337H6.28976V7.55727L1.29538 10.3337H0.567383V8.58729L3.14752 7.15264H0.567383V3.75968H3.9436L0.567383 1.8822V0.578613H2.09146L6.28976 2.91228V0.578613H9.46884V3.35504L14.4632 0.578613H15.1912Z" fill="#F0F0F0"/>
<path d="M8.79329 0.578308H6.96531V4.54132H0.567383V6.37044H6.96531V10.3336H8.79329V6.37044H15.1912V4.54132H8.79329V0.578308Z" fill="#D80027"/>
<path d="M9.46875 7.15253L15.1911 10.3336V9.43407L11.0869 7.15253H9.46875Z" fill="#0052B4"/>
<path d="M9.46875 7.15253L15.1911 10.3336V9.43407L11.0869 7.15253H9.46875Z" fill="#F0F0F0"/>
<path d="M9.46875 7.1525L15.1911 10.3336V9.43404L11.0869 7.1525H9.46875Z" fill="#D80027"/>
<path d="M4.67154 7.15317L0.567383 9.43471V10.3342L6.28976 7.15317H4.67154Z" fill="#D80027"/>
<path d="M6.28976 3.75937L0.567383 0.578308V1.47783L4.67159 3.75937H6.28976Z" fill="#0052B4"/>
<path d="M6.28976 3.75937L0.567383 0.578308V1.47783L4.67159 3.75937H6.28976Z" fill="#F0F0F0"/>
<path d="M6.28976 3.76035L0.567383 0.579285V1.47881L4.67159 3.76035H6.28976Z" fill="#D80027"/>
<path d="M11.087 3.75937L15.1911 1.47783V0.578308L9.46875 3.75937H11.087Z" fill="#D80027"/>
</svg>
