<svg width="219" height="30" viewBox="0 0 219 30" fill="none" xmlns="http://www.w3.org/2000/svg">
<path d="M79.5817 24.2495H73.6682C73.1169 24.2495 72.8663 23.9881 72.8663 23.4132V6.32262C72.8663 5.74771 73.1169 5.48639 73.6682 5.48639H79.5817C80.4336 5.48639 81.2354 5.85224 81.8869 6.53169C82.5885 7.21113 82.8892 8.04736 82.8892 8.93586V12.0717C82.8892 12.8557 82.6386 13.5352 82.1876 14.1623L81.6364 14.8941L82.2377 15.6258C82.6888 16.2529 82.9393 16.9324 82.9393 17.7164V20.8522C82.9393 21.793 82.5885 22.577 81.937 23.2564C81.2354 23.9359 80.4837 24.2495 79.5817 24.2495ZM76.1739 13.117H79.5817V8.93586H76.1739V13.117ZM76.1739 20.8H79.5817V16.6188H76.1739V20.8Z" fill="black"/>
<path d="M91.96 24.2495H87.7002C86.8483 24.2495 86.0966 23.9359 85.4451 23.2564C84.8437 22.6293 84.4929 21.8453 84.4929 20.9045V6.27038C84.4929 5.69547 84.7435 5.43414 85.2947 5.43414H86.9986C87.5499 5.43414 87.8005 5.69547 87.8005 6.27038V20.7477H91.9098C92.4611 20.7477 92.7117 21.0613 92.7117 21.584V23.3087C92.7618 23.9881 92.5112 24.2495 91.96 24.2495Z" fill="black"/>
<path d="M101.381 24.2495H97.7231C96.8211 24.2495 96.0694 23.8836 95.3678 23.2042C94.7163 22.5247 94.3655 21.6885 94.3655 20.8V6.32262C94.3655 5.74771 94.616 5.48639 95.1673 5.48639H96.8211C97.3723 5.48639 97.6229 5.74771 97.6229 6.32262V20.8H101.331V6.32262C101.331 5.74771 101.582 5.48639 102.133 5.48639H103.837C104.388 5.48639 104.639 5.74771 104.639 6.32262V20.8C104.639 21.7407 104.288 22.5247 103.637 23.2564C103.035 23.9359 102.284 24.2495 101.381 24.2495Z" fill="black"/>
<path d="M114.211 24.2495H109.5C108.648 24.2495 107.896 23.9359 107.245 23.2564C106.643 22.6293 106.293 21.8453 106.293 20.9045V6.27038C106.293 5.69547 106.543 5.43414 107.094 5.43414H114.06C114.612 5.43414 114.862 5.69547 114.862 6.27038V8.04738C114.862 8.6223 114.612 8.88362 114.06 8.88362H109.6V13.0648H113.309C113.86 13.0648 114.111 13.3261 114.111 13.901V15.678C114.111 16.253 113.81 16.5143 113.309 16.5143H109.6V20.6955H114.111C114.662 20.6955 114.912 21.0091 114.912 21.5317V23.2564C115.063 23.9881 114.762 24.2495 114.211 24.2495Z" fill="black"/>
<path d="M134.056 24.2495H132.352C131.801 24.2495 131.55 23.9881 131.55 23.4132V13.692L129.395 18.5003C129.245 18.8139 128.995 18.9707 128.644 18.9707C128.293 18.9707 128.042 18.8139 127.892 18.5003L125.737 13.692V23.4132C125.737 23.9881 125.436 24.2495 124.935 24.2495H123.231C122.68 24.2495 122.43 23.9881 122.43 23.4132V6.32262C122.43 5.74771 122.68 5.48639 123.231 5.48639H125.236C125.587 5.48639 125.837 5.64318 125.988 6.00904L128.644 11.9672L131.35 6.00904C131.5 5.69545 131.751 5.48639 132.102 5.48639H134.106C134.657 5.48639 134.908 5.74771 134.908 6.32262V23.4132C134.858 23.9881 134.607 24.2495 134.056 24.2495Z" fill="black"/>
<path d="M143.578 24.2495H139.769C138.867 24.2495 138.115 23.8836 137.464 23.2042C136.812 22.5247 136.461 21.6885 136.461 20.8V8.88362C136.461 7.94286 136.812 7.15888 137.464 6.47944C138.115 5.8 138.917 5.43414 139.769 5.43414H143.578C144.48 5.43414 145.232 5.8 145.933 6.47944C146.635 7.15888 146.935 7.99512 146.935 8.88362V20.7477C146.935 21.6885 146.585 22.4725 145.933 23.1519C145.232 23.9359 144.48 24.2495 143.578 24.2495ZM143.578 20.8V8.93588H139.769V20.8H143.578Z" fill="black"/>
<path d="M155.555 24.2495H151.897C150.995 24.2495 150.243 23.8836 149.541 23.2042C148.89 22.5247 148.539 21.6885 148.539 20.8V6.32262C148.539 5.74771 148.79 5.48639 149.341 5.48639H150.995C151.546 5.48639 151.797 5.74771 151.797 6.32262V20.8H155.505V6.32262C155.505 5.74771 155.756 5.48639 156.307 5.48639H158.011C158.562 5.48639 158.813 5.74771 158.813 6.32262V20.8C158.813 21.7407 158.462 22.5247 157.81 23.2564C157.209 23.9359 156.407 24.2495 155.555 24.2495Z" fill="black"/>
<path d="M167.282 23.7268L163.874 14.4237V23.4132C163.874 23.9881 163.624 24.2495 163.072 24.2495H161.419C160.867 24.2495 160.617 23.9881 160.617 23.4132V6.32262C160.617 5.74771 160.867 5.48639 161.419 5.48639H163.573C163.924 5.48639 164.175 5.69544 164.325 6.0613L167.783 15.3644V6.37489C167.783 5.79998 168.034 5.53865 168.585 5.53865H170.239C170.79 5.53865 171.04 5.79998 171.04 6.37489V23.4132C171.04 23.9881 170.79 24.2495 170.239 24.2495H168.084C167.683 24.2495 167.432 24.0927 167.282 23.7268Z" fill="black"/>
<path d="M181.765 8.93586H179.309V23.4132C179.309 23.9881 179.059 24.2495 178.508 24.2495H176.804C176.252 24.2495 176.002 23.9881 176.002 23.4132V8.93586H173.546C172.995 8.93586 172.744 8.67454 172.744 8.09963V6.32262C172.744 5.74771 172.995 5.48639 173.546 5.48639H181.865C182.416 5.48639 182.667 5.74771 182.667 6.32262V8.09963C182.617 8.67454 182.316 8.93586 181.765 8.93586Z" fill="black"/>
<path d="M189.282 23.57L188.631 20.0683H185.123L184.471 23.57C184.371 24.0404 184.12 24.2495 183.669 24.2495H181.965C181.715 24.2495 181.464 24.1449 181.314 23.9359C181.164 23.7268 181.063 23.5178 181.164 23.2042L184.421 6.11359C184.521 5.6432 184.772 5.43414 185.223 5.43414H188.53C188.981 5.43414 189.232 5.6432 189.332 6.11359L192.59 23.2042C192.64 23.4655 192.59 23.7268 192.439 23.9359C192.289 24.1449 192.038 24.2495 191.788 24.2495H190.084C189.633 24.2495 189.382 24.0404 189.282 23.57ZM187.979 16.6188L186.877 10.9742L185.774 16.6188H187.979Z" fill="black"/>
<path d="M196.799 24.2495H195.095C194.544 24.2495 194.294 23.9881 194.294 23.4132V6.32262C194.294 5.74771 194.544 5.48639 195.095 5.48639H196.799C197.351 5.48639 197.601 5.74771 197.601 6.32262V23.4132C197.651 23.9881 197.351 24.2495 196.799 24.2495Z" fill="black"/>
<path d="M205.97 23.7268L202.562 14.4237V23.4132C202.562 23.9881 202.312 24.2495 201.761 24.2495H200.107C199.556 24.2495 199.305 23.9881 199.305 23.4132V6.32262C199.305 5.74771 199.556 5.48639 200.107 5.48639H202.262C202.613 5.48639 202.863 5.69544 203.014 6.0613L206.471 15.3644V6.37489C206.471 5.79998 206.722 5.53865 207.273 5.53865H208.927C209.478 5.53865 209.729 5.79998 209.729 6.37489V23.4132C209.729 23.9881 209.478 24.2495 208.927 24.2495H206.772C206.371 24.2495 206.121 24.0927 205.97 23.7268Z" fill="black"/>
<path d="M44.9025 24.2494H8.97044C8.71987 24.2494 8.61964 23.9358 8.76998 23.779L26.7611 4.96371C26.8613 4.85918 27.0116 4.85918 27.1119 4.96371L45.1029 23.779C45.2533 23.9881 45.153 24.2494 44.9025 24.2494Z" fill="#0069D1"/>
<path d="M37.1348 13.0125L41.194 8.77902C41.2943 8.67449 41.4446 8.67449 41.5448 8.77902L55.9778 23.8313C56.1281 23.9881 56.0279 24.3017 55.7773 24.3017H47.8593" fill="#DD071C"/>
</svg>
