<svg width="289" height="45" viewBox="0 0 289 45" fill="none" xmlns="http://www.w3.org/2000/svg">
<g filter="url(#filter0_d)">
<path d="M280.37 37H82.8343C80.3266 37 78.2046 34.9373 78.2046 32.3589V4.64111C78.2046 2.12718 80.2623 0 82.8343 0H280.37C282.878 0 285 2.06272 285 4.64111V32.3589C285 34.9373 282.942 37 280.37 37Z" fill="#0069D1"/>
<path d="M106.112 29.9077H98.524C97.8167 29.9077 97.4952 29.5854 97.4952 28.8763V7.79791C97.4952 7.08885 97.8167 6.76656 98.524 6.76656H106.112C107.205 6.76656 108.234 7.21778 109.07 8.05575C109.97 8.89373 110.356 9.92509 110.356 11.0209V14.8885C110.356 15.8554 110.034 16.6934 109.455 17.4669L108.748 18.3693L109.52 19.2718C110.098 20.0453 110.42 20.8833 110.42 21.8502V25.7178C110.42 26.8781 109.97 27.8449 109.134 28.6829C108.234 29.5209 107.269 29.9077 106.112 29.9077ZM101.739 16.1777H106.112V11.0209H101.739V16.1777ZM101.739 25.6533H106.112V20.4965H101.739V25.6533Z" fill="white"/>
<path d="M121.994 29.9077H116.529C115.435 29.9077 114.471 29.5209 113.635 28.6829C112.863 27.9094 112.413 26.9425 112.413 25.7822V7.73345C112.413 7.02439 112.735 6.70209 113.442 6.70209H115.628C116.336 6.70209 116.657 7.02439 116.657 7.73345V25.5888H121.93C122.637 25.5888 122.959 25.9756 122.959 26.6202V28.7474C123.023 29.5854 122.702 29.9077 121.994 29.9077Z" fill="white"/>
<path d="M134.083 29.9077H129.389C128.232 29.9077 127.267 29.4565 126.367 28.6185C125.531 27.7805 125.081 26.7491 125.081 25.6533V7.79791C125.081 7.08885 125.402 6.76656 126.11 6.76656H128.232C128.939 6.76656 129.26 7.08885 129.26 7.79791V25.6533H134.019V7.79791C134.019 7.08885 134.34 6.76656 135.048 6.76656H137.234C137.941 6.76656 138.263 7.08885 138.263 7.79791V25.6533C138.263 26.8136 137.813 27.7805 136.977 28.6829C136.205 29.5209 135.241 29.9077 134.083 29.9077Z" fill="white"/>
<path d="M150.544 29.9077H144.5C143.407 29.9077 142.442 29.5209 141.606 28.6829C140.835 27.9094 140.385 26.9425 140.385 25.7822V7.73345C140.385 7.02439 140.706 6.70209 141.414 6.70209H150.351C151.059 6.70209 151.38 7.02439 151.38 7.73345V9.92508C151.38 10.6341 151.059 10.9564 150.351 10.9564H144.629V16.1132H149.387C150.094 16.1132 150.416 16.4355 150.416 17.1446V19.3362C150.416 20.0453 150.03 20.3676 149.387 20.3676H144.629V25.5244H150.416C151.123 25.5244 151.445 25.9111 151.445 26.5557V28.6829C151.638 29.5854 151.252 29.9077 150.544 29.9077Z" fill="white"/>
<path d="M176.008 29.9077H173.822C173.114 29.9077 172.793 29.5854 172.793 28.8763V16.8868L170.028 22.8171C169.835 23.2038 169.514 23.3972 169.063 23.3972C168.613 23.3972 168.292 23.2038 168.099 22.8171L165.334 16.8868V28.8763C165.334 29.5854 164.948 29.9077 164.305 29.9077H162.119C161.411 29.9077 161.09 29.5854 161.09 28.8763V7.79791C161.09 7.08885 161.411 6.76656 162.119 6.76656H164.691C165.141 6.76656 165.462 6.95994 165.655 7.41115L169.063 14.7596L172.536 7.41115C172.729 7.0244 173.05 6.76656 173.5 6.76656H176.072C176.78 6.76656 177.101 7.08885 177.101 7.79791V28.8763C177.037 29.5854 176.715 29.9077 176.008 29.9077Z" fill="white"/>
<path d="M188.225 29.9077H183.338C182.181 29.9077 181.216 29.4564 180.381 28.6185C179.545 27.7805 179.094 26.7491 179.094 25.6533V10.9564C179.094 9.79617 179.545 8.82926 180.381 7.99129C181.216 7.15331 182.245 6.70209 183.338 6.70209H188.225C189.383 6.70209 190.347 7.15331 191.248 7.99129C192.148 8.82926 192.534 9.86063 192.534 10.9564V25.5888C192.534 26.7491 192.084 27.716 191.248 28.554C190.347 29.5209 189.383 29.9077 188.225 29.9077ZM188.225 25.6533V11.0209H183.338V25.6533H188.225Z" fill="white"/>
<path d="M203.594 29.9077H198.9C197.742 29.9077 196.778 29.4565 195.877 28.6185C195.041 27.7805 194.591 26.7491 194.591 25.6533V7.79791C194.591 7.08885 194.913 6.76656 195.62 6.76656H197.742C198.449 6.76656 198.771 7.08885 198.771 7.79791V25.6533H203.529V7.79791C203.529 7.08885 203.851 6.76656 204.558 6.76656H206.744C207.452 6.76656 207.773 7.08885 207.773 7.79791V25.6533C207.773 26.8136 207.323 27.7805 206.487 28.6829C205.716 29.5209 204.687 29.9077 203.594 29.9077Z" fill="white"/>
<path d="M218.64 29.2631L214.268 17.7892V28.8763C214.268 29.5854 213.946 29.9077 213.239 29.9077H211.117C210.41 29.9077 210.088 29.5854 210.088 28.8763V7.79791C210.088 7.08885 210.41 6.76656 211.117 6.76656H213.882C214.332 6.76656 214.654 7.02439 214.846 7.47561L219.283 18.9495V7.86237C219.283 7.15331 219.605 6.83101 220.312 6.83101H222.434C223.141 6.83101 223.463 7.15331 223.463 7.86237V28.8763C223.463 29.5854 223.141 29.9077 222.434 29.9077H219.669C219.155 29.9077 218.833 29.7143 218.64 29.2631Z" fill="white"/>
<path d="M237.224 11.0209H234.073V28.8763C234.073 29.5854 233.751 29.9077 233.044 29.9077H230.858C230.15 29.9077 229.829 29.5854 229.829 28.8763V11.0209H226.678C225.971 11.0209 225.649 10.6986 225.649 9.98955V7.79791C225.649 7.08885 225.971 6.76656 226.678 6.76656H237.352C238.059 6.76656 238.381 7.08885 238.381 7.79791V9.98955C238.317 10.6986 237.931 11.0209 237.224 11.0209Z" fill="white"/>
<path d="M246.869 29.0697L246.033 24.7509H241.532L240.696 29.0697C240.567 29.6498 240.246 29.9077 239.667 29.9077H237.481C237.159 29.9077 236.838 29.7787 236.645 29.5209C236.452 29.2631 236.323 29.0052 236.452 28.6185L240.632 7.54007C240.76 6.95993 241.082 6.70209 241.66 6.70209H245.904C246.483 6.70209 246.805 6.95993 246.933 7.54007L251.113 28.6185C251.177 28.9408 251.113 29.2631 250.92 29.5209C250.727 29.7787 250.406 29.9077 250.084 29.9077H247.898C247.319 29.9077 246.997 29.6498 246.869 29.0697ZM245.197 20.4965L243.782 13.5348L242.368 20.4965H245.197Z" fill="white"/>
<path d="M256.514 29.9077H254.328C253.621 29.9077 253.299 29.5854 253.299 28.8763V7.79791C253.299 7.08885 253.621 6.76656 254.328 6.76656H256.514C257.222 6.76656 257.543 7.08885 257.543 7.79791V28.8763C257.607 29.5854 257.222 29.9077 256.514 29.9077Z" fill="white"/>
<path d="M268.281 29.2631L263.909 17.7892V28.8763C263.909 29.5854 263.587 29.9077 262.88 29.9077H260.758C260.051 29.9077 259.729 29.5854 259.729 28.8763V7.79791C259.729 7.08885 260.051 6.76656 260.758 6.76656H263.523C263.973 6.76656 264.295 7.02439 264.488 7.47561L268.924 18.9495V7.86237C268.924 7.15331 269.246 6.83101 269.953 6.83101H272.075C272.783 6.83101 273.104 7.15331 273.104 7.86237V28.8763C273.104 29.5854 272.783 29.9077 272.075 29.9077H269.31C268.796 29.9077 268.474 29.7143 268.281 29.2631Z" fill="white"/>
<path d="M80.4551 37H8.62975C6.12197 37 4 34.9373 4 32.3589V4.64111C4 2.12718 6.05767 0 8.62975 0H80.5195C83.0272 0 85.1492 2.06272 85.1492 4.64111V32.3589C85.0849 34.9373 83.0272 37 80.4551 37Z" fill="#031928"/>
<path d="M61.6147 29.9077H15.5101C15.1886 29.9077 15.06 29.5209 15.2529 29.3275L38.3373 6.12196C38.4659 5.99304 38.6588 5.99304 38.7874 6.12196L61.8719 29.3275C62.0648 29.5854 61.9362 29.9077 61.6147 29.9077Z" fill="#0069D1"/>
<path d="M51.6478 16.0488L56.8563 10.8275C56.9849 10.6986 57.1778 10.6986 57.3064 10.8275L75.8254 29.392C76.0183 29.5854 75.8897 29.9721 75.5682 29.9721H65.4085" fill="#DD071C"/>
</g>
<defs>
<filter id="filter0_d" x="0" y="0" width="289" height="45" filterUnits="userSpaceOnUse" color-interpolation-filters="sRGB">
<feFlood flood-opacity="0" result="BackgroundImageFix"/>
<feColorMatrix in="SourceAlpha" type="matrix" values="0 0 0 0 0 0 0 0 0 0 0 0 0 0 0 0 0 0 127 0"/>
<feOffset dy="4"/>
<feGaussianBlur stdDeviation="2"/>
<feColorMatrix type="matrix" values="0 0 0 0 0 0 0 0 0 0 0 0 0 0 0 0 0 0 0.25 0"/>
<feBlend mode="normal" in2="BackgroundImageFix" result="effect1_dropShadow"/>
<feBlend mode="normal" in="SourceGraphic" in2="effect1_dropShadow" result="shape"/>
</filter>
</defs>
</svg>
