<svg width="211" height="28" viewBox="0 0 211 28" fill="none" xmlns="http://www.w3.org/2000/svg">
<path d="M207.278 27.75H59.1258C57.2449 27.75 55.6534 26.203 55.6534 24.2692V3.48083C55.6534 1.59538 57.1967 0 59.1258 0H207.278C209.159 0 210.75 1.54704 210.75 3.48083V24.2692C210.75 26.203 209.207 27.75 207.278 27.75Z" fill="#0069D1"/>
<path d="M76.5837 22.4308H70.893C70.3625 22.4308 70.1213 22.1891 70.1213 21.6573V5.84847C70.1213 5.31667 70.3625 5.07495 70.893 5.07495H76.5837C77.4036 5.07495 78.1752 5.41337 78.8021 6.04185C79.4773 6.67033 79.7666 7.44385 79.7666 8.26571V11.1664C79.7666 11.8916 79.5255 12.5201 79.0915 13.1002L78.561 13.777L79.1397 14.4539C79.5737 15.034 79.8149 15.6625 79.8149 16.3877V19.2884C79.8149 20.1586 79.4773 20.8837 78.8503 21.5122C78.1752 22.1407 77.4518 22.4308 76.5837 22.4308ZM73.3043 12.1333H76.5837V8.26571H73.3043V12.1333ZM73.3043 19.24H76.5837V15.3724H73.3043V19.24Z" fill="white"/>
<path d="M88.4957 22.4308H84.3964C83.5766 22.4308 82.8532 22.1407 82.2262 21.5122C81.6475 20.9321 81.3099 20.2069 81.3099 19.3367V5.80013C81.3099 5.26834 81.551 5.02661 82.0815 5.02661H83.7212C84.2517 5.02661 84.4929 5.26834 84.4929 5.80013V19.1917H88.4474C88.9779 19.1917 89.2191 19.4818 89.2191 19.9652V21.5606C89.2673 22.1891 89.0261 22.4308 88.4957 22.4308Z" fill="white"/>
<path d="M97.5622 22.4308H94.0417C93.1736 22.4308 92.4502 22.0924 91.775 21.4639C91.1481 20.8354 90.8105 20.0619 90.8105 19.24V5.84847C90.8105 5.31667 91.0516 5.07495 91.5821 5.07495H93.1736C93.7041 5.07495 93.9452 5.31667 93.9452 5.84847V19.24H97.514V5.84847C97.514 5.31667 97.7551 5.07495 98.2856 5.07495H99.9253C100.456 5.07495 100.697 5.31667 100.697 5.84847V19.24C100.697 20.1102 100.359 20.8354 99.7324 21.5122C99.1537 22.1407 98.4303 22.4308 97.5622 22.4308Z" fill="white"/>
<path d="M109.908 22.4308H105.375C104.555 22.4308 103.832 22.1407 103.205 21.5122C102.626 20.9321 102.288 20.2069 102.288 19.3367V5.80013C102.288 5.26834 102.53 5.02661 103.06 5.02661H109.764C110.294 5.02661 110.535 5.26834 110.535 5.80013V7.44386C110.535 7.97565 110.294 8.21738 109.764 8.21738H105.471V12.085H109.04C109.571 12.085 109.812 12.3267 109.812 12.8585V14.5022C109.812 15.034 109.522 15.2757 109.04 15.2757H105.471V19.1433H109.812C110.342 19.1433 110.583 19.4334 110.583 19.9169V21.5122C110.728 22.1891 110.439 22.4308 109.908 22.4308Z" fill="white"/>
<path d="M129.006 22.4308H127.366C126.836 22.4308 126.595 22.1891 126.595 21.6573V12.6651L124.521 17.1128C124.376 17.4029 124.135 17.5479 123.797 17.5479C123.46 17.5479 123.219 17.4029 123.074 17.1128L121 12.6651V21.6573C121 22.1891 120.711 22.4308 120.229 22.4308H118.589C118.059 22.4308 117.817 22.1891 117.817 21.6573V5.84847C117.817 5.31667 118.059 5.07495 118.589 5.07495H120.518C120.856 5.07495 121.097 5.21999 121.241 5.5584L123.797 11.0697L126.402 5.5584C126.546 5.26833 126.788 5.07495 127.125 5.07495H129.054C129.585 5.07495 129.826 5.31667 129.826 5.84847V21.6573C129.778 22.1891 129.536 22.4308 129.006 22.4308Z" fill="white"/>
<path d="M138.169 22.4308H134.504C133.636 22.4308 132.912 22.0924 132.285 21.4639C131.658 20.8354 131.321 20.0619 131.321 19.24V8.21738C131.321 7.34717 131.658 6.62199 132.285 5.99351C132.912 5.36503 133.684 5.02661 134.504 5.02661H138.169C139.037 5.02661 139.761 5.36503 140.436 5.99351C141.111 6.62199 141.4 7.39552 141.4 8.21738V19.1917C141.4 20.0619 141.063 20.7871 140.436 21.4156C139.761 22.1407 139.037 22.4308 138.169 22.4308ZM138.169 19.24V8.26572H134.504V19.24H138.169Z" fill="white"/>
<path d="M149.695 22.4308H146.175C145.306 22.4308 144.583 22.0924 143.908 21.4639C143.281 20.8354 142.943 20.0619 142.943 19.24V5.84847C142.943 5.31667 143.185 5.07495 143.715 5.07495H145.306C145.837 5.07495 146.078 5.31667 146.078 5.84847V19.24H149.647V5.84847C149.647 5.31667 149.888 5.07495 150.419 5.07495H152.058C152.589 5.07495 152.83 5.31667 152.83 5.84847V19.24C152.83 20.1102 152.492 20.8354 151.865 21.5122C151.287 22.1407 150.515 22.4308 149.695 22.4308Z" fill="white"/>
<path d="M160.98 21.9473L157.701 13.3419V21.6573C157.701 22.1891 157.46 22.4308 156.929 22.4308H155.338C154.807 22.4308 154.566 22.1891 154.566 21.6573V5.84847C154.566 5.31667 154.807 5.07495 155.338 5.07495H157.411C157.749 5.07495 157.99 5.26833 158.135 5.60674L161.462 14.2121V5.89681C161.462 5.36502 161.704 5.12329 162.234 5.12329H163.826C164.356 5.12329 164.597 5.36502 164.597 5.89681V21.6573C164.597 22.1891 164.356 22.4308 163.826 22.4308H161.752C161.366 22.4308 161.125 22.2858 160.98 21.9473Z" fill="white"/>
<path d="M174.918 8.26571H172.555V21.6573C172.555 22.1891 172.313 22.4308 171.783 22.4308H170.143C169.613 22.4308 169.372 22.1891 169.372 21.6573V8.26571H167.008C166.478 8.26571 166.237 8.02399 166.237 7.4922V5.84847C166.237 5.31667 166.478 5.07495 167.008 5.07495H175.014C175.545 5.07495 175.786 5.31667 175.786 5.84847V7.4922C175.738 8.02399 175.448 8.26571 174.918 8.26571Z" fill="white"/>
<path d="M182.152 21.8023L181.525 18.5632H178.149L177.522 21.8023C177.425 22.2374 177.184 22.4308 176.75 22.4308H175.111C174.869 22.4308 174.628 22.3341 174.484 22.1407C174.339 21.9473 174.242 21.754 174.339 21.4639L177.474 5.6551C177.57 5.21999 177.811 5.02661 178.245 5.02661H181.428C181.862 5.02661 182.103 5.21999 182.2 5.6551L185.335 21.4639C185.383 21.7056 185.335 21.9473 185.19 22.1407C185.045 22.3341 184.804 22.4308 184.563 22.4308H182.923C182.489 22.4308 182.248 22.2374 182.152 21.8023ZM180.898 15.3724L179.837 10.1512L178.776 15.3724H180.898Z" fill="white"/>
<path d="M189.386 22.4308H187.746C187.215 22.4308 186.974 22.1891 186.974 21.6573V5.84847C186.974 5.31667 187.215 5.07495 187.746 5.07495H189.386C189.916 5.07495 190.157 5.31667 190.157 5.84847V21.6573C190.205 22.1891 189.916 22.4308 189.386 22.4308Z" fill="white"/>
<path d="M198.211 21.9473L194.932 13.3419V21.6573C194.932 22.1891 194.691 22.4308 194.16 22.4308H192.569C192.038 22.4308 191.797 22.1891 191.797 21.6573V5.84847C191.797 5.31667 192.038 5.07495 192.569 5.07495H194.642C194.98 5.07495 195.221 5.26833 195.366 5.60674L198.693 14.2121V5.89681C198.693 5.36502 198.934 5.12329 199.465 5.12329H201.056C201.587 5.12329 201.828 5.36502 201.828 5.89681V21.6573C201.828 22.1891 201.587 22.4308 201.056 22.4308H198.983C198.597 22.4308 198.356 22.2858 198.211 21.9473Z" fill="white"/>
<path d="M57.3414 27.75H3.47231C1.59148 27.75 0 26.203 0 24.2692V3.48083C0 1.59538 1.54325 0 3.47231 0H57.3896C59.2704 0 60.8619 1.54704 60.8619 3.48083V24.2692C60.8137 26.203 59.2704 27.75 57.3414 27.75Z" fill="#031928"/>
<path d="M43.211 22.4308H8.63256C8.39142 22.4308 8.29497 22.1408 8.43965 21.9957L25.753 4.59156C25.8494 4.49487 25.9941 4.49487 26.0906 4.59156L43.4039 21.9957C43.5486 22.1891 43.4521 22.4308 43.211 22.4308Z" fill="#0069D1"/>
<path d="M35.7359 12.0367L39.6422 8.12074C39.7387 8.02405 39.8834 8.02405 39.9798 8.12074L53.869 22.0441C54.0137 22.1891 53.9173 22.4792 53.6761 22.4792H46.0564" fill="#DD071C"/>
</svg>
