<svg width="249" height="49" viewBox="0 0 249 49" fill="none" xmlns="http://www.w3.org/2000/svg">
<rect x="82.7186" y="31.5593" width="155.308" height="17.4407" rx="2" fill="#E5CE00" fill-opacity="0.95"/>
<path d="M104.435 44V43.3232L105.311 43.1729V37.0122L104.435 36.8618V36.1797H108.028C108.863 36.1797 109.511 36.3945 109.973 36.8242C110.438 37.2539 110.671 37.8197 110.671 38.5215C110.671 39.2305 110.438 39.798 109.973 40.2241C109.511 40.6502 108.863 40.8633 108.028 40.8633H106.369V43.1729L107.244 43.3232V44H104.435ZM106.369 40.0361H108.028C108.558 40.0361 108.954 39.8947 109.215 39.6118C109.48 39.3254 109.613 38.9655 109.613 38.5322C109.613 38.099 109.48 37.7373 109.215 37.4473C108.954 37.1572 108.558 37.0122 108.028 37.0122H106.369V40.0361ZM111.358 44V43.3232L112.234 43.1729V39.021L111.358 38.8706V38.1885H113.179L113.271 38.9297L113.281 39.0317C113.446 38.7345 113.648 38.5018 113.888 38.3335C114.132 38.1652 114.409 38.0811 114.721 38.0811C114.832 38.0811 114.944 38.0918 115.059 38.1133C115.177 38.1312 115.261 38.1491 115.312 38.167L115.172 39.1499L114.436 39.1069C114.157 39.089 113.922 39.1535 113.732 39.3003C113.543 39.4435 113.396 39.6369 113.292 39.8804V43.1729L114.167 43.3232V44H111.358ZM118.475 44.1128C117.938 44.1128 117.474 43.9875 117.084 43.7368C116.697 43.4826 116.398 43.1335 116.187 42.6895C115.976 42.2419 115.87 41.7316 115.87 41.1587V41.0405C115.87 40.4676 115.976 39.9591 116.187 39.5151C116.398 39.0675 116.697 38.7166 117.084 38.4624C117.474 38.2082 117.934 38.0811 118.464 38.0811C119.001 38.0811 119.463 38.2082 119.85 38.4624C120.24 38.7166 120.541 39.0658 120.752 39.5098C120.964 39.9538 121.069 40.464 121.069 41.0405V41.1587C121.069 41.7352 120.964 42.2472 120.752 42.6948C120.541 43.1388 120.242 43.4862 119.855 43.7368C119.469 43.9875 119.009 44.1128 118.475 44.1128ZM118.475 43.2856C118.976 43.2856 119.358 43.0851 119.619 42.6841C119.881 42.283 120.011 41.7746 120.011 41.1587V41.0405C120.011 40.6323 119.952 40.2689 119.834 39.9502C119.719 39.6279 119.548 39.3755 119.318 39.1929C119.089 39.0067 118.805 38.9136 118.464 38.9136C118.128 38.9136 117.845 39.0067 117.616 39.1929C117.387 39.3755 117.215 39.6279 117.1 39.9502C116.986 40.2689 116.928 40.6323 116.928 41.0405V41.1587C116.928 41.7746 117.057 42.283 117.315 42.6841C117.576 43.0851 117.963 43.2856 118.475 43.2856ZM121.864 44V43.3232L122.74 43.1729V38.9727H121.832V38.1885H122.74V37.4526C122.74 36.8332 122.901 36.3551 123.223 36.0186C123.549 35.6784 124.002 35.5083 124.582 35.5083C124.704 35.5083 124.834 35.519 124.974 35.5405C125.117 35.5584 125.264 35.5853 125.415 35.6211L125.286 36.4268C125.221 36.4124 125.133 36.3999 125.022 36.3892C124.915 36.3784 124.813 36.373 124.716 36.373C124.104 36.373 123.798 36.7329 123.798 37.4526V38.1885H125.065V38.9727H123.798V43.1729L124.797 43.3232V44H121.864ZM128.379 44.1128C127.842 44.1128 127.375 43.991 126.978 43.7476C126.58 43.5005 126.272 43.1585 126.054 42.7217C125.839 42.2848 125.731 41.7799 125.731 41.207V40.9707C125.731 40.4193 125.844 39.9269 126.07 39.4937C126.299 39.0568 126.602 38.7131 126.978 38.4624C127.357 38.2082 127.771 38.0811 128.218 38.0811C128.999 38.0811 129.59 38.3174 129.991 38.79C130.395 39.2627 130.598 39.8929 130.598 40.6807V41.3413H126.827L126.811 41.3682C126.822 41.9268 126.963 42.3869 127.235 42.7485C127.507 43.1066 127.889 43.2856 128.379 43.2856C128.737 43.2856 129.051 43.2355 129.319 43.1353C129.591 43.0314 129.826 42.89 130.023 42.7109L130.437 43.3984C130.229 43.599 129.953 43.769 129.609 43.9087C129.269 44.0448 128.859 44.1128 128.379 44.1128ZM126.859 40.5142H129.54V40.3745C129.54 39.9591 129.429 39.6118 129.207 39.3325C128.985 39.0532 128.655 38.9136 128.218 38.9136C127.864 38.9136 127.561 39.064 127.311 39.3647C127.06 39.6619 126.906 40.0361 126.849 40.4873L126.859 40.5142ZM133.81 44.1128C133.419 44.1128 133.054 44.0734 132.714 43.9946C132.374 43.9159 132.012 43.7941 131.629 43.6294L131.618 42.249H132.418L132.617 43.0815C132.997 43.2391 133.394 43.3179 133.81 43.3179C134.239 43.3179 134.547 43.2355 134.733 43.0708C134.92 42.9061 135.013 42.702 135.013 42.4585C135.013 42.2293 134.918 42.036 134.728 41.8784C134.542 41.7173 134.202 41.5812 133.708 41.4702C133.006 41.3091 132.488 41.0942 132.155 40.8257C131.826 40.5535 131.661 40.1919 131.661 39.7407C131.661 39.4256 131.752 39.1445 131.935 38.8975C132.118 38.6468 132.372 38.4481 132.698 38.3013C133.024 38.1545 133.403 38.0811 133.836 38.0811C134.277 38.0811 134.653 38.1312 134.964 38.2314C135.279 38.3317 135.553 38.466 135.786 38.6343L135.84 39.9609H135.045L134.873 39.1875C134.748 39.0944 134.599 39.0228 134.427 38.9727C134.255 38.9225 134.058 38.8975 133.836 38.8975C133.507 38.8975 133.238 38.9744 133.031 39.1284C132.827 39.2824 132.725 39.4757 132.725 39.7085C132.725 39.8446 132.753 39.9627 132.811 40.063C132.871 40.1632 132.986 40.2546 133.154 40.3369C133.323 40.4157 133.57 40.4945 133.896 40.5732C134.705 40.763 135.269 41.0047 135.587 41.2983C135.91 41.592 136.071 41.9536 136.071 42.3833C136.071 42.8739 135.888 43.2856 135.523 43.6187C135.161 43.9481 134.59 44.1128 133.81 44.1128ZM139.299 44.1128C138.909 44.1128 138.543 44.0734 138.203 43.9946C137.863 43.9159 137.501 43.7941 137.118 43.6294L137.107 42.249H137.908L138.106 43.0815C138.486 43.2391 138.883 43.3179 139.299 43.3179C139.729 43.3179 140.036 43.2355 140.223 43.0708C140.409 42.9061 140.502 42.702 140.502 42.4585C140.502 42.2293 140.407 42.036 140.217 41.8784C140.031 41.7173 139.691 41.5812 139.197 41.4702C138.495 41.3091 137.978 41.0942 137.645 40.8257C137.315 40.5535 137.15 40.1919 137.15 39.7407C137.15 39.4256 137.242 39.1445 137.424 38.8975C137.607 38.6468 137.861 38.4481 138.187 38.3013C138.513 38.1545 138.892 38.0811 139.326 38.0811C139.766 38.0811 140.142 38.1312 140.454 38.2314C140.769 38.3317 141.043 38.466 141.275 38.6343L141.329 39.9609H140.534L140.362 39.1875C140.237 39.0944 140.088 39.0228 139.917 38.9727C139.745 38.9225 139.548 38.8975 139.326 38.8975C138.996 38.8975 138.728 38.9744 138.52 39.1284C138.316 39.2824 138.214 39.4757 138.214 39.7085C138.214 39.8446 138.243 39.9627 138.3 40.063C138.361 40.1632 138.475 40.2546 138.644 40.3369C138.812 40.4157 139.059 40.4945 139.385 40.5732C140.194 40.763 140.758 41.0047 141.077 41.2983C141.399 41.592 141.56 41.9536 141.56 42.3833C141.56 42.8739 141.377 43.2856 141.012 43.6187C140.651 43.9481 140.079 44.1128 139.299 44.1128ZM142.398 44V43.3232L143.273 43.1729V39.021L142.398 38.8706V38.1885H144.332V43.1729L145.207 43.3232V44H142.398ZM143.22 36.7544V35.6211H144.332V36.7544H143.22ZM148.564 44.1128C148.027 44.1128 147.563 43.9875 147.173 43.7368C146.786 43.4826 146.487 43.1335 146.276 42.6895C146.065 42.2419 145.959 41.7316 145.959 41.1587V41.0405C145.959 40.4676 146.065 39.9591 146.276 39.5151C146.487 39.0675 146.786 38.7166 147.173 38.4624C147.563 38.2082 148.023 38.0811 148.553 38.0811C149.09 38.0811 149.552 38.2082 149.939 38.4624C150.329 38.7166 150.63 39.0658 150.841 39.5098C151.053 39.9538 151.158 40.464 151.158 41.0405V41.1587C151.158 41.7352 151.053 42.2472 150.841 42.6948C150.63 43.1388 150.331 43.4862 149.944 43.7368C149.558 43.9875 149.097 44.1128 148.564 44.1128ZM148.564 43.2856C149.065 43.2856 149.447 43.0851 149.708 42.6841C149.969 42.283 150.1 41.7746 150.1 41.1587V41.0405C150.1 40.6323 150.041 40.2689 149.923 39.9502C149.808 39.6279 149.636 39.3755 149.407 39.1929C149.178 39.0067 148.893 38.9136 148.553 38.9136C148.217 38.9136 147.934 39.0067 147.705 39.1929C147.475 39.3755 147.304 39.6279 147.189 39.9502C147.074 40.2689 147.017 40.6323 147.017 41.0405V41.1587C147.017 41.7746 147.146 42.283 147.404 42.6841C147.665 43.0851 148.052 43.2856 148.564 43.2856ZM151.975 44V43.3232L152.85 43.1729V39.021L151.975 38.8706V38.1885H153.795L153.871 39.0532C154.064 38.7453 154.306 38.5072 154.596 38.3389C154.889 38.167 155.222 38.0811 155.595 38.0811C156.221 38.0811 156.707 38.2655 157.05 38.6343C157.394 38.9995 157.566 39.5653 157.566 40.3315V43.1729L158.441 43.3232V44H155.632V43.3232L156.508 43.1729V40.353C156.508 39.841 156.406 39.4775 156.202 39.2627C156.001 39.0479 155.693 38.9404 155.278 38.9404C154.973 38.9404 154.703 39.0138 154.467 39.1606C154.234 39.3075 154.048 39.508 153.908 39.7622V43.1729L154.784 43.3232V44H151.975ZM161.073 44.1128C160.468 44.1128 160.008 43.966 159.693 43.6724C159.378 43.3752 159.22 42.958 159.22 42.4209C159.22 41.8695 159.446 41.4272 159.897 41.0942C160.348 40.7576 160.975 40.5894 161.777 40.5894H162.813V40.02C162.813 39.6691 162.706 39.397 162.491 39.2036C162.28 39.0103 161.981 38.9136 161.594 38.9136C161.351 38.9136 161.139 38.944 160.96 39.0049C160.781 39.0622 160.618 39.1427 160.472 39.2466L160.359 40.0576H159.542V38.7256C160.069 38.2959 160.758 38.0811 161.61 38.0811C162.316 38.0811 162.869 38.2493 163.27 38.5859C163.671 38.9225 163.872 39.4041 163.872 40.0308V42.8291C163.872 42.9043 163.872 42.9777 163.872 43.0493C163.875 43.1209 163.881 43.1925 163.888 43.2642L164.452 43.3232V44H162.932C162.871 43.7064 162.833 43.4396 162.819 43.1997C162.615 43.4611 162.359 43.6795 162.051 43.855C161.746 44.0269 161.421 44.1128 161.073 44.1128ZM161.229 43.2266C161.58 43.2266 161.9 43.1424 162.19 42.9741C162.48 42.8058 162.688 42.6035 162.813 42.3672V41.3145H161.739C161.252 41.3145 160.887 41.4308 160.644 41.6636C160.4 41.8963 160.278 42.1559 160.278 42.4424C160.278 42.9652 160.595 43.2266 161.229 43.2266ZM165.22 44V43.3232L166.095 43.1729V36.4536L165.22 36.3032V35.6211H167.153V43.1729L168.029 43.3232V44H165.22ZM171.574 44V43.3232L172.449 43.1729V37.0122L171.574 36.8618V36.1797H173.518L177.353 42.2759L177.385 42.2651V37.0122L176.424 36.8618V36.1797H179.233V36.8618L178.357 37.0122V44H177.391L173.454 37.8716L173.421 37.8823V43.1729L174.383 43.3232V44H171.574ZM182.724 44.1128C182.187 44.1128 181.72 43.991 181.322 43.7476C180.925 43.5005 180.617 43.1585 180.398 42.7217C180.184 42.2848 180.076 41.7799 180.076 41.207V40.9707C180.076 40.4193 180.189 39.9269 180.415 39.4937C180.644 39.0568 180.946 38.7131 181.322 38.4624C181.702 38.2082 182.115 38.0811 182.563 38.0811C183.344 38.0811 183.934 38.3174 184.335 38.79C184.74 39.2627 184.942 39.8929 184.942 40.6807V41.3413H181.172L181.156 41.3682C181.167 41.9268 181.308 42.3869 181.58 42.7485C181.852 43.1066 182.234 43.2856 182.724 43.2856C183.082 43.2856 183.396 43.2355 183.664 43.1353C183.936 43.0314 184.171 42.89 184.368 42.7109L184.781 43.3984C184.574 43.599 184.298 43.769 183.954 43.9087C183.614 44.0448 183.204 44.1128 182.724 44.1128ZM181.204 40.5142H183.884V40.3745C183.884 39.9591 183.773 39.6118 183.551 39.3325C183.329 39.0532 183 38.9136 182.563 38.9136C182.208 38.9136 181.906 39.064 181.655 39.3647C181.405 39.6619 181.251 40.0361 181.193 40.4873L181.204 40.5142ZM187.821 44.0913C187.392 44.0913 187.05 43.966 186.795 43.7153C186.545 43.4611 186.419 43.0565 186.419 42.5015V38.9727H185.501V38.1885H186.419V36.7866H187.478V38.1885H188.74V38.9727H187.478V42.5015C187.478 42.7808 187.533 42.9867 187.644 43.1191C187.755 43.2516 187.904 43.3179 188.09 43.3179C188.215 43.3179 188.355 43.3071 188.509 43.2856C188.663 43.2606 188.783 43.2391 188.869 43.2212L189.014 43.9141C188.86 43.9606 188.67 44.0018 188.444 44.0376C188.222 44.0734 188.015 44.0913 187.821 44.0913ZM191.753 44L190.222 38.9458L189.572 38.8706V38.1885H191.973V38.8706L191.259 38.9888L192.059 41.8838L192.242 42.5713H192.274L192.51 41.8838L193.772 38.1885H194.664L195.867 41.873L196.125 42.6895H196.157L196.41 41.873L197.221 38.9834L196.49 38.8706V38.1885H198.837V38.8706L198.193 38.9619L196.689 44H195.685L194.508 40.5088L194.229 39.5742L194.197 39.5796L193.923 40.5088L192.661 44H191.753ZM202.006 44.1128C201.469 44.1128 201.006 43.9875 200.615 43.7368C200.229 43.4826 199.93 43.1335 199.718 42.6895C199.507 42.2419 199.401 41.7316 199.401 41.1587V41.0405C199.401 40.4676 199.507 39.9591 199.718 39.5151C199.93 39.0675 200.229 38.7166 200.615 38.4624C201.006 38.2082 201.466 38.0811 201.996 38.0811C202.533 38.0811 202.995 38.2082 203.381 38.4624C203.772 38.7166 204.072 39.0658 204.284 39.5098C204.495 39.9538 204.601 40.464 204.601 41.0405V41.1587C204.601 41.7352 204.495 42.2472 204.284 42.6948C204.072 43.1388 203.773 43.4862 203.387 43.7368C203 43.9875 202.54 44.1128 202.006 44.1128ZM202.006 43.2856C202.508 43.2856 202.889 43.0851 203.15 42.6841C203.412 42.283 203.542 41.7746 203.542 41.1587V41.0405C203.542 40.6323 203.483 40.2689 203.365 39.9502C203.251 39.6279 203.079 39.3755 202.85 39.1929C202.62 39.0067 202.336 38.9136 201.996 38.9136C201.659 38.9136 201.376 39.0067 201.147 39.1929C200.918 39.3755 200.746 39.6279 200.631 39.9502C200.517 40.2689 200.459 40.6323 200.459 41.0405V41.1587C200.459 41.7746 200.588 42.283 200.846 42.6841C201.108 43.0851 201.494 43.2856 202.006 43.2856ZM205.406 44V43.3232L206.282 43.1729V39.021L205.406 38.8706V38.1885H207.227L207.318 38.9297L207.329 39.0317C207.494 38.7345 207.696 38.5018 207.936 38.3335C208.18 38.1652 208.457 38.0811 208.769 38.0811C208.88 38.0811 208.992 38.0918 209.107 38.1133C209.225 38.1312 209.309 38.1491 209.359 38.167L209.22 39.1499L208.484 39.1069C208.205 39.089 207.97 39.1535 207.78 39.3003C207.59 39.4435 207.444 39.6369 207.34 39.8804V43.1729L208.215 43.3232V44H205.406ZM209.843 44V43.3232L210.718 43.1729V36.4536L209.843 36.3032V35.6211H211.776V41.019L213.833 38.9727L213.86 38.9404L213.237 38.8706V38.1885H215.74V38.8706L214.994 39.0103L213.361 40.6538L215.364 43.1943L216.202 43.3232V44H213.576V43.3232L214.167 43.2534L214.15 43.2319L212.679 41.3359L211.776 42.2437V43.1729L212.652 43.3232V44H209.843Z" fill="black"/>
<path d="M244.897 32.3898H69.8566C67.6344 32.3898 65.754 30.5841 65.754 28.327V4.06283C65.754 1.86213 67.5774 0 69.8566 0H244.897C247.119 0 249 1.8057 249 4.06283V28.327C249 30.5841 247.176 32.3898 244.897 32.3898Z" fill="#0069D1"/>
<path d="M90.3538 27.9328H83.6302C83.0034 27.9328 82.7185 27.6507 82.7185 27.0299V8.5779C82.7185 7.95718 83.0034 7.67505 83.6302 7.67505H90.3538C91.3224 7.67505 92.2341 8.07005 92.9748 8.80361C93.7725 9.53718 94.1144 10.44 94.1144 11.3993V14.785C94.1144 15.6314 93.8295 16.365 93.3167 17.0421L92.6899 17.8321L93.3737 18.6221C93.8865 19.2993 94.1714 20.0328 94.1714 20.8793V24.265C94.1714 25.2807 93.7725 26.1271 93.0318 26.8607C92.2341 27.5942 91.3794 27.9328 90.3538 27.9328ZM86.4792 15.9136H90.3538V11.3993H86.4792V15.9136ZM86.4792 24.2085H90.3538V19.6943H86.4792V24.2085Z" fill="white"/>
<path d="M104.427 27.9323H99.5842C98.6156 27.9323 97.7609 27.5938 97.0202 26.8602C96.3364 26.1831 95.9376 25.3366 95.9376 24.3209V8.52102C95.9376 7.90031 96.2225 7.61816 96.8492 7.61816H98.7865C99.4133 7.61816 99.6982 7.90031 99.6982 8.52102V24.1516H104.371C104.997 24.1516 105.282 24.4902 105.282 25.0545V26.9166C105.339 27.6502 105.054 27.9323 104.427 27.9323Z" fill="white"/>
<path d="M115.14 27.9328H110.98C109.955 27.9328 109.1 27.5378 108.302 26.8042C107.562 26.0707 107.163 25.1678 107.163 24.2085V8.5779C107.163 7.95718 107.448 7.67505 108.074 7.67505H109.955C110.581 7.67505 110.866 7.95718 110.866 8.5779V24.2085H115.083V8.5779C115.083 7.95718 115.368 7.67505 115.994 7.67505H117.932C118.559 7.67505 118.843 7.95718 118.843 8.5779V24.2085C118.843 25.2242 118.445 26.0707 117.704 26.8607C117.02 27.5942 116.165 27.9328 115.14 27.9328Z" fill="white"/>
<path d="M129.727 27.9323H124.37C123.402 27.9323 122.547 27.5938 121.806 26.8602C121.123 26.1831 120.724 25.3366 120.724 24.3209V8.52102C120.724 7.90031 121.009 7.61816 121.635 7.61816H129.556C130.182 7.61816 130.467 7.90031 130.467 8.52102V10.4396C130.467 11.0603 130.182 11.3424 129.556 11.3424H124.484V15.8567H128.701C129.328 15.8567 129.613 16.1388 129.613 16.7595V18.6781C129.613 19.2988 129.271 19.581 128.701 19.581H124.484V24.0952H129.613C130.239 24.0952 130.524 24.4338 130.524 24.9981V26.8602C130.695 27.6502 130.353 27.9323 129.727 27.9323Z" fill="white"/>
<path d="M152.29 27.9328H150.353C149.726 27.9328 149.441 27.6507 149.441 27.0299V16.5343L146.991 21.7257C146.82 22.0643 146.535 22.2335 146.137 22.2335C145.738 22.2335 145.453 22.0643 145.282 21.7257L142.832 16.5343V27.0299C142.832 27.6507 142.49 27.9328 141.92 27.9328H139.983C139.356 27.9328 139.071 27.6507 139.071 27.0299V8.5779C139.071 7.95718 139.356 7.67505 139.983 7.67505H142.262C142.661 7.67505 142.946 7.84433 143.117 8.23933L146.137 14.6722L149.214 8.23933C149.384 7.90076 149.669 7.67505 150.068 7.67505H152.347C152.974 7.67505 153.259 7.95718 153.259 8.5779V27.0299C153.202 27.6507 152.917 27.9328 152.29 27.9328Z" fill="white"/>
<path d="M163.116 27.9323H158.786C157.76 27.9323 156.906 27.5374 156.165 26.8038C155.424 26.0702 155.025 25.1674 155.025 24.2081V11.3424C155.025 10.3267 155.424 9.4803 156.165 8.74673C156.906 8.01316 157.817 7.61816 158.786 7.61816H163.116C164.142 7.61816 164.997 8.01316 165.794 8.74673C166.592 9.4803 166.934 10.3832 166.934 11.3424V24.1516C166.934 25.1674 166.535 26.0138 165.794 26.7474C164.997 27.5938 164.142 27.9323 163.116 27.9323ZM163.116 24.2081V11.3989H158.786V24.2081H163.116Z" fill="white"/>
<path d="M176.735 27.9328H172.575C171.549 27.9328 170.695 27.5378 169.897 26.8042C169.156 26.0707 168.757 25.1678 168.757 24.2085V8.5779C168.757 7.95718 169.042 7.67505 169.669 7.67505H171.549C172.176 7.67505 172.461 7.95718 172.461 8.5779V24.2085H176.678V8.5779C176.678 7.95718 176.962 7.67505 177.589 7.67505H179.526C180.153 7.67505 180.438 7.95718 180.438 8.5779V24.2085C180.438 25.2242 180.039 26.0707 179.299 26.8607C178.615 27.5942 177.703 27.9328 176.735 27.9328Z" fill="white"/>
<path d="M190.068 27.3685L186.193 17.3243V27.0299C186.193 27.6507 185.908 27.9328 185.282 27.9328H183.401C182.774 27.9328 182.49 27.6507 182.49 27.0299V8.5779C182.49 7.95718 182.774 7.67505 183.401 7.67505H185.851C186.25 7.67505 186.535 7.90076 186.706 8.29575L190.638 18.34V8.63433C190.638 8.01362 190.923 7.73147 191.549 7.73147H193.43C194.056 7.73147 194.341 8.01362 194.341 8.63433V27.0299C194.341 27.6507 194.056 27.9328 193.43 27.9328H190.979C190.524 27.9328 190.239 27.7635 190.068 27.3685Z" fill="white"/>
<path d="M206.535 11.3993H203.743V27.0299C203.743 27.6507 203.458 27.9328 202.831 27.9328H200.894C200.267 27.9328 199.982 27.6507 199.982 27.0299V11.3993H197.19C196.563 11.3993 196.279 11.1172 196.279 10.4965V8.5779C196.279 7.95718 196.563 7.67505 197.19 7.67505H206.649C207.276 7.67505 207.56 7.95718 207.56 8.5779V10.4965C207.503 11.1172 207.162 11.3993 206.535 11.3993Z" fill="white"/>
<path d="M215.082 27.1988L214.341 23.4181H210.353L209.612 27.1988C209.498 27.7066 209.213 27.9323 208.7 27.9323H206.763C206.478 27.9323 206.193 27.8195 206.022 27.5938C205.851 27.3681 205.737 27.1424 205.851 26.8038L209.555 8.35173C209.669 7.84388 209.954 7.61816 210.467 7.61816H214.227C214.74 7.61816 215.025 7.84388 215.139 8.35173L218.842 26.8038C218.899 27.0859 218.842 27.3681 218.672 27.5938C218.501 27.8195 218.216 27.9323 217.931 27.9323H215.993C215.481 27.9323 215.196 27.7066 215.082 27.1988ZM213.6 19.6938L212.347 13.5996L211.093 19.6938H213.6Z" fill="white"/>
<path d="M223.629 27.9328H221.691C221.065 27.9328 220.78 27.6507 220.78 27.0299V8.5779C220.78 7.95718 221.065 7.67505 221.691 7.67505H223.629C224.255 7.67505 224.54 7.95718 224.54 8.5779V27.0299C224.597 27.6507 224.255 27.9328 223.629 27.9328Z" fill="white"/>
<path d="M234.056 27.3685L230.181 17.3243V27.0299C230.181 27.6507 229.896 27.9328 229.27 27.9328H227.389C226.762 27.9328 226.478 27.6507 226.478 27.0299V8.5779C226.478 7.95718 226.762 7.67505 227.389 7.67505H229.839C230.238 7.67505 230.523 7.90076 230.694 8.29575L234.626 18.34V8.63433C234.626 8.01362 234.91 7.73147 235.537 7.73147H237.418C238.044 7.73147 238.329 8.01362 238.329 8.63433V27.0299C238.329 27.6507 238.044 27.9328 237.418 27.9328H234.967C234.512 27.9328 234.227 27.7635 234.056 27.3685Z" fill="white"/>
<path d="M67.7485 32.3898H4.10252C1.88032 32.3898 0 30.5841 0 28.327V4.06283C0 1.86213 1.82334 0 4.10252 0H67.8055C70.0277 0 71.908 1.8057 71.908 4.06283V28.327C71.851 30.5841 70.0277 32.3898 67.7485 32.3898Z" fill="white"/>
<path d="M51.0535 27.9318H10.1992C9.91433 27.9318 9.80037 27.5932 9.97131 27.424L30.4269 7.10979C30.5409 6.99693 30.7118 6.99693 30.8258 7.10979L51.2814 27.424C51.4523 27.6497 51.3383 27.9318 51.0535 27.9318Z" fill="#0069D1"/>
<path d="M42.2219 15.7999L46.8373 11.2292C46.9512 11.1163 47.1222 11.1163 47.2361 11.2292L63.6462 27.4805C63.8171 27.6498 63.7032 27.9884 63.4183 27.9884H54.4155" fill="#DD071C"/>
</svg>
