<svg width="187" height="37" viewBox="0 0 187 37" fill="none" xmlns="http://www.w3.org/2000/svg">
<rect x="62.0391" y="23.6695" width="116.481" height="13.0805" rx="2" fill="#E5CE00" fill-opacity="0.95"/>
<path d="M73.942 33.0766C73.7545 33.0766 73.6607 33.024 73.6607 32.919C73.6607 32.8367 73.7127 32.7955 73.8165 32.7955L74.0286 32.8168C74.2017 32.8168 74.3171 32.7217 74.3748 32.5315C74.4267 32.3697 74.4527 32.0802 74.4527 31.6629V27.6817H74.3358C73.831 27.6817 73.4285 27.7328 73.1285 27.835C72.9207 27.9088 72.7794 28.0351 72.7044 28.2139C72.6495 28.3445 72.5918 28.4098 72.5313 28.4098C72.4476 28.4098 72.4058 28.3616 72.4058 28.265C72.4058 28.2367 72.4115 28.204 72.4231 28.1671C72.4375 28.1302 72.4534 28.0862 72.4707 28.0351C72.5168 27.8989 72.5442 27.7569 72.5529 27.6093C72.5616 27.4617 72.5774 27.3638 72.6005 27.3155C72.6265 27.2644 72.6611 27.2389 72.7044 27.2389C72.7476 27.2389 72.7866 27.2431 72.8212 27.2516C72.8558 27.2573 72.9063 27.2644 72.9727 27.2729C73.1458 27.2956 73.3636 27.307 73.6261 27.307H76.3697C76.5832 27.307 76.7376 27.2956 76.8328 27.2729C76.9309 27.2502 77.0016 27.2389 77.0448 27.2389C77.14 27.2389 77.1876 27.2829 77.1876 27.3709C77.1876 27.4163 77.179 27.4702 77.1617 27.5327C77.1184 27.6718 77.0896 27.7924 77.0751 27.8946C77.0636 27.994 77.0521 28.0763 77.0405 28.1416C77.029 28.204 77.016 28.2537 77.0016 28.2906C76.9785 28.353 76.9439 28.3843 76.8977 28.3843C76.8515 28.3843 76.8213 28.3687 76.8068 28.3374C76.7953 28.3034 76.7823 28.2395 76.7679 28.1458C76.7535 28.0521 76.7289 27.9755 76.6943 27.9159C76.6597 27.8563 76.6135 27.8094 76.5558 27.7754C76.4549 27.7129 76.2904 27.6817 76.0625 27.6817H75.1321V31.6629C75.1321 32.0915 75.1508 32.3683 75.1883 32.4932C75.2287 32.6153 75.2763 32.7004 75.3311 32.7487C75.3888 32.7941 75.4639 32.8168 75.5562 32.8168L75.7639 32.7955C75.8678 32.7955 75.9197 32.8367 75.9197 32.919C75.9197 33.024 75.8274 33.0766 75.6427 33.0766C75.5475 33.0766 75.4465 33.068 75.3398 33.051C74.9936 32.9971 74.6964 32.9871 74.4483 33.0212C74.2031 33.0581 74.0343 33.0766 73.942 33.0766Z" fill="#031928"/>
<path d="M78.0099 33.0766C77.8195 33.0766 77.7243 33.024 77.7243 32.919C77.7243 32.8367 77.7776 32.7955 77.8844 32.7955L78.1007 32.8168C78.1671 32.8168 78.2219 32.8055 78.2652 32.7828C78.3085 32.7572 78.3416 32.7047 78.3647 32.6252C78.4109 32.4804 78.434 32.1597 78.434 31.6629V28.3161C78.434 28.0465 78.4123 27.8719 78.3691 27.7924C78.3258 27.7101 78.2796 27.6547 78.2306 27.6263C78.1815 27.598 78.1022 27.5753 77.9926 27.5582C77.8858 27.5412 77.8324 27.4972 77.8324 27.4262C77.8324 27.3609 77.906 27.3141 78.0531 27.2857C78.3965 27.2147 78.633 27.1438 78.7629 27.0728C78.9388 26.9735 79.0586 26.9238 79.122 26.9238C79.1884 26.9238 79.2216 26.9564 79.2216 27.0217C79.2216 27.0529 79.2158 27.0856 79.2043 27.1196C79.1437 27.2729 79.1119 27.4674 79.1091 27.703C79.1062 27.9386 79.1047 28.1316 79.1047 28.2821V29.9427C79.3442 29.4913 79.6832 29.1975 80.1217 29.0613C80.2602 29.0187 80.3986 28.9974 80.5371 28.9974C80.9583 28.9974 81.2843 29.1181 81.5151 29.3593C81.7459 29.6006 81.8613 29.9768 81.8613 30.4877V31.6629C81.8613 32.1597 81.8787 32.4648 81.9133 32.5784C81.9479 32.6891 81.9868 32.7572 82.0301 32.7828C82.0734 32.8055 82.1282 32.8168 82.1946 32.8168L82.4109 32.7955C82.5177 32.7955 82.571 32.8367 82.571 32.919C82.571 33.024 82.4744 33.0766 82.2811 33.0766C82.1715 33.0766 82.0546 33.0652 81.9306 33.0425C81.8065 33.0226 81.6724 33.0127 81.5281 33.0127C81.3868 33.0127 81.2512 33.0226 81.1213 33.0425C80.9944 33.0652 80.8761 33.0766 80.7665 33.0766C80.5732 33.0766 80.4765 33.024 80.4765 32.919C80.4765 32.8367 80.5299 32.7955 80.6367 32.7955L80.853 32.8168C80.9194 32.8168 80.9742 32.8055 81.0175 32.7828C81.0608 32.7572 81.0954 32.7047 81.1213 32.6252C81.1675 32.4833 81.1906 32.1625 81.1906 31.6629V30.6921C81.1906 29.8831 80.8877 29.4786 80.2818 29.4786C79.8433 29.4786 79.5101 29.7028 79.2822 30.1513C79.2014 30.3075 79.1422 30.492 79.1047 30.7049V31.6629C79.1047 32.1597 79.122 32.4648 79.1567 32.5784C79.1913 32.6891 79.2302 32.7572 79.2735 32.7828C79.3168 32.8055 79.3716 32.8168 79.4379 32.8168L79.6543 32.7955C79.7611 32.7955 79.8144 32.8367 79.8144 32.919C79.8144 33.024 79.7192 33.0766 79.5288 33.0766C79.4192 33.0766 79.3052 33.0652 79.1869 33.0425C79.0687 33.0226 78.9331 33.0127 78.7802 33.0127C78.6273 33.0127 78.4873 33.0226 78.3604 33.0425C78.2363 33.0652 78.1195 33.0766 78.0099 33.0766Z" fill="#031928"/>
<path d="M83.5664 32.5358C83.399 32.3513 83.2692 32.1341 83.1769 31.8843C83.0875 31.6345 83.0427 31.3578 83.0427 31.054C83.0427 30.7474 83.0961 30.4664 83.2029 30.2109C83.3096 29.9555 83.4567 29.7369 83.6443 29.5552C84.0337 29.1777 84.5141 28.9889 85.0853 28.9889C85.5585 28.9889 85.9407 29.1422 86.2321 29.4488C86.5091 29.744 86.6476 30.1087 86.6476 30.5431C86.6476 30.685 86.6274 30.7829 86.587 30.8369C86.5495 30.888 86.5019 30.9192 86.4442 30.9305C86.3865 30.9391 86.3071 30.9476 86.2061 30.9561C86.1052 30.9618 85.9826 30.9689 85.8383 30.9774C85.6941 30.9859 85.5325 30.9944 85.3536 31.0029C85.1776 31.0114 84.9973 31.0214 84.8127 31.0327C84.3886 31.0583 84.0482 31.0838 83.7914 31.1094C83.8549 31.873 84.152 32.3683 84.6829 32.5954C84.856 32.6692 85.0406 32.7061 85.2368 32.7061C85.6522 32.7061 85.9811 32.5869 86.2235 32.3484C86.3273 32.2463 86.4067 32.1952 86.4615 32.1952C86.5653 32.1952 86.6173 32.2562 86.6173 32.3783C86.6173 32.4407 86.574 32.5159 86.4874 32.6039C86.4009 32.6919 86.2768 32.7828 86.1153 32.8764C85.8297 33.0382 85.4964 33.1191 85.1156 33.1191C84.7348 33.1191 84.4232 33.068 84.1809 32.9659C83.9414 32.8608 83.7366 32.7175 83.5664 32.5358ZM83.7827 30.7943C85.1358 30.7262 85.8484 30.6538 85.9205 30.5771C85.9465 30.5487 85.9595 30.465 85.9595 30.3259C85.9595 30.1868 85.9321 30.052 85.8773 29.9214C85.8224 29.788 85.7489 29.6744 85.6566 29.5808C85.4661 29.3906 85.2296 29.2955 84.9468 29.2955C84.6266 29.2955 84.3569 29.4275 84.1376 29.6915C83.9068 29.9668 83.7885 30.3344 83.7827 30.7943Z" fill="#031928"/>
<path d="M95.1554 28.5376C95.1554 28.6483 95.1165 28.7036 95.0386 28.7036C94.9693 28.7036 94.9116 28.6355 94.8655 28.4992C94.8222 28.3601 94.7385 28.2296 94.6145 28.1075C94.4904 27.9854 94.3418 27.8832 94.1687 27.8009C93.8081 27.6278 93.4201 27.5412 93.0046 27.5412C92.5921 27.5412 92.2343 27.5965 91.9314 27.7073C91.6314 27.8151 91.3732 27.9712 91.1568 28.1756C90.7067 28.6099 90.4817 29.1961 90.4817 29.9342C90.4817 30.7517 90.7356 31.4259 91.2434 31.9567C91.7482 32.4847 92.3945 32.7487 93.1821 32.7487C94.0591 32.7487 94.7371 32.3527 95.216 31.5607C95.2477 31.5096 95.2809 31.4812 95.3155 31.4756C95.3473 31.4756 95.379 31.5096 95.4107 31.5778C95.4425 31.6459 95.4583 31.7225 95.4583 31.8077C95.4583 31.9496 95.3357 32.1341 95.0905 32.3612C94.8453 32.5883 94.5467 32.7714 94.1947 32.9105C93.8456 33.0496 93.4374 33.1191 92.97 33.1191C92.5055 33.1191 92.0641 33.0453 91.6458 32.8977C91.2304 32.7473 90.877 32.5429 90.5856 32.2846C89.974 31.7452 89.6681 31.0711 89.6681 30.262C89.6681 29.348 89.9768 28.6099 90.5942 28.0479C91.2116 27.483 92.0237 27.2006 93.0306 27.2006C93.7576 27.2006 94.3591 27.2956 94.8352 27.4858C94.9275 27.5256 94.9881 27.5639 95.0169 27.6008C95.0746 27.6803 95.1078 27.7995 95.1165 27.9585C95.128 28.1146 95.1352 28.2225 95.1381 28.2821C95.1496 28.4212 95.1554 28.5063 95.1554 28.5376Z" fill="#031928"/>
<path d="M96.0036 31.1221C96.0036 30.8468 96.0541 30.58 96.1551 30.3216C96.256 30.0633 96.3988 29.8362 96.5835 29.6404C96.9874 29.2117 97.4908 28.9974 98.0938 28.9974C98.7631 28.9974 99.2781 29.1947 99.6387 29.5893C99.9647 29.9469 100.128 30.4111 100.128 30.9816C100.128 31.5579 99.933 32.0561 99.5435 32.4762C99.1454 32.9048 98.6434 33.1191 98.0375 33.1191C97.3682 33.1191 96.8547 32.9219 96.4969 32.5273C96.168 32.1696 96.0036 31.7012 96.0036 31.1221ZM96.7349 30.9433C96.7349 31.2215 96.7739 31.4812 96.8518 31.7225C96.9297 31.9638 97.0364 32.1639 97.172 32.3229C97.4403 32.6465 97.7793 32.8083 98.189 32.8083C98.5525 32.8083 98.8482 32.6664 99.0761 32.3825C99.3127 32.0873 99.431 31.7069 99.431 31.2414C99.431 30.6254 99.2867 30.1428 98.9982 29.7937C98.727 29.4729 98.3866 29.3125 97.9769 29.3125C97.6134 29.3125 97.3177 29.4544 97.0898 29.7383C96.8532 30.0335 96.7349 30.4352 96.7349 30.9433Z" fill="#031928"/>
<path d="M100.959 33.0766C100.768 33.0766 100.673 33.024 100.673 32.919C100.673 32.8367 100.726 32.7955 100.833 32.7955L101.062 32.8168C101.129 32.8168 101.184 32.8055 101.227 32.7828C101.27 32.7572 101.303 32.7047 101.326 32.6252C101.373 32.4804 101.396 32.1597 101.396 31.6629V30.3898C101.396 30.1031 101.375 29.9242 101.335 29.8533C101.298 29.7795 101.251 29.7298 101.197 29.7042C101.142 29.6759 101.057 29.6531 100.941 29.6361C100.826 29.6162 100.768 29.5708 100.768 29.4999C100.768 29.4346 100.842 29.3877 100.989 29.3593C101.361 29.2827 101.609 29.2103 101.733 29.1422C101.903 29.0457 102.02 28.9974 102.084 28.9974C102.15 28.9974 102.183 29.0301 102.183 29.0954C102.183 29.1266 102.177 29.1592 102.166 29.1933C102.111 29.3295 102.079 29.5495 102.071 29.8533C102.235 29.5779 102.44 29.3664 102.685 29.2188C102.933 29.0712 103.177 28.9974 103.417 28.9974C103.659 28.9974 103.864 29.0272 104.031 29.0868C104.198 29.1464 104.341 29.2373 104.46 29.3593C104.702 29.6148 104.823 29.9909 104.823 30.4877V31.6629C104.823 32.1597 104.84 32.4648 104.875 32.5784C104.91 32.6891 104.949 32.7572 104.992 32.7828C105.035 32.8055 105.09 32.8168 105.156 32.8168L105.381 32.7955C105.488 32.7955 105.541 32.8367 105.541 32.919C105.541 33.024 105.445 33.0766 105.251 33.0766C105.139 33.0766 105.019 33.0652 104.892 33.0425C104.768 33.0226 104.634 33.0127 104.49 33.0127C104.348 33.0127 104.213 33.0226 104.083 33.0425C103.953 33.0652 103.832 33.0766 103.72 33.0766C103.526 33.0766 103.43 33.024 103.43 32.919C103.43 32.8367 103.483 32.7955 103.59 32.7955L103.815 32.8168C103.881 32.8168 103.936 32.8055 103.979 32.7828C104.022 32.7572 104.057 32.7047 104.083 32.6252C104.129 32.4833 104.152 32.1625 104.152 31.6629V30.6921C104.152 29.8802 103.852 29.4743 103.252 29.4743C102.828 29.4743 102.498 29.6631 102.261 30.0406C102.177 30.1797 102.113 30.35 102.066 30.5516V31.6629C102.066 32.1597 102.084 32.4648 102.118 32.5784C102.153 32.6891 102.192 32.7572 102.235 32.7828C102.278 32.8055 102.333 32.8168 102.4 32.8168L102.629 32.7955C102.736 32.7955 102.789 32.8367 102.789 32.919C102.789 33.024 102.694 33.0766 102.503 33.0766C102.394 33.0766 102.277 33.0652 102.153 33.0425C102.032 33.0226 101.895 33.0127 101.742 33.0127C101.589 33.0127 101.448 33.0226 101.318 33.0425C101.191 33.0652 101.071 33.0766 100.959 33.0766Z" fill="#031928"/>
<path d="M106.411 32.7828C106.279 32.6891 106.175 32.5869 106.1 32.4762C106.025 32.3626 105.987 32.2746 105.987 32.2122C105.987 32.1469 105.996 32.0986 106.013 32.0674C106.033 32.0334 106.059 32.0021 106.091 31.9737C106.166 31.9028 106.238 31.8673 106.307 31.8673C106.379 31.8673 106.434 31.8843 106.472 31.9184C106.509 31.9496 106.544 32.0135 106.576 32.11C106.61 32.2037 106.658 32.2945 106.718 32.3825C106.782 32.4705 106.857 32.5472 106.944 32.6124C107.131 32.7515 107.36 32.8211 107.632 32.8211C107.871 32.8211 108.074 32.7629 108.242 32.6465C108.418 32.5273 108.506 32.3783 108.506 32.1994C108.506 32.0177 108.426 31.8588 108.268 31.7225C108.098 31.5778 107.845 31.4401 107.51 31.3095C107.176 31.1761 106.938 31.064 106.796 30.9731C106.655 30.8823 106.54 30.7858 106.45 30.6836C106.28 30.4877 106.195 30.2635 106.195 30.0108C106.195 29.7213 106.328 29.48 106.593 29.287C106.861 29.0939 107.197 28.9974 107.601 28.9974C107.95 28.9974 108.245 29.0698 108.484 29.2146C108.692 29.3423 108.796 29.4772 108.796 29.6191C108.796 29.6929 108.757 29.7568 108.679 29.8107C108.604 29.8618 108.532 29.8873 108.462 29.8873C108.396 29.8873 108.344 29.8746 108.307 29.849C108.269 29.8206 108.213 29.7497 108.138 29.6361C107.991 29.4119 107.767 29.2997 107.467 29.2997C107.13 29.2997 106.906 29.3991 106.796 29.5978C106.765 29.6546 106.749 29.7156 106.749 29.7809C106.749 29.8462 106.762 29.91 106.788 29.9725C106.817 30.0321 106.868 30.0946 106.944 30.1598C107.102 30.2904 107.394 30.4423 107.818 30.6154C108.649 30.9532 109.064 31.3861 109.064 31.9141C109.064 32.269 108.918 32.5585 108.627 32.7828C108.333 33.007 107.955 33.1191 107.493 33.1191C107.083 33.1191 106.723 33.007 106.411 32.7828Z" fill="#031928"/>
<path d="M114.118 32.4506C114.202 32.4506 114.244 32.4875 114.244 32.5613C114.244 32.6011 114.225 32.6352 114.188 32.6635C114.153 32.6919 114.098 32.7217 114.023 32.753C113.948 32.7813 113.889 32.8055 113.846 32.8253C113.803 32.8452 113.762 32.8651 113.725 32.885C113.664 32.9162 113.598 32.9559 113.526 33.0042C113.404 33.0808 113.321 33.1191 113.275 33.1191C113.231 33.1191 113.191 33.1078 113.153 33.0851C113.119 33.0652 113.083 33.0269 113.045 32.9701C112.959 32.8367 112.913 32.6408 112.907 32.3825C112.662 32.7231 112.347 32.9403 111.963 33.034C111.845 33.0624 111.707 33.0766 111.548 33.0766C111.389 33.0766 111.225 33.051 111.055 32.9999C110.887 32.946 110.743 32.8594 110.622 32.7402C110.362 32.4932 110.232 32.1185 110.232 31.6161V30.3898C110.232 30.1173 110.215 29.9399 110.18 29.8575C110.149 29.7752 110.113 29.7199 110.072 29.6915C110.035 29.6631 109.984 29.6432 109.921 29.6319C109.791 29.6035 109.726 29.5566 109.726 29.4913C109.726 29.4204 109.8 29.3707 109.947 29.3423C110.273 29.277 110.489 29.2132 110.596 29.1507C110.749 29.0655 110.854 29.023 110.912 29.023C110.97 29.023 110.998 29.0556 110.998 29.1209C110.998 29.1521 110.991 29.1848 110.977 29.2188C110.919 29.3721 110.889 29.5623 110.886 29.7894C110.883 30.0165 110.882 30.2053 110.882 30.3557V31.4458C110.882 32.0362 111.075 32.3967 111.461 32.5273C111.577 32.5642 111.691 32.5826 111.803 32.5826C111.916 32.5826 112.021 32.5699 112.119 32.5443C112.22 32.5159 112.318 32.4733 112.413 32.4166C112.618 32.2888 112.781 32.1015 112.902 31.8545L112.915 30.2961C112.915 30.0548 112.894 29.9001 112.851 29.832C112.807 29.761 112.76 29.7142 112.708 29.6915C112.656 29.6688 112.574 29.6489 112.461 29.6319C112.351 29.6148 112.297 29.5694 112.297 29.4956C112.297 29.4303 112.366 29.3835 112.504 29.3551C112.646 29.3267 112.776 29.2926 112.894 29.2529C113.012 29.2103 113.116 29.1706 113.205 29.1337C113.298 29.0968 113.373 29.0655 113.43 29.04C113.491 29.0116 113.533 28.9974 113.556 28.9974C113.622 28.9974 113.655 29.0301 113.655 29.0954C113.655 29.1266 113.648 29.1592 113.634 29.1933C113.576 29.3466 113.546 29.541 113.543 29.7766C113.54 30.0122 113.539 30.2053 113.539 30.3557V31.9525C113.539 32.171 113.557 32.3101 113.595 32.3697C113.653 32.4634 113.735 32.5102 113.842 32.5102L114.118 32.4506Z" fill="#031928"/>
<path d="M115.001 33.0766C114.811 33.0766 114.716 33.024 114.716 32.919C114.716 32.8367 114.769 32.7955 114.876 32.7955L115.092 32.8168C115.159 32.8168 115.213 32.8055 115.257 32.7828C115.3 32.7572 115.333 32.7047 115.356 32.6252C115.402 32.4804 115.425 32.1597 115.425 31.6629V28.4907C115.425 28.0195 115.326 27.7697 115.127 27.7413C114.983 27.7186 114.91 27.6718 114.91 27.6008C114.91 27.5355 114.978 27.4901 115.114 27.4645C115.249 27.4362 115.372 27.4021 115.482 27.3624C115.591 27.3198 115.688 27.28 115.772 27.2431C115.855 27.2034 115.926 27.1693 115.984 27.1409C116.044 27.1126 116.088 27.0984 116.113 27.0984C116.18 27.0984 116.213 27.131 116.213 27.1963C116.213 27.2275 116.207 27.2602 116.196 27.2942C116.135 27.4475 116.103 27.642 116.1 27.8776C116.098 28.1132 116.096 28.3062 116.096 28.4567V31.6629C116.096 32.1597 116.113 32.4648 116.148 32.5784C116.183 32.6891 116.222 32.7572 116.265 32.7828C116.308 32.8055 116.363 32.8168 116.429 32.8168L116.646 32.7955C116.752 32.7955 116.806 32.8367 116.806 32.919C116.806 33.024 116.711 33.0766 116.52 33.0766C116.411 33.0766 116.297 33.0652 116.178 33.0425C116.06 33.0226 115.925 33.0127 115.772 33.0127C115.619 33.0127 115.479 33.0226 115.352 33.0425C115.228 33.0652 115.111 33.0766 115.001 33.0766Z" fill="#031928"/>
<path d="M119.805 29.419C119.805 29.4956 119.759 29.5339 119.666 29.5339L118.437 29.5211V31.8801C118.437 32.3201 118.546 32.5812 118.762 32.6635C118.828 32.6891 118.906 32.7019 118.996 32.7019C119.085 32.7019 119.166 32.6877 119.238 32.6593C119.313 32.6281 119.379 32.5954 119.437 32.5613C119.495 32.5273 119.544 32.4961 119.584 32.4677C119.625 32.4364 119.662 32.4208 119.697 32.4208C119.734 32.4208 119.767 32.4407 119.796 32.4804C119.825 32.5202 119.839 32.5599 119.839 32.5997C119.839 32.699 119.711 32.8182 119.454 32.9573C119.258 33.0652 119.011 33.1191 118.714 33.1191C118.417 33.1191 118.185 33.0155 118.018 32.8083C117.85 32.5982 117.767 32.3087 117.767 31.9397V29.5084H117.503C117.295 29.5084 117.191 29.4559 117.191 29.3508C117.191 29.2742 117.249 29.2217 117.364 29.1933C117.48 29.1649 117.579 29.1152 117.663 29.0443C117.746 28.9705 117.814 28.8881 117.866 28.7973C117.921 28.7036 117.964 28.6071 117.996 28.5078C118.028 28.4084 118.057 28.3176 118.082 28.2352C118.146 28.0479 118.218 27.9542 118.299 27.9542C118.391 27.9542 118.437 28.0351 118.437 28.1969V29.1592L119.653 29.1337C119.714 29.1337 119.762 29.2046 119.796 29.3466C119.802 29.3778 119.805 29.4019 119.805 29.419Z" fill="#031928"/>
<path d="M121.765 27.7285C121.765 27.8478 121.723 27.95 121.64 28.0351C121.559 28.1174 121.448 28.1586 121.306 28.1586C121.168 28.1586 121.06 28.1189 120.982 28.0394C120.907 27.9571 120.869 27.8691 120.869 27.7754C120.869 27.6789 120.882 27.6051 120.908 27.554C120.934 27.5029 120.967 27.4589 121.008 27.422C121.097 27.3453 121.205 27.307 121.332 27.307C121.462 27.307 121.566 27.3467 121.644 27.4262C121.725 27.5057 121.765 27.6065 121.765 27.7285ZM120.575 33.0766C120.382 33.0766 120.285 33.024 120.285 32.919C120.285 32.8367 120.339 32.7955 120.445 32.7955L120.662 32.8168C120.728 32.8168 120.783 32.8055 120.826 32.7828C120.869 32.7572 120.904 32.7047 120.93 32.6252C120.976 32.4833 120.999 32.1625 120.999 31.6629V30.3813C120.999 30.1002 120.979 29.9228 120.939 29.849C120.901 29.7724 120.858 29.7213 120.809 29.6957C120.76 29.6673 120.678 29.646 120.562 29.6319C120.45 29.6148 120.393 29.5694 120.393 29.4956C120.393 29.4303 120.468 29.3821 120.618 29.3508C120.962 29.2827 121.198 29.2132 121.328 29.1422C121.507 29.0428 121.63 28.9932 121.696 28.9932C121.762 28.9932 121.795 29.0258 121.795 29.0911C121.795 29.1223 121.79 29.155 121.778 29.189C121.712 29.3849 121.679 29.771 121.679 30.3472V31.6629C121.679 32.1625 121.696 32.4677 121.731 32.5784C121.768 32.6891 121.808 32.7572 121.852 32.7828C121.895 32.8055 121.95 32.8168 122.016 32.8168L122.233 32.7955C122.339 32.7955 122.393 32.8367 122.393 32.919C122.393 33.024 122.296 33.0766 122.103 33.0766C121.993 33.0766 121.875 33.0652 121.748 33.0425C121.624 33.0226 121.49 33.0127 121.345 33.0127C121.201 33.0127 121.064 33.0226 120.934 33.0425C120.804 33.0652 120.685 33.0766 120.575 33.0766Z" fill="#031928"/>
<path d="M123.055 33.0766C122.864 33.0766 122.769 33.024 122.769 32.919C122.769 32.8367 122.823 32.7955 122.929 32.7955L123.159 32.8168C123.225 32.8168 123.28 32.8055 123.323 32.7828C123.366 32.7572 123.4 32.7047 123.423 32.6252C123.469 32.4804 123.492 32.1597 123.492 31.6629V30.3898C123.492 30.1031 123.472 29.9242 123.431 29.8533C123.394 29.7795 123.348 29.7298 123.293 29.7042C123.238 29.6759 123.153 29.6531 123.037 29.6361C122.922 29.6162 122.864 29.5708 122.864 29.4999C122.864 29.4346 122.938 29.3877 123.085 29.3593C123.457 29.2827 123.705 29.2103 123.829 29.1422C124 29.0457 124.116 28.9974 124.18 28.9974C124.246 28.9974 124.279 29.0301 124.279 29.0954C124.279 29.1266 124.274 29.1592 124.262 29.1933C124.207 29.3295 124.176 29.5495 124.167 29.8533C124.331 29.5779 124.536 29.3664 124.781 29.2188C125.03 29.0712 125.273 28.9974 125.513 28.9974C125.755 28.9974 125.96 29.0272 126.127 29.0868C126.295 29.1464 126.437 29.2373 126.556 29.3593C126.798 29.6148 126.919 29.9909 126.919 30.4877V31.6629C126.919 32.1597 126.937 32.4648 126.971 32.5784C127.006 32.6891 127.045 32.7572 127.088 32.7828C127.131 32.8055 127.186 32.8168 127.252 32.8168L127.477 32.7955C127.584 32.7955 127.638 32.8367 127.638 32.919C127.638 33.024 127.541 33.0766 127.348 33.0766C127.235 33.0766 127.115 33.0652 126.988 33.0425C126.864 33.0226 126.73 33.0127 126.586 33.0127C126.445 33.0127 126.309 33.0226 126.179 33.0425C126.049 33.0652 125.928 33.0766 125.816 33.0766C125.622 33.0766 125.526 33.024 125.526 32.919C125.526 32.8367 125.579 32.7955 125.686 32.7955L125.911 32.8168C125.977 32.8168 126.032 32.8055 126.075 32.7828C126.119 32.7572 126.153 32.7047 126.179 32.6252C126.225 32.4833 126.248 32.1625 126.248 31.6629V30.6921C126.248 29.8802 125.948 29.4743 125.348 29.4743C124.924 29.4743 124.594 29.6631 124.357 30.0406C124.274 30.1797 124.209 30.35 124.163 30.5516V31.6629C124.163 32.1597 124.18 32.4648 124.215 32.5784C124.249 32.6891 124.288 32.7572 124.331 32.7828C124.375 32.8055 124.429 32.8168 124.496 32.8168L124.725 32.7955C124.832 32.7955 124.885 32.8367 124.885 32.919C124.885 33.024 124.79 33.0766 124.6 33.0766C124.49 33.0766 124.373 33.0652 124.249 33.0425C124.128 33.0226 123.991 33.0127 123.838 33.0127C123.685 33.0127 123.544 33.0226 123.414 33.0425C123.287 33.0652 123.167 33.0766 123.055 33.0766Z" fill="#031928"/>
<path d="M129.221 31.6416C129.054 31.7807 128.97 31.8716 128.97 31.9141C128.97 31.9567 128.981 31.995 129.001 32.0291C129.024 32.0603 129.071 32.093 129.144 32.127C129.308 32.198 129.589 32.2562 129.987 32.3016C130.388 32.3442 130.723 32.4038 130.991 32.4804C131.26 32.5571 131.478 32.6493 131.645 32.7572C131.962 32.9616 132.121 33.2455 132.121 33.6088C132.121 33.9977 131.912 34.3341 131.493 34.6179C131.072 34.9018 130.573 35.0437 129.996 35.0437C129.416 35.0437 128.944 34.9274 128.581 34.6946C128.215 34.459 128.031 34.1609 128.031 33.8004C128.031 33.3406 128.34 32.9928 128.957 32.7572C128.62 32.6579 128.422 32.5301 128.365 32.374C128.344 32.3257 128.334 32.2761 128.334 32.225C128.334 32.083 128.539 31.8446 128.949 31.5096C128.528 31.2456 128.317 30.8638 128.317 30.3642C128.323 29.981 128.474 29.6602 128.771 29.4019C129.083 29.1323 129.487 28.9974 129.983 28.9974C130.199 28.9974 130.413 29.0357 130.624 29.1124C130.751 28.8314 130.929 28.6099 131.16 28.4481C131.359 28.3062 131.563 28.2352 131.77 28.2352C132.01 28.2352 132.176 28.3218 132.268 28.495C132.297 28.5461 132.311 28.6043 132.311 28.6696C132.311 28.7348 132.275 28.7945 132.203 28.8484C132.134 28.9023 132.068 28.9293 132.004 28.9293C131.886 28.9293 131.793 28.9023 131.727 28.8484C131.62 28.7604 131.516 28.7164 131.415 28.7164C131.315 28.7164 131.215 28.7646 131.117 28.8612C131.022 28.9548 130.95 29.084 130.901 29.2486C131.353 29.5211 131.58 29.8973 131.58 30.377C131.58 30.7574 131.423 31.081 131.108 31.3478C130.782 31.6203 130.384 31.7566 129.914 31.7566C129.651 31.7566 129.421 31.7183 129.221 31.6416ZM129.36 31.1392C129.455 31.2442 129.563 31.3251 129.684 31.3819C129.809 31.4358 129.93 31.4628 130.048 31.4628C130.169 31.4628 130.276 31.4429 130.368 31.4032C130.463 31.3634 130.546 31.3038 130.615 31.2243C130.762 31.054 130.836 30.8425 130.836 30.5899C130.836 30.3373 130.813 30.1371 130.766 29.9895C130.723 29.8391 130.658 29.7113 130.572 29.6063C130.396 29.3934 130.153 29.287 129.845 29.287C129.49 29.287 129.245 29.4672 129.109 29.8277C129.069 29.9413 129.048 30.0846 129.048 30.2578C129.048 30.4281 129.076 30.5913 129.131 30.7474C129.188 30.9007 129.265 31.0313 129.36 31.1392ZM129.304 32.8424C128.894 32.9985 128.689 33.271 128.689 33.6599C128.689 33.9125 128.828 34.134 129.105 34.3241C129.399 34.5257 129.77 34.6265 130.217 34.6265C130.869 34.6265 131.278 34.486 131.446 34.2049C131.506 34.1056 131.537 33.9906 131.537 33.86C131.537 33.7295 131.515 33.6187 131.472 33.5279C131.428 33.4371 131.351 33.3562 131.238 33.2852C131.01 33.1376 130.612 33.0283 130.044 32.9573C129.669 32.9148 129.422 32.8764 129.304 32.8424Z" fill="#031928"/>
<path d="M135.072 33.0766C134.885 33.0766 134.791 33.024 134.791 32.919C134.791 32.8367 134.843 32.7955 134.947 32.7955L135.159 32.8168C135.332 32.8168 135.447 32.7217 135.505 32.5315C135.557 32.3697 135.583 32.0802 135.583 31.6629V28.6653C135.583 28.2452 135.563 27.9727 135.522 27.8478C135.482 27.72 135.433 27.6334 135.375 27.588C135.32 27.5398 135.248 27.5156 135.159 27.5156L134.947 27.5369C134.843 27.5369 134.791 27.4944 134.791 27.4092C134.791 27.2985 134.885 27.2431 135.072 27.2431L135.639 27.307C135.76 27.307 135.868 27.2985 135.964 27.2815L139.949 31.8417V28.6568C139.949 28.2423 139.926 27.9698 139.88 27.8392C139.837 27.7087 139.786 27.6207 139.729 27.5753C139.671 27.527 139.596 27.5029 139.504 27.5029L139.292 27.5199C139.188 27.5199 139.136 27.4787 139.136 27.3964C139.136 27.2914 139.23 27.2389 139.417 27.2389C139.489 27.2389 139.586 27.2488 139.707 27.2687C139.86 27.2942 139.998 27.307 140.122 27.307C140.246 27.307 140.368 27.2956 140.486 27.2729C140.604 27.2502 140.743 27.2389 140.901 27.2389C141.06 27.2389 141.139 27.2914 141.139 27.3964C141.139 27.4787 141.087 27.5199 140.984 27.5199L140.772 27.5029C140.596 27.5029 140.479 27.598 140.421 27.7882C140.372 27.9386 140.347 28.2281 140.347 28.6568V32.9573C140.347 33.0539 140.339 33.1177 140.321 33.1489C140.304 33.1802 140.277 33.1958 140.239 33.1958C140.187 33.1958 140.105 33.1362 139.993 33.0169L136.003 28.4694V31.6629C136.003 32.0915 136.021 32.3683 136.059 32.4932C136.099 32.6153 136.147 32.7004 136.202 32.7487C136.259 32.7941 136.334 32.8168 136.427 32.8168L136.634 32.7955C136.738 32.7955 136.79 32.8367 136.79 32.919C136.79 33.024 136.707 33.0766 136.539 33.0766C136.375 33.0766 136.228 33.0652 136.098 33.0425C135.971 33.0226 135.847 33.0127 135.726 33.0127C135.605 33.0127 135.485 33.0226 135.367 33.0425C135.251 33.0652 135.153 33.0766 135.072 33.0766Z" fill="#031928"/>
<path d="M142.091 32.5358C141.924 32.3513 141.794 32.1341 141.702 31.8843C141.613 31.6345 141.568 31.3578 141.568 31.054C141.568 30.7474 141.621 30.4664 141.728 30.2109C141.835 29.9555 141.982 29.7369 142.169 29.5552C142.559 29.1777 143.039 28.9889 143.61 28.9889C144.084 28.9889 144.466 29.1422 144.757 29.4488C145.034 29.744 145.173 30.1087 145.173 30.5431C145.173 30.685 145.152 30.7829 145.112 30.8369C145.075 30.888 145.027 30.9192 144.969 30.9305C144.912 30.9391 144.832 30.9476 144.731 30.9561C144.63 30.9618 144.508 30.9689 144.363 30.9774C144.219 30.9859 144.058 30.9944 143.879 31.0029C143.703 31.0114 143.522 31.0214 143.338 31.0327C142.914 31.0583 142.573 31.0838 142.316 31.1094C142.38 31.873 142.677 32.3683 143.208 32.5954C143.381 32.6692 143.566 32.7061 143.762 32.7061C144.177 32.7061 144.506 32.5869 144.749 32.3484C144.852 32.2463 144.932 32.1952 144.987 32.1952C145.09 32.1952 145.142 32.2562 145.142 32.3783C145.142 32.4407 145.099 32.5159 145.012 32.6039C144.926 32.6919 144.802 32.7828 144.64 32.8764C144.355 33.0382 144.021 33.1191 143.641 33.1191C143.26 33.1191 142.948 33.068 142.706 32.9659C142.466 32.8608 142.262 32.7175 142.091 32.5358ZM142.308 30.7943C143.661 30.7262 144.373 30.6538 144.446 30.5771C144.472 30.5487 144.485 30.465 144.485 30.3259C144.485 30.1868 144.457 30.052 144.402 29.9214C144.347 29.788 144.274 29.6744 144.182 29.5808C143.991 29.3906 143.755 29.2955 143.472 29.2955C143.152 29.2955 142.882 29.4275 142.663 29.6915C142.432 29.9668 142.314 30.3344 142.308 30.7943Z" fill="#031928"/>
<path d="M148.262 29.419C148.262 29.4956 148.216 29.5339 148.124 29.5339L146.895 29.5211V31.8801C146.895 32.3201 147.003 32.5812 147.22 32.6635C147.286 32.6891 147.364 32.7019 147.453 32.7019C147.543 32.7019 147.623 32.6877 147.696 32.6593C147.771 32.6281 147.837 32.5954 147.895 32.5613C147.952 32.5273 148.001 32.4961 148.042 32.4677C148.082 32.4364 148.12 32.4208 148.154 32.4208C148.192 32.4208 148.225 32.4407 148.254 32.4804C148.283 32.5202 148.297 32.5599 148.297 32.5997C148.297 32.699 148.169 32.8182 147.912 32.9573C147.716 33.0652 147.469 33.1191 147.172 33.1191C146.875 33.1191 146.643 33.0155 146.475 32.8083C146.308 32.5982 146.224 32.3087 146.224 31.9397V29.5084H145.96C145.752 29.5084 145.649 29.4559 145.649 29.3508C145.649 29.2742 145.706 29.2217 145.822 29.1933C145.937 29.1649 146.037 29.1152 146.12 29.0443C146.204 28.9705 146.272 28.8881 146.324 28.7973C146.379 28.7036 146.422 28.6071 146.454 28.5078C146.485 28.4084 146.514 28.3176 146.54 28.2352C146.604 28.0479 146.676 27.9542 146.756 27.9542C146.849 27.9542 146.895 28.0351 146.895 28.1969V29.1592L148.111 29.1337C148.172 29.1337 148.219 29.2046 148.254 29.3466C148.26 29.3778 148.262 29.4019 148.262 29.419Z" fill="#031928"/>
<path d="M155.022 29.0357C155.14 29.0357 155.199 29.0712 155.199 29.1422C155.199 29.2018 155.145 29.2515 155.035 29.2912C154.925 29.3281 154.845 29.3636 154.793 29.3977C154.744 29.4317 154.696 29.4814 154.65 29.5467C154.575 29.6517 154.47 29.8646 154.334 30.1854L153.109 32.9957C153.075 33.078 153.037 33.1191 152.997 33.1191C152.936 33.1191 152.889 33.078 152.854 32.9957L151.681 30.3174L150.556 32.9957C150.521 33.078 150.484 33.1191 150.443 33.1191C150.383 33.1191 150.335 33.078 150.301 32.9957L148.976 29.8533C148.901 29.6602 148.841 29.5368 148.795 29.4828C148.717 29.3892 148.614 29.3281 148.487 29.2997C148.363 29.2685 148.301 29.2146 148.301 29.1379C148.301 29.1124 148.317 29.0897 148.349 29.0698C148.378 29.0471 148.421 29.0357 148.479 29.0357L149.15 29.0826C149.323 29.0826 149.451 29.0769 149.535 29.0655C149.682 29.0457 149.803 29.0357 149.898 29.0357C150.094 29.0357 150.193 29.0769 150.193 29.1592C150.193 29.2444 150.077 29.2926 149.846 29.304C149.705 29.3097 149.628 29.348 149.617 29.419C149.614 29.4388 149.613 29.463 149.613 29.4913C149.613 29.5566 149.643 29.6702 149.703 29.832L150.604 31.9652L151.473 29.849L151.378 29.6276C151.309 29.4686 151.237 29.3693 151.162 29.3295C151.133 29.3153 151.1 29.3012 151.062 29.287C150.953 29.2472 150.898 29.1961 150.898 29.1337C150.898 29.0684 150.963 29.0357 151.093 29.0357L151.647 29.0826C151.825 29.0826 151.96 29.0769 152.049 29.0655C152.205 29.0457 152.356 29.0357 152.503 29.0357C152.653 29.0357 152.728 29.0769 152.728 29.1592C152.728 29.2444 152.613 29.2926 152.382 29.304C152.203 29.3125 152.114 29.3707 152.114 29.4786C152.114 29.5893 152.172 29.771 152.287 30.0236L153.17 32.0163L153.771 30.5431C153.962 30.0718 154.063 29.7894 154.074 29.6957C154.086 29.5992 154.092 29.5297 154.092 29.4871C154.092 29.3792 154.017 29.3196 153.867 29.3083C153.717 29.2941 153.616 29.277 153.564 29.2572C153.515 29.2373 153.49 29.2046 153.49 29.1592C153.49 29.0769 153.588 29.0357 153.784 29.0357L154.52 29.0783L155.022 29.0357Z" fill="#031928"/>
<path d="M155.282 31.1221C155.282 30.8468 155.332 30.58 155.433 30.3216C155.534 30.0633 155.677 29.8362 155.862 29.6404C156.265 29.2117 156.769 28.9974 157.372 28.9974C158.041 28.9974 158.556 29.1947 158.917 29.5893C159.243 29.9469 159.406 30.4111 159.406 30.9816C159.406 31.5579 159.211 32.0561 158.822 32.4762C158.423 32.9048 157.921 33.1191 157.316 33.1191C156.646 33.1191 156.133 32.9219 155.775 32.5273C155.446 32.1696 155.282 31.7012 155.282 31.1221ZM156.013 30.9433C156.013 31.2215 156.052 31.4812 156.13 31.7225C156.208 31.9638 156.314 32.1639 156.45 32.3229C156.718 32.6465 157.057 32.8083 157.467 32.8083C157.831 32.8083 158.126 32.6664 158.354 32.3825C158.591 32.0873 158.709 31.7069 158.709 31.2414C158.709 30.6254 158.565 30.1428 158.276 29.7937C158.005 29.4729 157.665 29.3125 157.255 29.3125C156.891 29.3125 156.596 29.4544 156.368 29.7383C156.131 30.0335 156.013 30.4352 156.013 30.9433Z" fill="#031928"/>
<path d="M160.219 33.0766C160.026 33.0766 159.929 33.024 159.929 32.919C159.929 32.8367 159.983 32.7955 160.089 32.7955L160.306 32.8168C160.372 32.8168 160.427 32.8055 160.47 32.7828C160.514 32.7572 160.547 32.7047 160.57 32.6252C160.616 32.4804 160.639 32.1597 160.639 31.6629V30.3898C160.639 30.1002 160.62 29.92 160.583 29.849C160.548 29.7752 160.505 29.7255 160.453 29.7C160.404 29.6716 160.322 29.6489 160.206 29.6319C160.094 29.6148 160.038 29.5708 160.038 29.4999C160.038 29.4346 160.111 29.3877 160.258 29.3593C160.602 29.2884 160.838 29.2174 160.968 29.1464C161.144 29.0471 161.264 28.9974 161.327 28.9974C161.394 28.9974 161.427 29.0301 161.427 29.0954C161.427 29.1266 161.419 29.1592 161.405 29.1933C161.394 29.2273 161.381 29.2685 161.366 29.3168C161.343 29.4133 161.326 29.595 161.314 29.8618C161.565 29.4473 161.868 29.189 162.223 29.0868C162.327 29.0556 162.442 29.04 162.569 29.04C162.699 29.04 162.813 29.0854 162.911 29.1763C163.012 29.2671 163.062 29.3636 163.062 29.4658C163.062 29.568 163.051 29.6432 163.028 29.6915C163.005 29.7397 162.976 29.7809 162.941 29.8149C162.866 29.8888 162.799 29.9257 162.738 29.9257C162.68 29.9257 162.635 29.9115 162.604 29.8831C162.572 29.8519 162.536 29.7965 162.496 29.717C162.423 29.5751 162.343 29.5041 162.253 29.5041C162.164 29.5041 162.079 29.524 161.998 29.5637C161.917 29.6006 161.836 29.6574 161.756 29.734C161.58 29.8959 161.431 30.1158 161.31 30.394V31.6629C161.31 32.2023 161.324 32.5202 161.353 32.6167C161.385 32.7104 161.422 32.7671 161.466 32.787C161.512 32.8041 161.574 32.8126 161.652 32.8126L162.037 32.7785C162.095 32.7785 162.141 32.7927 162.175 32.8211C162.21 32.8466 162.227 32.8793 162.227 32.919C162.227 33.024 162.122 33.0766 161.911 33.0766L160.998 33.0127C160.851 33.0127 160.711 33.0226 160.578 33.0425C160.449 33.0652 160.329 33.0766 160.219 33.0766Z" fill="#031928"/>
<path d="M163.651 33.0766C163.461 33.0766 163.365 33.024 163.365 32.919C163.365 32.8367 163.419 32.7955 163.526 32.7955L163.742 32.8168C163.808 32.8168 163.863 32.8055 163.906 32.7828C163.95 32.7572 163.983 32.7047 164.006 32.6252C164.052 32.4804 164.075 32.1597 164.075 31.6629V28.3161C164.075 28.0465 164.053 27.8719 164.01 27.7924C163.967 27.7101 163.921 27.6547 163.872 27.6263C163.823 27.598 163.743 27.5753 163.634 27.5582C163.527 27.5412 163.474 27.4972 163.474 27.4262C163.474 27.3609 163.547 27.3141 163.694 27.2857C164.038 27.2147 164.274 27.1438 164.404 27.0728C164.58 26.9735 164.7 26.9238 164.763 26.9238C164.83 26.9238 164.863 26.9564 164.863 27.0217C164.863 27.0529 164.857 27.0856 164.845 27.1196C164.785 27.2729 164.753 27.4674 164.75 27.703C164.747 27.9386 164.746 28.1316 164.746 28.2821V30.8283L166.044 29.6106C166.119 29.5424 166.157 29.4885 166.157 29.4488C166.157 29.4062 166.139 29.375 166.105 29.3551C166.07 29.3324 166.031 29.3111 165.988 29.2912C165.878 29.243 165.823 29.1919 165.823 29.1379C165.823 29.067 165.887 29.0315 166.014 29.0315L166.516 29.0741L167.251 29.0315C167.439 29.0315 167.533 29.0726 167.533 29.155C167.533 29.2288 167.453 29.2728 167.295 29.287C167.127 29.304 166.976 29.3622 166.84 29.4615C166.705 29.5581 166.591 29.646 166.499 29.7255L165.624 30.4792L166.988 32.4932C167.117 32.7004 167.295 32.8041 167.52 32.8041C167.653 32.8041 167.733 32.814 167.762 32.8339C167.794 32.8509 167.81 32.8835 167.81 32.9318C167.81 33.0283 167.725 33.0766 167.554 33.0766L167.052 33.0297L166.702 33.0766C166.61 33.0766 166.536 33.0453 166.481 32.9829C166.429 32.9204 166.38 32.8608 166.334 32.8041L165.092 30.9433L164.746 31.2456V31.6629C164.746 32.3328 164.789 32.7033 164.876 32.7742C164.907 32.8026 164.948 32.8168 164.997 32.8168L165.213 32.7955C165.317 32.7955 165.369 32.8367 165.369 32.919C165.369 33.024 165.274 33.0766 165.083 33.0766C165 33.0766 164.905 33.0652 164.798 33.0425C164.691 33.0226 164.563 33.0127 164.413 33.0127C164.266 33.0127 164.128 33.0226 164.002 33.0425C163.877 33.0652 163.761 33.0766 163.651 33.0766Z" fill="#031928"/>
<path d="M183.673 24.2924H52.3925C50.7259 24.2924 49.3156 22.9381 49.3156 21.2452V3.04713C49.3156 1.3966 50.6831 0 52.3925 0H183.673C185.34 0 186.75 1.35428 186.75 3.04713V21.2452C186.75 22.9381 185.382 24.2924 183.673 24.2924Z" fill="#0069D1"/>
<path d="M67.7653 20.9495H62.7226C62.2526 20.9495 62.0389 20.7379 62.0389 20.2723V6.43328C62.0389 5.96775 62.2526 5.75615 62.7226 5.75615H67.7653C68.4918 5.75615 69.1756 6.0524 69.7311 6.60257C70.3294 7.15275 70.5858 7.82988 70.5858 8.54934V11.0886C70.5858 11.7234 70.3721 12.2736 69.9875 12.7815L69.5174 13.374L70.0302 13.9665C70.4149 14.4743 70.6285 15.0245 70.6285 15.6593V18.1986C70.6285 18.9604 70.3294 19.5952 69.7738 20.1454C69.1756 20.6955 68.5345 20.9495 67.7653 20.9495ZM64.8594 11.935H67.7653V8.54934H64.8594V11.935ZM64.8594 18.1563H67.7653V14.7706H64.8594V18.1563Z" fill="white"/>
<path d="M78.3206 20.9492H74.6881C73.9616 20.9492 73.3206 20.6953 72.7651 20.1451C72.2523 19.6372 71.9531 19.0024 71.9531 18.2406V6.39072C71.9531 5.92519 72.1668 5.71358 72.6369 5.71358H74.0899C74.5599 5.71358 74.7736 5.92519 74.7736 6.39072V18.1137H78.2778C78.7479 18.1137 78.9616 18.3676 78.9616 18.7908V20.1874C79.0043 20.7376 78.7907 20.9492 78.3206 20.9492Z" fill="white"/>
<path d="M86.3548 20.9495H83.2352C82.4659 20.9495 81.8249 20.6532 81.2266 20.103C80.6711 19.5529 80.3719 18.8757 80.3719 18.1563V6.43328C80.3719 5.96775 80.5856 5.75615 81.0557 5.75615H82.4659C82.936 5.75615 83.1497 5.96775 83.1497 6.43328V18.1563H86.312V6.43328C86.312 5.96775 86.5257 5.75615 86.9958 5.75615H88.4488C88.9189 5.75615 89.1325 5.96775 89.1325 6.43328V18.1563C89.1325 18.918 88.8334 19.5529 88.2778 20.1454C87.765 20.6955 87.124 20.9495 86.3548 20.9495Z" fill="white"/>
<path d="M97.295 20.9492H93.2779C92.5514 20.9492 91.9104 20.6953 91.3549 20.1451C90.842 19.6372 90.5429 19.0024 90.5429 18.2406V6.39072C90.5429 5.92519 90.7566 5.71358 91.2267 5.71358H97.1668C97.6368 5.71358 97.8505 5.92519 97.8505 6.39072V7.82964C97.8505 8.29517 97.6368 8.50678 97.1668 8.50678H93.3634V11.8925H96.5257C96.9958 11.8925 97.2095 12.1041 97.2095 12.5696V14.0085C97.2095 14.4741 96.9531 14.6857 96.5257 14.6857H93.3634V18.0714H97.2095C97.6796 18.0714 97.8932 18.3253 97.8932 18.7485V20.1451C98.0214 20.7376 97.765 20.9492 97.295 20.9492Z" fill="white"/>
<path d="M114.218 20.9495H112.765C112.295 20.9495 112.081 20.7379 112.081 20.2723V12.4006L110.243 16.2941C110.115 16.5481 109.902 16.675 109.602 16.675C109.303 16.675 109.09 16.5481 108.961 16.2941L107.124 12.4006V20.2723C107.124 20.7379 106.867 20.9495 106.44 20.9495H104.987C104.517 20.9495 104.303 20.7379 104.303 20.2723V6.43328C104.303 5.96775 104.517 5.75615 104.987 5.75615H106.696C106.996 5.75615 107.209 5.88311 107.337 6.17936L109.602 11.004L111.91 6.17936C112.038 5.92543 112.252 5.75615 112.551 5.75615H114.26C114.731 5.75615 114.944 5.96775 114.944 6.43328V20.2723C114.901 20.7379 114.688 20.9495 114.218 20.9495Z" fill="white"/>
<path d="M122.337 20.9492H119.089C118.32 20.9492 117.679 20.653 117.124 20.1028C116.568 19.5526 116.269 18.8755 116.269 18.156V8.50678C116.269 7.745 116.568 7.11018 117.124 6.56C117.679 6.00983 118.363 5.71358 119.089 5.71358H122.337C123.106 5.71358 123.747 6.00983 124.346 6.56C124.944 7.11018 125.2 7.78732 125.2 8.50678V18.1137C125.2 18.8755 124.901 19.5103 124.346 20.0605C123.747 20.6953 123.106 20.9492 122.337 20.9492ZM122.337 18.156V8.5491H119.089V18.156H122.337Z" fill="white"/>
<path d="M132.551 20.9495H129.431C128.662 20.9495 128.021 20.6532 127.423 20.103C126.867 19.5529 126.568 18.8757 126.568 18.1563V6.43328C126.568 5.96775 126.782 5.75615 127.252 5.75615H128.662C129.132 5.75615 129.346 5.96775 129.346 6.43328V18.1563H132.508V6.43328C132.508 5.96775 132.722 5.75615 133.192 5.75615H134.645C135.115 5.75615 135.329 5.96775 135.329 6.43328V18.1563C135.329 18.918 135.029 19.5529 134.474 20.1454C133.961 20.6955 133.277 20.9495 132.551 20.9495Z" fill="white"/>
<path d="M142.551 20.5263L139.645 12.9931V20.2723C139.645 20.7379 139.431 20.9495 138.961 20.9495H137.551C137.081 20.9495 136.867 20.7379 136.867 20.2723V6.43328C136.867 5.96775 137.081 5.75615 137.551 5.75615H139.388C139.688 5.75615 139.901 5.92543 140.029 6.22168L142.978 13.7549V6.47561C142.978 6.01008 143.192 5.79847 143.662 5.79847H145.072C145.542 5.79847 145.756 6.01008 145.756 6.47561V20.2723C145.756 20.7379 145.542 20.9495 145.072 20.9495H143.235C142.893 20.9495 142.679 20.8225 142.551 20.5263Z" fill="white"/>
<path d="M154.901 8.54934H152.807V20.2723C152.807 20.7379 152.593 20.9495 152.123 20.9495H150.67C150.2 20.9495 149.987 20.7379 149.987 20.2723V8.54934H147.893C147.423 8.54934 147.209 8.33774 147.209 7.87221V6.43328C147.209 5.96775 147.423 5.75615 147.893 5.75615H154.987C155.457 5.75615 155.67 5.96775 155.67 6.43328V7.87221C155.628 8.33774 155.371 8.54934 154.901 8.54934Z" fill="white"/>
<path d="M161.311 20.399L160.756 17.5635H157.764L157.209 20.399C157.123 20.7799 156.91 20.9492 156.525 20.9492H155.072C154.858 20.9492 154.645 20.8646 154.516 20.6953C154.388 20.526 154.303 20.3567 154.388 20.1028L157.166 6.26375C157.252 5.88286 157.465 5.71358 157.85 5.71358H160.67C161.055 5.71358 161.269 5.88286 161.354 6.26375L164.132 20.1028C164.174 20.3144 164.132 20.526 164.004 20.6953C163.875 20.8646 163.662 20.9492 163.448 20.9492H161.995C161.61 20.9492 161.397 20.7799 161.311 20.399ZM160.2 14.7703L159.26 10.1996L158.32 14.7703H160.2Z" fill="white"/>
<path d="M167.721 20.9495H166.268C165.798 20.9495 165.585 20.7379 165.585 20.2723V6.43328C165.585 5.96775 165.798 5.75615 166.268 5.75615H167.721C168.191 5.75615 168.405 5.96775 168.405 6.43328V20.2723C168.448 20.7379 168.191 20.9495 167.721 20.9495Z" fill="white"/>
<path d="M175.542 20.5263L172.636 12.9931V20.2723C172.636 20.7379 172.422 20.9495 171.952 20.9495H170.542C170.072 20.9495 169.858 20.7379 169.858 20.2723V6.43328C169.858 5.96775 170.072 5.75615 170.542 5.75615H172.379C172.679 5.75615 172.892 5.92543 173.021 6.22168L175.969 13.7549V6.47561C175.969 6.01008 176.183 5.79847 176.653 5.79847H178.063C178.533 5.79847 178.747 6.01008 178.747 6.47561V20.2723C178.747 20.7379 178.533 20.9495 178.063 20.9495H176.226C175.884 20.9495 175.67 20.8225 175.542 20.5263Z" fill="white"/>
<path d="M50.8114 24.2924H3.07689C1.41024 24.2924 0 22.9381 0 21.2452V3.04713C0 1.3966 1.36751 0 3.07689 0H50.8541C52.5208 0 53.931 1.35428 53.931 3.04713V21.2452C53.8883 22.9381 52.5208 24.2924 50.8114 24.2924Z" fill="white"/>
<path d="M38.2902 20.949H7.64951C7.43584 20.949 7.35037 20.695 7.47857 20.5681L22.8203 5.33243C22.9057 5.24779 23.0339 5.24779 23.1194 5.33243L38.4611 20.5681C38.5893 20.7373 38.5039 20.949 38.2902 20.949Z" fill="#0069D1"/>
<path d="M31.6664 11.8499L35.1279 8.42188C35.2134 8.33724 35.3416 8.33724 35.4271 8.42188L47.7346 20.6104C47.8628 20.7373 47.7774 20.9913 47.5637 20.9913H40.8116" fill="#DD071C"/>
</svg>
