<svg width="249" height="49" viewBox="0 0 249 49" fill="none" xmlns="http://www.w3.org/2000/svg">
<rect x="82.7186" y="31.5591" width="155.308" height="17.4407" rx="2" fill="#E5CE00" fill-opacity="0.95"/>
<path d="M98.5894 44.1021C98.3393 44.1021 98.2143 44.0321 98.2143 43.8921C98.2143 43.7823 98.2836 43.7274 98.422 43.7274L98.7048 43.7558C98.9356 43.7558 99.0894 43.629 99.1664 43.3754C99.2356 43.1597 99.2702 42.7737 99.2702 42.2173V36.909H99.1144C98.4413 36.909 97.9047 36.9771 97.5046 37.1134C97.2276 37.2118 97.0392 37.3802 96.9391 37.6187C96.8661 37.7928 96.7891 37.8798 96.7083 37.8798C96.5968 37.8798 96.541 37.8155 96.541 37.6868C96.541 37.6489 96.5487 37.6054 96.5641 37.5562C96.5833 37.507 96.6045 37.4483 96.6276 37.3802C96.6891 37.1985 96.7257 37.0093 96.7372 36.8125C96.7487 36.6157 96.7699 36.4851 96.8007 36.4207C96.8353 36.3526 96.8814 36.3186 96.9391 36.3186C96.9968 36.3186 97.0488 36.3242 97.0949 36.3356C97.1411 36.3432 97.2084 36.3526 97.2969 36.364C97.5277 36.3943 97.8181 36.4094 98.1682 36.4094H101.826C102.111 36.4094 102.317 36.3943 102.444 36.364C102.575 36.3337 102.669 36.3186 102.726 36.3186C102.853 36.3186 102.917 36.3772 102.917 36.4946C102.917 36.5551 102.905 36.627 102.882 36.7103C102.825 36.8958 102.786 37.0566 102.767 37.1929C102.751 37.3253 102.736 37.4351 102.721 37.5221C102.705 37.6054 102.688 37.6716 102.669 37.7209C102.638 37.8041 102.592 37.8458 102.53 37.8458C102.469 37.8458 102.428 37.8249 102.409 37.7833C102.394 37.7379 102.376 37.6527 102.357 37.5278C102.338 37.4029 102.305 37.3007 102.259 37.2212C102.213 37.1418 102.151 37.0793 102.074 37.0339C101.94 36.9506 101.721 36.909 101.417 36.909H100.176V42.2173C100.176 42.7888 100.201 43.1578 100.251 43.3244C100.305 43.4871 100.368 43.6006 100.442 43.665C100.518 43.7255 100.618 43.7558 100.742 43.7558L101.019 43.7274C101.157 43.7274 101.226 43.7823 101.226 43.8921C101.226 44.0321 101.103 44.1021 100.857 44.1021C100.73 44.1021 100.595 44.0908 100.453 44.0681C99.9915 43.9962 99.5953 43.9829 99.2645 44.0283C98.9375 44.0775 98.7125 44.1021 98.5894 44.1021Z" fill="#031928"/>
<path d="M104.013 44.1021C103.759 44.1021 103.632 44.0321 103.632 43.8921C103.632 43.7823 103.704 43.7274 103.846 43.7274L104.134 43.7558C104.223 43.7558 104.296 43.7407 104.354 43.7104C104.411 43.6763 104.456 43.6063 104.486 43.5003C104.548 43.3073 104.579 42.8796 104.579 42.2173V37.7549C104.579 37.3954 104.55 37.1626 104.492 37.0566C104.434 36.9468 104.373 36.873 104.307 36.8352C104.242 36.7973 104.136 36.7671 103.99 36.7444C103.848 36.7216 103.777 36.663 103.777 36.5684C103.777 36.4813 103.875 36.4189 104.071 36.381C104.529 36.2864 104.844 36.1918 105.017 36.0971C105.252 35.9647 105.411 35.8984 105.496 35.8984C105.585 35.8984 105.629 35.942 105.629 36.029C105.629 36.0706 105.621 36.1142 105.606 36.1596C105.525 36.364 105.483 36.6232 105.479 36.9374C105.475 37.2515 105.473 37.5089 105.473 37.7095V39.9236C105.792 39.3219 106.244 38.9301 106.829 38.7484C107.014 38.6917 107.198 38.6633 107.383 38.6633C107.944 38.6633 108.379 38.8241 108.687 39.1459C108.995 39.4676 109.148 39.9691 109.148 40.6503V42.2173C109.148 42.8796 109.172 43.2865 109.218 43.4379C109.264 43.5855 109.316 43.6763 109.373 43.7104C109.431 43.7407 109.504 43.7558 109.593 43.7558L109.881 43.7274C110.024 43.7274 110.095 43.7823 110.095 43.8921C110.095 44.0321 109.966 44.1021 109.708 44.1021C109.562 44.1021 109.406 44.087 109.241 44.0567C109.075 44.0302 108.896 44.017 108.704 44.017C108.516 44.017 108.335 44.0302 108.162 44.0567C107.993 44.087 107.835 44.1021 107.689 44.1021C107.431 44.1021 107.302 44.0321 107.302 43.8921C107.302 43.7823 107.373 43.7274 107.516 43.7274L107.804 43.7558C107.893 43.7558 107.966 43.7407 108.023 43.7104C108.081 43.6763 108.127 43.6063 108.162 43.5003C108.223 43.3111 108.254 42.8834 108.254 42.2173V40.9229C108.254 39.8442 107.85 39.3048 107.042 39.3048C106.458 39.3048 106.013 39.6038 105.71 40.2018C105.602 40.41 105.523 40.656 105.473 40.9399V42.2173C105.473 42.8796 105.496 43.2865 105.542 43.4379C105.588 43.5855 105.64 43.6763 105.698 43.7104C105.756 43.7407 105.829 43.7558 105.917 43.7558L106.206 43.7274C106.348 43.7274 106.419 43.7823 106.419 43.8921C106.419 44.0321 106.292 44.1021 106.038 44.1021C105.892 44.1021 105.74 44.087 105.583 44.0567C105.425 44.0302 105.244 44.017 105.04 44.017C104.836 44.017 104.65 44.0302 104.481 44.0567C104.315 44.087 104.159 44.1021 104.013 44.1021Z" fill="#031928"/>
<path d="M111.422 43.3811C111.199 43.1351 111.026 42.8456 110.903 42.5125C110.783 42.1794 110.724 41.8104 110.724 41.4054C110.724 40.9967 110.795 40.622 110.937 40.2813C111.079 39.9407 111.276 39.6492 111.526 39.407C112.045 38.9036 112.685 38.6519 113.447 38.6519C114.078 38.6519 114.588 38.8563 114.976 39.2651C115.345 39.6587 115.53 40.1451 115.53 40.7241C115.53 40.9134 115.503 41.044 115.449 41.1159C115.399 41.184 115.336 41.2256 115.259 41.2408C115.182 41.2521 115.076 41.2635 114.942 41.2748C114.807 41.2824 114.643 41.2919 114.451 41.3032C114.259 41.3146 114.043 41.3259 113.805 41.3373C113.57 41.3486 113.33 41.3619 113.084 41.377C112.518 41.4111 112.064 41.4452 111.722 41.4792C111.806 42.4974 112.203 43.1578 112.91 43.4606C113.141 43.559 113.387 43.6082 113.649 43.6082C114.203 43.6082 114.641 43.4493 114.965 43.1313C115.103 42.9951 115.209 42.9269 115.282 42.9269C115.42 42.9269 115.49 43.0083 115.49 43.1711C115.49 43.2543 115.432 43.3546 115.317 43.472C115.201 43.5893 115.036 43.7104 114.82 43.8353C114.44 44.051 113.995 44.1589 113.487 44.1589C112.98 44.1589 112.564 44.0908 112.241 43.9545C111.922 43.8145 111.649 43.6234 111.422 43.3811ZM111.71 41.0591C113.514 40.9683 114.465 40.8718 114.561 40.7696C114.595 40.7317 114.613 40.6201 114.613 40.4346C114.613 40.2491 114.576 40.0694 114.503 39.8953C114.43 39.7174 114.332 39.566 114.209 39.4411C113.955 39.1875 113.639 39.0607 113.262 39.0607C112.835 39.0607 112.476 39.2367 112.183 39.5887C111.876 39.9558 111.718 40.446 111.71 41.0591Z" fill="#031928"/>
<path d="M126.874 38.0501C126.874 38.1977 126.822 38.2716 126.718 38.2716C126.626 38.2716 126.549 38.1807 126.487 37.999C126.43 37.8136 126.318 37.6395 126.153 37.4767C125.987 37.314 125.789 37.1777 125.558 37.068C125.077 36.8371 124.56 36.7216 124.006 36.7216C123.456 36.7216 122.979 36.7955 122.575 36.9431C122.175 37.0869 121.831 37.2951 121.542 37.5676C120.942 38.1467 120.642 38.9282 120.642 39.9123C120.642 41.0023 120.981 41.9012 121.658 42.609C122.331 43.313 123.193 43.665 124.243 43.665C125.412 43.665 126.316 43.137 126.955 42.081C126.997 42.0129 127.041 41.975 127.087 41.9675C127.13 41.9675 127.172 42.0129 127.214 42.1037C127.257 42.1946 127.278 42.2968 127.278 42.4103C127.278 42.5995 127.114 42.8456 126.787 43.1484C126.46 43.4511 126.062 43.6953 125.593 43.8807C125.127 44.0662 124.583 44.1589 123.96 44.1589C123.341 44.1589 122.752 44.0605 122.194 43.8637C121.64 43.6631 121.169 43.3906 120.781 43.0462C119.965 42.327 119.558 41.4281 119.558 40.3494C119.558 39.1307 119.969 38.1467 120.792 37.3972C121.615 36.6441 122.698 36.2675 124.041 36.2675C125.01 36.2675 125.812 36.3943 126.447 36.6478C126.57 36.7008 126.651 36.7519 126.689 36.8011C126.766 36.9071 126.81 37.0661 126.822 37.278C126.837 37.4862 126.847 37.63 126.851 37.7095C126.866 37.895 126.874 38.0085 126.874 38.0501Z" fill="#031928"/>
<path d="M128.005 41.4963C128.005 41.1291 128.072 40.7733 128.207 40.4289C128.341 40.0845 128.532 39.7817 128.778 39.5206C129.317 38.949 129.988 38.6633 130.792 38.6633C131.684 38.6633 132.371 38.9263 132.852 39.4524C133.286 39.9293 133.504 40.5481 133.504 41.3089C133.504 42.0772 133.244 42.7415 132.725 43.3016C132.194 43.8732 131.524 44.1589 130.717 44.1589C129.824 44.1589 129.14 43.8959 128.663 43.3698C128.224 42.8929 128.005 42.2684 128.005 41.4963ZM128.98 41.2578C128.98 41.6287 129.032 41.975 129.136 42.2968C129.24 42.6185 129.382 42.8853 129.563 43.0973C129.92 43.5287 130.372 43.7445 130.919 43.7445C131.403 43.7445 131.798 43.5552 132.101 43.1767C132.417 42.7831 132.575 42.2759 132.575 41.6552C132.575 40.8339 132.382 40.1905 131.998 39.7249C131.636 39.2973 131.182 39.0834 130.636 39.0834C130.151 39.0834 129.757 39.2726 129.453 39.6511C129.138 40.0448 128.98 40.5803 128.98 41.2578Z" fill="#031928"/>
<path d="M134.611 44.1021C134.358 44.1021 134.231 44.0321 134.231 43.8921C134.231 43.7823 134.302 43.7274 134.444 43.7274L134.75 43.7558C134.838 43.7558 134.911 43.7407 134.969 43.7104C135.027 43.6763 135.071 43.6063 135.102 43.5003C135.163 43.3073 135.194 42.8796 135.194 42.2173V40.5198C135.194 40.1375 135.167 39.899 135.113 39.8044C135.063 39.706 135.002 39.6398 134.929 39.6057C134.856 39.5679 134.742 39.5376 134.588 39.5149C134.434 39.4884 134.358 39.4278 134.358 39.3332C134.358 39.2462 134.456 39.1837 134.652 39.1459C135.148 39.0437 135.479 38.9471 135.644 38.8563C135.871 38.7276 136.027 38.6633 136.112 38.6633C136.2 38.6633 136.244 38.7068 136.244 38.7939C136.244 38.8355 136.237 38.879 136.221 38.9244C136.148 39.1061 136.106 39.3994 136.094 39.8044C136.314 39.4373 136.587 39.1553 136.914 38.9585C137.244 38.7617 137.57 38.6633 137.889 38.6633C138.212 38.6633 138.485 38.703 138.708 38.7825C138.931 38.862 139.122 38.9831 139.279 39.1459C139.602 39.4865 139.764 39.988 139.764 40.6503V42.2173C139.764 42.8796 139.787 43.2865 139.833 43.4379C139.879 43.5855 139.931 43.6763 139.989 43.7104C140.047 43.7407 140.12 43.7558 140.208 43.7558L140.508 43.7274C140.651 43.7274 140.722 43.7823 140.722 43.8921C140.722 44.0321 140.593 44.1021 140.335 44.1021C140.185 44.1021 140.026 44.087 139.856 44.0567C139.691 44.0302 139.512 44.017 139.32 44.017C139.131 44.017 138.95 44.0302 138.777 44.0567C138.604 44.087 138.443 44.1021 138.293 44.1021C138.035 44.1021 137.906 44.0321 137.906 43.8921C137.906 43.7823 137.977 43.7274 138.12 43.7274L138.42 43.7558C138.508 43.7558 138.581 43.7407 138.639 43.7104C138.697 43.6763 138.743 43.6063 138.777 43.5003C138.839 43.3111 138.87 42.8834 138.87 42.2173V40.9229C138.87 39.8404 138.47 39.2991 137.67 39.2991C137.104 39.2991 136.664 39.5508 136.348 40.0542C136.237 40.2397 136.15 40.4668 136.089 40.7355V42.2173C136.089 42.8796 136.112 43.2865 136.158 43.4379C136.204 43.5855 136.256 43.6763 136.314 43.7104C136.371 43.7407 136.444 43.7558 136.533 43.7558L136.839 43.7274C136.981 43.7274 137.052 43.7823 137.052 43.8921C137.052 44.0321 136.925 44.1021 136.671 44.1021C136.525 44.1021 136.369 44.087 136.204 44.0567C136.042 44.0302 135.86 44.017 135.656 44.017C135.452 44.017 135.263 44.0302 135.09 44.0567C134.921 44.087 134.761 44.1021 134.611 44.1021Z" fill="#031928"/>
<path d="M141.882 43.7104C141.705 43.5855 141.566 43.4493 141.466 43.3016C141.366 43.1502 141.316 43.0329 141.316 42.9496C141.316 42.8626 141.328 42.7983 141.351 42.7566C141.378 42.7112 141.412 42.6696 141.455 42.6317C141.555 42.5371 141.651 42.4898 141.743 42.4898C141.839 42.4898 141.912 42.5125 141.962 42.5579C142.012 42.5995 142.059 42.6847 142.101 42.8134C142.147 42.9383 142.211 43.0594 142.291 43.1767C142.376 43.2941 142.476 43.3963 142.591 43.4833C142.841 43.6688 143.147 43.7615 143.509 43.7615C143.828 43.7615 144.099 43.6839 144.322 43.5287C144.557 43.3698 144.674 43.1711 144.674 42.9326C144.674 42.6904 144.569 42.4784 144.357 42.2968C144.13 42.1037 143.793 41.9202 143.347 41.7461C142.901 41.5682 142.584 41.4187 142.395 41.2976C142.207 41.1764 142.053 41.0478 141.934 40.9115C141.707 40.6503 141.593 40.3513 141.593 40.0145C141.593 39.6284 141.77 39.3067 142.124 39.0493C142.482 38.792 142.93 38.6633 143.468 38.6633C143.934 38.6633 144.326 38.7598 144.645 38.9528C144.922 39.1231 145.061 39.3029 145.061 39.4922C145.061 39.5906 145.009 39.6757 144.905 39.7476C144.805 39.8158 144.709 39.8498 144.617 39.8498C144.528 39.8498 144.459 39.8328 144.409 39.7987C144.359 39.7609 144.284 39.6663 144.184 39.5149C143.988 39.2159 143.69 39.0664 143.29 39.0664C142.839 39.0664 142.541 39.1988 142.395 39.4638C142.353 39.5395 142.332 39.6209 142.332 39.7079C142.332 39.795 142.349 39.8801 142.384 39.9634C142.422 40.0429 142.491 40.1261 142.591 40.2132C142.803 40.3873 143.191 40.5898 143.757 40.8207C144.865 41.2711 145.419 41.8483 145.419 42.5522C145.419 43.0253 145.224 43.4114 144.836 43.7104C144.444 44.0094 143.94 44.1589 143.324 44.1589C142.778 44.1589 142.297 44.0094 141.882 43.7104Z" fill="#031928"/>
<path d="M152.158 43.2676C152.27 43.2676 152.325 43.3168 152.325 43.4152C152.325 43.4682 152.3 43.5136 152.25 43.5514C152.204 43.5893 152.131 43.629 152.031 43.6707C151.931 43.7085 151.852 43.7407 151.794 43.7672C151.737 43.7937 151.683 43.8202 151.633 43.8467C151.552 43.8883 151.464 43.9413 151.368 44.0056C151.206 44.1078 151.094 44.1589 151.033 44.1589C150.975 44.1589 150.921 44.1438 150.871 44.1135C150.825 44.087 150.777 44.0359 150.727 43.9602C150.612 43.7823 150.55 43.5212 150.542 43.1767C150.215 43.6309 149.796 43.9205 149.285 44.0454C149.127 44.0832 148.942 44.1021 148.731 44.1021C148.519 44.1021 148.3 44.0681 148.073 44C147.85 43.928 147.657 43.8126 147.496 43.6536C147.15 43.3244 146.977 42.8247 146.977 42.1548V40.5198C146.977 40.1564 146.953 39.9199 146.907 39.8101C146.865 39.7003 146.817 39.6265 146.763 39.5887C146.713 39.5508 146.646 39.5243 146.561 39.5092C146.388 39.4714 146.301 39.4089 146.301 39.3219C146.301 39.2272 146.4 39.161 146.596 39.1231C147.03 39.0361 147.319 38.9509 147.461 38.8677C147.665 38.7541 147.805 38.6973 147.882 38.6973C147.959 38.6973 147.998 38.7409 147.998 38.8279C147.998 38.8696 147.988 38.9131 147.969 38.9585C147.892 39.1629 147.852 39.4165 147.848 39.7193C147.844 40.0221 147.842 40.2737 147.842 40.4743V41.9277C147.842 42.715 148.1 43.1957 148.615 43.3698C148.769 43.419 148.921 43.4436 149.071 43.4436C149.221 43.4436 149.361 43.4265 149.492 43.3925C149.627 43.3546 149.758 43.2979 149.885 43.2222C150.158 43.0518 150.375 42.802 150.537 42.4728L150.554 40.3949C150.554 40.0731 150.525 39.8669 150.467 39.776C150.41 39.6814 150.346 39.619 150.277 39.5887C150.208 39.5584 150.098 39.5319 149.948 39.5092C149.802 39.4865 149.729 39.4259 149.729 39.3275C149.729 39.2405 149.821 39.178 150.006 39.1402C150.194 39.1023 150.367 39.0569 150.525 39.0039C150.683 38.9471 150.821 38.8942 150.941 38.845C151.064 38.7958 151.164 38.7541 151.241 38.7201C151.321 38.6822 151.377 38.6633 151.408 38.6633C151.496 38.6633 151.541 38.7068 151.541 38.7939C151.541 38.8355 151.531 38.879 151.512 38.9244C151.435 39.1288 151.394 39.3881 151.391 39.7022C151.387 40.0164 151.385 40.2737 151.385 40.4743V42.6033C151.385 42.8948 151.41 43.0802 151.46 43.1597C151.537 43.2846 151.646 43.3471 151.789 43.3471L152.158 43.2676Z" fill="#031928"/>
<path d="M153.335 44.1021C153.081 44.1021 152.954 44.0321 152.954 43.8921C152.954 43.7823 153.025 43.7274 153.168 43.7274L153.456 43.7558C153.545 43.7558 153.618 43.7407 153.676 43.7104C153.733 43.6763 153.777 43.6063 153.808 43.5003C153.87 43.3073 153.901 42.8796 153.901 42.2173V37.9877C153.901 37.3594 153.768 37.0263 153.502 36.9885C153.31 36.9582 153.214 36.8958 153.214 36.8011C153.214 36.7141 153.304 36.6535 153.485 36.6195C153.666 36.5816 153.829 36.5362 153.976 36.4832C154.122 36.4264 154.251 36.3734 154.362 36.3242C154.474 36.2712 154.568 36.2258 154.645 36.188C154.726 36.1501 154.783 36.1312 154.818 36.1312C154.906 36.1312 154.951 36.1747 154.951 36.2618C154.951 36.3034 154.943 36.3469 154.928 36.3924C154.847 36.5967 154.805 36.856 154.801 37.1702C154.797 37.4843 154.795 37.7417 154.795 37.9423V42.2173C154.795 42.8796 154.818 43.2865 154.864 43.4379C154.91 43.5855 154.962 43.6763 155.02 43.7104C155.078 43.7407 155.151 43.7558 155.239 43.7558L155.528 43.7274C155.67 43.7274 155.741 43.7823 155.741 43.8921C155.741 44.0321 155.614 44.1021 155.36 44.1021C155.214 44.1021 155.062 44.087 154.905 44.0567C154.747 44.0302 154.566 44.017 154.362 44.017C154.158 44.017 153.972 44.0302 153.802 44.0567C153.637 44.087 153.481 44.1021 153.335 44.1021Z" fill="#031928"/>
<path d="M159.74 39.2253C159.74 39.3275 159.678 39.3786 159.555 39.3786L157.916 39.3616V42.5068C157.916 43.0935 158.061 43.4417 158.349 43.5514C158.438 43.5855 158.542 43.6025 158.661 43.6025C158.78 43.6025 158.888 43.5836 158.984 43.5458C159.084 43.5041 159.172 43.4606 159.249 43.4152C159.326 43.3698 159.392 43.3281 159.445 43.2903C159.499 43.2487 159.549 43.2278 159.596 43.2278C159.646 43.2278 159.69 43.2543 159.728 43.3073C159.767 43.3603 159.786 43.4133 159.786 43.4663C159.786 43.5988 159.615 43.7577 159.272 43.9432C159.011 44.087 158.682 44.1589 158.286 44.1589C157.89 44.1589 157.58 44.0208 157.357 43.7445C157.134 43.4644 157.022 43.0783 157.022 42.5863V39.3446H156.67C156.393 39.3446 156.255 39.2745 156.255 39.1345C156.255 39.0323 156.332 38.9623 156.485 38.9244C156.639 38.8866 156.772 38.8204 156.884 38.7257C156.995 38.6273 157.086 38.5176 157.155 38.3965C157.228 38.2716 157.286 38.1429 157.328 38.0104C157.37 37.8779 157.409 37.7568 157.443 37.647C157.528 37.3972 157.624 37.2723 157.732 37.2723C157.855 37.2723 157.916 37.3802 157.916 37.596V38.879L159.538 38.845C159.619 38.845 159.682 38.9396 159.728 39.1288C159.736 39.1705 159.74 39.2026 159.74 39.2253Z" fill="#031928"/>
<path d="M162.354 36.9714C162.354 37.1304 162.298 37.2667 162.186 37.3802C162.079 37.49 161.93 37.5449 161.742 37.5449C161.557 37.5449 161.413 37.4919 161.309 37.3859C161.209 37.2761 161.159 37.1588 161.159 37.0339C161.159 36.9052 161.176 36.8068 161.211 36.7387C161.246 36.6706 161.29 36.6119 161.344 36.5627C161.463 36.4605 161.607 36.4094 161.777 36.4094C161.95 36.4094 162.088 36.4624 162.192 36.5684C162.3 36.6743 162.354 36.8087 162.354 36.9714ZM160.767 44.1021C160.509 44.1021 160.38 44.0321 160.38 43.8921C160.38 43.7823 160.451 43.7274 160.594 43.7274L160.882 43.7558C160.971 43.7558 161.044 43.7407 161.101 43.7104C161.159 43.6763 161.205 43.6063 161.24 43.5003C161.302 43.3111 161.332 42.8834 161.332 42.2173V40.5084C161.332 40.1337 161.305 39.8972 161.252 39.7987C161.201 39.6966 161.144 39.6284 161.078 39.5944C161.013 39.5565 160.903 39.5281 160.75 39.5092C160.599 39.4865 160.524 39.4259 160.524 39.3275C160.524 39.2405 160.625 39.1761 160.825 39.1345C161.282 39.0437 161.598 38.9509 161.771 38.8563C162.009 38.7238 162.173 38.6576 162.261 38.6576C162.35 38.6576 162.394 38.7011 162.394 38.7882C162.394 38.8298 162.386 38.8733 162.371 38.9188C162.282 39.1799 162.238 39.6947 162.238 40.463V42.2173C162.238 42.8834 162.261 43.2903 162.307 43.4379C162.357 43.5855 162.411 43.6763 162.469 43.7104C162.527 43.7407 162.6 43.7558 162.688 43.7558L162.977 43.7274C163.119 43.7274 163.19 43.7823 163.19 43.8921C163.19 44.0321 163.061 44.1021 162.804 44.1021C162.657 44.1021 162.5 44.087 162.33 44.0567C162.165 44.0302 161.986 44.017 161.794 44.017C161.602 44.017 161.419 44.0302 161.246 44.0567C161.073 44.087 160.913 44.1021 160.767 44.1021Z" fill="#031928"/>
<path d="M164.073 44.1021C163.819 44.1021 163.692 44.0321 163.692 43.8921C163.692 43.7823 163.763 43.7274 163.906 43.7274L164.212 43.7558C164.3 43.7558 164.373 43.7407 164.431 43.7104C164.488 43.6763 164.533 43.6063 164.563 43.5003C164.625 43.3073 164.656 42.8796 164.656 42.2173V40.5198C164.656 40.1375 164.629 39.899 164.575 39.8044C164.525 39.706 164.463 39.6398 164.39 39.6057C164.317 39.5679 164.204 39.5376 164.05 39.5149C163.896 39.4884 163.819 39.4278 163.819 39.3332C163.819 39.2462 163.917 39.1837 164.113 39.1459C164.61 39.0437 164.94 38.9471 165.106 38.8563C165.333 38.7276 165.489 38.6633 165.573 38.6633C165.662 38.6633 165.706 38.7068 165.706 38.7939C165.706 38.8355 165.698 38.879 165.683 38.9244C165.61 39.1061 165.567 39.3994 165.556 39.8044C165.775 39.4373 166.048 39.1553 166.375 38.9585C166.706 38.7617 167.031 38.6633 167.35 38.6633C167.674 38.6633 167.947 38.703 168.17 38.7825C168.393 38.862 168.583 38.9831 168.741 39.1459C169.064 39.4865 169.226 39.988 169.226 40.6503V42.2173C169.226 42.8796 169.249 43.2865 169.295 43.4379C169.341 43.5855 169.393 43.6763 169.451 43.7104C169.508 43.7407 169.581 43.7558 169.67 43.7558L169.97 43.7274C170.112 43.7274 170.183 43.7823 170.183 43.8921C170.183 44.0321 170.055 44.1021 169.797 44.1021C169.647 44.1021 169.487 44.087 169.318 44.0567C169.153 44.0302 168.974 44.017 168.781 44.017C168.593 44.017 168.412 44.0302 168.239 44.0567C168.066 44.087 167.904 44.1021 167.754 44.1021C167.497 44.1021 167.368 44.0321 167.368 43.8921C167.368 43.7823 167.439 43.7274 167.581 43.7274L167.881 43.7558C167.97 43.7558 168.043 43.7407 168.1 43.7104C168.158 43.6763 168.204 43.6063 168.239 43.5003C168.301 43.3111 168.331 42.8834 168.331 42.2173V40.9229C168.331 39.8404 167.931 39.2991 167.131 39.2991C166.566 39.2991 166.125 39.5508 165.81 40.0542C165.698 40.2397 165.612 40.4668 165.55 40.7355V42.2173C165.55 42.8796 165.573 43.2865 165.619 43.4379C165.666 43.5855 165.717 43.6763 165.775 43.7104C165.833 43.7407 165.906 43.7558 165.994 43.7558L166.3 43.7274C166.443 43.7274 166.514 43.7823 166.514 43.8921C166.514 44.0321 166.387 44.1021 166.133 44.1021C165.987 44.1021 165.831 44.087 165.666 44.0567C165.504 44.0302 165.321 44.017 165.117 44.017C164.914 44.017 164.725 44.0302 164.552 44.0567C164.383 44.087 164.223 44.1021 164.073 44.1021Z" fill="#031928"/>
<path d="M172.295 42.1889C172.072 42.3743 171.961 42.4955 171.961 42.5522C171.961 42.609 171.974 42.6601 172.001 42.7055C172.032 42.7472 172.095 42.7907 172.191 42.8361C172.411 42.9307 172.786 43.0083 173.317 43.0689C173.851 43.1256 174.297 43.2051 174.655 43.3073C175.013 43.4095 175.303 43.5325 175.526 43.6763C175.95 43.9489 176.161 44.3273 176.161 44.8118C176.161 45.3303 175.882 45.7788 175.325 46.1573C174.763 46.5358 174.097 46.7251 173.328 46.7251C172.555 46.7251 171.926 46.5699 171.441 46.2595C170.953 45.9454 170.709 45.548 170.709 45.0673C170.709 44.4541 171.12 43.9905 171.943 43.6763C171.493 43.5439 171.23 43.3736 171.153 43.1654C171.126 43.101 171.112 43.0348 171.112 42.9667C171.112 42.7774 171.386 42.4595 171.932 42.0129C171.37 41.6609 171.089 41.1518 171.089 40.4857C171.097 39.9747 171.299 39.5471 171.695 39.2026C172.111 38.8431 172.649 38.6633 173.311 38.6633C173.599 38.6633 173.884 38.7144 174.165 38.8166C174.334 38.4419 174.573 38.1467 174.88 37.9309C175.146 37.7417 175.417 37.647 175.694 37.647C176.013 37.647 176.234 37.7625 176.357 37.9934C176.396 38.0615 176.415 38.1391 176.415 38.2261C176.415 38.3132 176.367 38.3927 176.271 38.4646C176.178 38.5365 176.09 38.5724 176.005 38.5724C175.848 38.5724 175.725 38.5365 175.636 38.4646C175.494 38.3472 175.355 38.2886 175.221 38.2886C175.086 38.2886 174.953 38.3529 174.823 38.4816C174.696 38.6065 174.599 38.7787 174.534 38.9982C175.138 39.3616 175.44 39.8631 175.44 40.5027C175.44 41.0099 175.23 41.4414 174.811 41.7972C174.376 42.1605 173.845 42.3422 173.218 42.3422C172.868 42.3422 172.561 42.2911 172.295 42.1889ZM172.48 41.519C172.607 41.659 172.751 41.7669 172.913 41.8426C173.078 41.9145 173.24 41.9504 173.397 41.9504C173.559 41.9504 173.701 41.9239 173.824 41.871C173.951 41.818 174.061 41.7385 174.153 41.6325C174.349 41.4054 174.447 41.1234 174.447 40.7866C174.447 40.4497 174.417 40.1829 174.355 39.9861C174.297 39.7855 174.211 39.6152 174.096 39.4751C173.861 39.1913 173.538 39.0493 173.126 39.0493C172.653 39.0493 172.326 39.2897 172.145 39.7704C172.091 39.9218 172.064 40.1129 172.064 40.3438C172.064 40.5709 172.101 40.7885 172.174 40.9967C172.251 41.201 172.353 41.3751 172.48 41.519ZM172.405 43.7899C171.859 43.9981 171.586 44.3614 171.586 44.8799C171.586 45.2168 171.77 45.512 172.139 45.7656C172.532 46.0343 173.026 46.1687 173.622 46.1687C174.492 46.1687 175.038 45.9813 175.261 45.6066C175.342 45.4742 175.382 45.3209 175.382 45.1468C175.382 44.9727 175.353 44.8251 175.296 44.7039C175.238 44.5828 175.134 44.475 174.984 44.3803C174.68 44.1835 174.149 44.0378 173.392 43.9432C172.892 43.8864 172.563 43.8353 172.405 43.7899Z" fill="#031928"/>
<path d="M180.096 44.1021C179.846 44.1021 179.721 44.0321 179.721 43.8921C179.721 43.7823 179.791 43.7274 179.929 43.7274L180.212 43.7558C180.443 43.7558 180.596 43.629 180.673 43.3754C180.743 43.1597 180.777 42.7737 180.777 42.2173V38.2205C180.777 37.6603 180.75 37.2969 180.696 37.1304C180.643 36.9601 180.577 36.8447 180.5 36.7841C180.427 36.7198 180.331 36.6876 180.212 36.6876L179.929 36.716C179.791 36.716 179.721 36.6592 179.721 36.5457C179.721 36.398 179.846 36.3242 180.096 36.3242L180.852 36.4094C181.014 36.4094 181.158 36.398 181.285 36.3753L186.599 42.4557V38.2091C186.599 37.6565 186.568 37.2932 186.507 37.1191C186.449 36.945 186.382 36.8276 186.305 36.7671C186.228 36.7027 186.128 36.6706 186.005 36.6706L185.722 36.6933C185.584 36.6933 185.514 36.6384 185.514 36.5286C185.514 36.3886 185.639 36.3186 185.889 36.3186C185.986 36.3186 186.114 36.3318 186.276 36.3583C186.48 36.3924 186.664 36.4094 186.83 36.4094C186.995 36.4094 187.157 36.3943 187.315 36.364C187.472 36.3337 187.657 36.3186 187.868 36.3186C188.08 36.3186 188.186 36.3886 188.186 36.5286C188.186 36.6384 188.117 36.6933 187.978 36.6933L187.695 36.6706C187.461 36.6706 187.305 36.7973 187.228 37.0509C187.163 37.2515 187.13 37.6376 187.13 38.2091V43.9432C187.13 44.0719 187.118 44.157 187.095 44.1987C187.072 44.2403 187.036 44.2611 186.986 44.2611C186.916 44.2611 186.807 44.1816 186.657 44.0227L181.337 37.9593V42.2173C181.337 42.7888 181.362 43.1578 181.412 43.3244C181.466 43.4871 181.529 43.6006 181.602 43.665C181.679 43.7255 181.779 43.7558 181.902 43.7558L182.179 43.7274C182.318 43.7274 182.387 43.7823 182.387 43.8921C182.387 44.0321 182.275 44.1021 182.052 44.1021C181.833 44.1021 181.637 44.087 181.464 44.0567C181.295 44.0302 181.129 44.017 180.968 44.017C180.806 44.017 180.646 44.0302 180.489 44.0567C180.335 44.087 180.204 44.1021 180.096 44.1021Z" fill="#031928"/>
<path d="M189.455 43.3811C189.232 43.1351 189.059 42.8456 188.936 42.5125C188.817 42.1794 188.757 41.8104 188.757 41.4054C188.757 40.9967 188.828 40.622 188.971 40.2813C189.113 39.9407 189.309 39.6492 189.559 39.407C190.078 38.9036 190.719 38.6519 191.481 38.6519C192.111 38.6519 192.621 38.8563 193.01 39.2651C193.379 39.6587 193.563 40.1451 193.563 40.7241C193.563 40.9134 193.537 41.044 193.483 41.1159C193.433 41.184 193.369 41.2256 193.292 41.2408C193.215 41.2521 193.11 41.2635 192.975 41.2748C192.84 41.2824 192.677 41.2919 192.484 41.3032C192.292 41.3146 192.077 41.3259 191.838 41.3373C191.604 41.3486 191.363 41.3619 191.117 41.377C190.552 41.4111 190.098 41.4452 189.755 41.4792C189.84 42.4974 190.236 43.1578 190.944 43.4606C191.175 43.559 191.421 43.6082 191.682 43.6082C192.236 43.6082 192.675 43.4493 192.998 43.1313C193.136 42.9951 193.242 42.9269 193.315 42.9269C193.454 42.9269 193.523 43.0083 193.523 43.1711C193.523 43.2543 193.465 43.3546 193.35 43.472C193.235 43.5893 193.069 43.7104 192.854 43.8353C192.473 44.051 192.029 44.1589 191.521 44.1589C191.013 44.1589 190.598 44.0908 190.275 43.9545C189.955 43.8145 189.682 43.6234 189.455 43.3811ZM189.744 41.0591C191.548 40.9683 192.498 40.8718 192.594 40.7696C192.629 40.7317 192.646 40.6201 192.646 40.4346C192.646 40.2491 192.61 40.0694 192.536 39.8953C192.463 39.7174 192.365 39.566 192.242 39.4411C191.988 39.1875 191.673 39.0607 191.296 39.0607C190.869 39.0607 190.509 39.2367 190.217 39.5887C189.909 39.9558 189.751 40.446 189.744 41.0591Z" fill="#031928"/>
<path d="M197.683 39.2253C197.683 39.3275 197.622 39.3786 197.499 39.3786L195.86 39.3616V42.5068C195.86 43.0935 196.004 43.4417 196.293 43.5514C196.381 43.5855 196.485 43.6025 196.604 43.6025C196.724 43.6025 196.831 43.5836 196.927 43.5458C197.027 43.5041 197.116 43.4606 197.193 43.4152C197.27 43.3698 197.335 43.3281 197.389 43.2903C197.443 43.2487 197.493 43.2278 197.539 43.2278C197.589 43.2278 197.633 43.2543 197.672 43.3073C197.71 43.3603 197.729 43.4133 197.729 43.4663C197.729 43.5988 197.558 43.7577 197.216 43.9432C196.954 44.087 196.625 44.1589 196.229 44.1589C195.833 44.1589 195.523 44.0208 195.3 43.7445C195.077 43.4644 194.966 43.0783 194.966 42.5863V39.3446H194.614C194.337 39.3446 194.198 39.2745 194.198 39.1345C194.198 39.0323 194.275 38.9623 194.429 38.9244C194.583 38.8866 194.716 38.8204 194.827 38.7257C194.939 38.6273 195.029 38.5176 195.098 38.3965C195.171 38.2716 195.229 38.1429 195.271 38.0104C195.314 37.8779 195.352 37.7568 195.387 37.647C195.471 37.3972 195.568 37.2723 195.675 37.2723C195.798 37.2723 195.86 37.3802 195.86 37.596V38.879L197.481 38.845C197.562 38.845 197.626 38.9396 197.672 39.1288C197.679 39.1705 197.683 39.2026 197.683 39.2253Z" fill="#031928"/>
<path d="M206.696 38.7144C206.854 38.7144 206.933 38.7617 206.933 38.8563C206.933 38.9358 206.859 39.002 206.713 39.055C206.567 39.1042 206.459 39.1515 206.39 39.197C206.325 39.2424 206.261 39.3086 206.2 39.3957C206.1 39.5357 205.959 39.8196 205.779 40.2473L204.146 43.9943C204.099 44.104 204.049 44.1589 203.996 44.1589C203.915 44.1589 203.851 44.104 203.805 43.9943L202.242 40.4232L200.741 43.9943C200.695 44.104 200.645 44.1589 200.591 44.1589C200.511 44.1589 200.447 44.104 200.401 43.9943L198.635 39.8044C198.535 39.5471 198.455 39.3824 198.393 39.3105C198.289 39.1856 198.153 39.1042 197.983 39.0664C197.818 39.0247 197.735 38.9528 197.735 38.8506C197.735 38.8166 197.756 38.7863 197.799 38.7598C197.837 38.7295 197.895 38.7144 197.972 38.7144L198.866 38.7768C199.097 38.7768 199.268 38.7693 199.38 38.7541C199.576 38.7276 199.737 38.7144 199.864 38.7144C200.126 38.7144 200.257 38.7693 200.257 38.879C200.257 38.9926 200.103 39.0569 199.795 39.0721C199.607 39.0796 199.505 39.1307 199.489 39.2253C199.485 39.2518 199.483 39.284 199.483 39.3219C199.483 39.4089 199.524 39.5603 199.605 39.776L200.805 42.6204L201.965 39.7987L201.838 39.5035C201.745 39.2916 201.649 39.1591 201.549 39.1061C201.511 39.0872 201.466 39.0683 201.416 39.0493C201.27 38.9964 201.197 38.9282 201.197 38.845C201.197 38.7579 201.284 38.7144 201.457 38.7144L202.195 38.7768C202.434 38.7768 202.613 38.7693 202.732 38.7541C202.94 38.7276 203.142 38.7144 203.338 38.7144C203.538 38.7144 203.638 38.7693 203.638 38.879C203.638 38.9926 203.484 39.0569 203.176 39.0721C202.938 39.0834 202.819 39.161 202.819 39.3048C202.819 39.4524 202.895 39.6947 203.049 40.0315L204.226 42.6885L205.028 40.7241C205.282 40.0959 205.417 39.7193 205.432 39.5944C205.448 39.4657 205.455 39.3729 205.455 39.3162C205.455 39.1723 205.355 39.0929 205.155 39.0777C204.955 39.0588 204.821 39.0361 204.751 39.0096C204.686 38.9831 204.653 38.9396 204.653 38.879C204.653 38.7693 204.784 38.7144 205.046 38.7144L206.027 38.7712L206.696 38.7144Z" fill="#031928"/>
<path d="M207.042 41.4963C207.042 41.1291 207.11 40.7733 207.244 40.4289C207.379 40.0845 207.569 39.7817 207.815 39.5206C208.354 38.949 209.025 38.6633 209.829 38.6633C210.722 38.6633 211.408 38.9263 211.889 39.4524C212.324 39.9293 212.541 40.5481 212.541 41.3089C212.541 42.0772 212.281 42.7415 211.762 43.3016C211.231 43.8732 210.562 44.1589 209.754 44.1589C208.862 44.1589 208.177 43.8959 207.7 43.3698C207.261 42.8929 207.042 42.2684 207.042 41.4963ZM208.017 41.2578C208.017 41.6287 208.069 41.975 208.173 42.2968C208.277 42.6185 208.419 42.8853 208.6 43.0973C208.958 43.5287 209.41 43.7445 209.956 43.7445C210.441 43.7445 210.835 43.5552 211.139 43.1767C211.454 42.7831 211.612 42.2759 211.612 41.6552C211.612 40.8339 211.42 40.1905 211.035 39.7249C210.673 39.2973 210.22 39.0834 209.673 39.0834C209.189 39.0834 208.794 39.2726 208.49 39.6511C208.175 40.0448 208.017 40.5803 208.017 41.2578Z" fill="#031928"/>
<path d="M213.626 44.1021C213.368 44.1021 213.239 44.0321 213.239 43.8921C213.239 43.7823 213.31 43.7274 213.453 43.7274L213.741 43.7558C213.83 43.7558 213.903 43.7407 213.96 43.7104C214.018 43.6763 214.062 43.6063 214.093 43.5003C214.155 43.3073 214.185 42.8796 214.185 42.2173V40.5198C214.185 40.1337 214.16 39.8934 214.11 39.7987C214.064 39.7003 214.007 39.6341 213.937 39.6C213.872 39.5622 213.762 39.5319 213.608 39.5092C213.458 39.4865 213.383 39.4278 213.383 39.3332C213.383 39.2462 213.481 39.1837 213.678 39.1459C214.135 39.0512 214.451 38.9566 214.624 38.862C214.859 38.7295 215.018 38.6633 215.103 38.6633C215.191 38.6633 215.236 38.7068 215.236 38.7939C215.236 38.8355 215.226 38.879 215.207 38.9244C215.191 38.9699 215.174 39.0247 215.155 39.0891C215.124 39.2178 215.101 39.46 215.086 39.8158C215.42 39.2632 215.824 38.9188 216.297 38.7825C216.436 38.7409 216.59 38.7201 216.759 38.7201C216.932 38.7201 217.084 38.7806 217.215 38.9017C217.349 39.0228 217.417 39.1515 217.417 39.2878C217.417 39.424 217.401 39.5243 217.37 39.5887C217.34 39.653 217.301 39.7079 217.255 39.7533C217.155 39.8517 217.065 39.9009 216.984 39.9009C216.907 39.9009 216.847 39.882 216.805 39.8442C216.763 39.8025 216.715 39.7287 216.661 39.6227C216.565 39.4335 216.457 39.3389 216.338 39.3389C216.218 39.3389 216.105 39.3654 215.997 39.4184C215.89 39.4676 215.782 39.5433 215.674 39.6455C215.439 39.8612 215.241 40.1545 215.08 40.5254V42.2173C215.08 42.9364 215.099 43.3603 215.137 43.489C215.18 43.6139 215.23 43.6896 215.288 43.7161C215.349 43.7388 215.432 43.7501 215.536 43.7501L216.049 43.7047C216.126 43.7047 216.188 43.7237 216.234 43.7615C216.28 43.7956 216.303 43.8391 216.303 43.8921C216.303 44.0321 216.163 44.1021 215.882 44.1021L214.664 44.017C214.468 44.017 214.282 44.0302 214.105 44.0567C213.932 44.087 213.772 44.1021 213.626 44.1021Z" fill="#031928"/>
<path d="M218.201 44.1021C217.947 44.1021 217.821 44.0321 217.821 43.8921C217.821 43.7823 217.892 43.7274 218.034 43.7274L218.323 43.7558C218.411 43.7558 218.484 43.7407 218.542 43.7104C218.599 43.6763 218.644 43.6063 218.674 43.5003C218.736 43.3073 218.767 42.8796 218.767 42.2173V37.7549C218.767 37.3954 218.738 37.1626 218.68 37.0566C218.623 36.9468 218.561 36.873 218.496 36.8352C218.43 36.7973 218.324 36.7671 218.178 36.7444C218.036 36.7216 217.965 36.663 217.965 36.5684C217.965 36.4813 218.063 36.4189 218.259 36.381C218.717 36.2864 219.032 36.1918 219.205 36.0971C219.44 35.9647 219.6 35.8984 219.684 35.8984C219.773 35.8984 219.817 35.942 219.817 36.029C219.817 36.0706 219.809 36.1142 219.794 36.1596C219.713 36.364 219.671 36.6232 219.667 36.9374C219.663 37.2515 219.661 37.5089 219.661 37.7095V41.1045L221.392 39.4808C221.492 39.39 221.542 39.3181 221.542 39.2651C221.542 39.2083 221.519 39.1667 221.473 39.1402C221.427 39.1099 221.375 39.0815 221.317 39.055C221.171 38.9907 221.098 38.9225 221.098 38.8506C221.098 38.756 221.183 38.7087 221.352 38.7087L222.021 38.7655L223.002 38.7087C223.252 38.7087 223.377 38.7636 223.377 38.8733C223.377 38.9718 223.271 39.0304 223.06 39.0493C222.837 39.0721 222.635 39.1496 222.454 39.2821C222.273 39.4108 222.121 39.5281 221.998 39.6341L220.832 40.639L222.65 43.3244C222.823 43.6006 223.06 43.7388 223.36 43.7388C223.537 43.7388 223.644 43.752 223.683 43.7785C223.725 43.8012 223.746 43.8448 223.746 43.9091C223.746 44.0378 223.633 44.1021 223.406 44.1021L222.737 44.0397L222.269 44.1021C222.146 44.1021 222.048 44.0605 221.975 43.9772C221.906 43.894 221.84 43.8145 221.779 43.7388L220.123 41.2578L219.661 41.6609V42.2173C219.661 43.1105 219.719 43.6044 219.834 43.6991C219.877 43.7369 219.93 43.7558 219.996 43.7558L220.284 43.7274C220.423 43.7274 220.492 43.7823 220.492 43.8921C220.492 44.0321 220.365 44.1021 220.111 44.1021C220 44.1021 219.873 44.087 219.73 44.0567C219.588 44.0302 219.417 44.017 219.217 44.017C219.021 44.017 218.838 44.0302 218.669 44.0567C218.503 44.087 218.348 44.1021 218.201 44.1021Z" fill="#031928"/>
<path d="M244.897 32.3898H69.8566C67.6344 32.3898 65.754 30.5841 65.754 28.327V4.06283C65.754 1.86213 67.5774 0 69.8566 0H244.897C247.119 0 249 1.8057 249 4.06283V28.327C249 30.5841 247.176 32.3898 244.897 32.3898Z" fill="#0069D1"/>
<path d="M90.3538 27.9328H83.6302C83.0034 27.9328 82.7185 27.6507 82.7185 27.0299V8.5779C82.7185 7.95718 83.0034 7.67505 83.6302 7.67505H90.3538C91.3224 7.67505 92.2341 8.07005 92.9748 8.80361C93.7725 9.53718 94.1144 10.44 94.1144 11.3993V14.785C94.1144 15.6314 93.8295 16.365 93.3167 17.0421L92.6899 17.8321L93.3737 18.6221C93.8865 19.2993 94.1714 20.0328 94.1714 20.8793V24.265C94.1714 25.2807 93.7725 26.1271 93.0318 26.8607C92.2341 27.5942 91.3794 27.9328 90.3538 27.9328ZM86.4792 15.9136H90.3538V11.3993H86.4792V15.9136ZM86.4792 24.2085H90.3538V19.6943H86.4792V24.2085Z" fill="white"/>
<path d="M104.428 27.9323H99.5843C98.6157 27.9323 97.761 27.5938 97.0202 26.8602C96.3365 26.1831 95.9376 25.3366 95.9376 24.3209V8.52102C95.9376 7.90031 96.2225 7.61816 96.8493 7.61816H98.7866C99.4134 7.61816 99.6983 7.90031 99.6983 8.52102V24.1516H104.371C104.997 24.1516 105.282 24.4902 105.282 25.0545V26.9166C105.339 27.6502 105.054 27.9323 104.428 27.9323Z" fill="white"/>
<path d="M115.14 27.9328H110.98C109.955 27.9328 109.1 27.5378 108.302 26.8042C107.562 26.0707 107.163 25.1678 107.163 24.2085V8.5779C107.163 7.95718 107.448 7.67505 108.074 7.67505H109.955C110.581 7.67505 110.866 7.95718 110.866 8.5779V24.2085H115.083V8.5779C115.083 7.95718 115.368 7.67505 115.995 7.67505H117.932C118.559 7.67505 118.843 7.95718 118.843 8.5779V24.2085C118.843 25.2242 118.445 26.0707 117.704 26.8607C117.02 27.5942 116.165 27.9328 115.14 27.9328Z" fill="white"/>
<path d="M129.726 27.9323H124.37C123.402 27.9323 122.547 27.5938 121.806 26.8602C121.123 26.1831 120.724 25.3366 120.724 24.3209V8.52102C120.724 7.90031 121.009 7.61816 121.635 7.61816H129.556C130.182 7.61816 130.467 7.90031 130.467 8.52102V10.4396C130.467 11.0603 130.182 11.3424 129.556 11.3424H124.484V15.8567H128.701C129.328 15.8567 129.613 16.1388 129.613 16.7595V18.6781C129.613 19.2988 129.271 19.581 128.701 19.581H124.484V24.0952H129.613C130.239 24.0952 130.524 24.4338 130.524 24.9981V26.8602C130.695 27.6502 130.353 27.9323 129.726 27.9323Z" fill="white"/>
<path d="M152.29 27.9328H150.353C149.726 27.9328 149.441 27.6507 149.441 27.0299V16.5343L146.991 21.7257C146.82 22.0643 146.535 22.2335 146.137 22.2335C145.738 22.2335 145.453 22.0643 145.282 21.7257L142.832 16.5343V27.0299C142.832 27.6507 142.49 27.9328 141.92 27.9328H139.983C139.356 27.9328 139.071 27.6507 139.071 27.0299V8.5779C139.071 7.95718 139.356 7.67505 139.983 7.67505H142.262C142.661 7.67505 142.946 7.84433 143.117 8.23933L146.137 14.6722L149.214 8.23933C149.384 7.90076 149.669 7.67505 150.068 7.67505H152.347C152.974 7.67505 153.259 7.95718 153.259 8.5779V27.0299C153.202 27.6507 152.917 27.9328 152.29 27.9328Z" fill="white"/>
<path d="M163.116 27.9323H158.786C157.76 27.9323 156.905 27.5373 156.165 26.8038C155.424 26.0702 155.025 25.1674 155.025 24.2081V11.3424C155.025 10.3267 155.424 9.4803 156.165 8.74673C156.905 8.01316 157.817 7.61816 158.786 7.61816H163.116C164.142 7.61816 164.997 8.01316 165.794 8.74673C166.592 9.4803 166.934 10.3832 166.934 11.3424V24.1516C166.934 25.1674 166.535 26.0138 165.794 26.7474C164.997 27.5938 164.142 27.9323 163.116 27.9323ZM163.116 24.2081V11.3989H158.786V24.2081H163.116Z" fill="white"/>
<path d="M176.734 27.9328H172.575C171.549 27.9328 170.695 27.5378 169.897 26.8042C169.156 26.0707 168.757 25.1678 168.757 24.2085V8.5779C168.757 7.95718 169.042 7.67505 169.669 7.67505H171.549C172.176 7.67505 172.461 7.95718 172.461 8.5779V24.2085H176.677V8.5779C176.677 7.95718 176.962 7.67505 177.589 7.67505H179.526C180.153 7.67505 180.438 7.95718 180.438 8.5779V24.2085C180.438 25.2242 180.039 26.0707 179.299 26.8607C178.615 27.5942 177.703 27.9328 176.734 27.9328Z" fill="white"/>
<path d="M190.068 27.3685L186.193 17.3243V27.0299C186.193 27.6507 185.908 27.9328 185.281 27.9328H183.401C182.774 27.9328 182.49 27.6507 182.49 27.0299V8.5779C182.49 7.95718 182.774 7.67505 183.401 7.67505H185.851C186.25 7.67505 186.535 7.90076 186.706 8.29575L190.638 18.34V8.63433C190.638 8.01362 190.922 7.73147 191.549 7.73147H193.43C194.056 7.73147 194.341 8.01362 194.341 8.63433V27.0299C194.341 27.6507 194.056 27.9328 193.43 27.9328H190.979C190.524 27.9328 190.239 27.7635 190.068 27.3685Z" fill="white"/>
<path d="M206.535 11.3993H203.743V27.0299C203.743 27.6507 203.458 27.9328 202.831 27.9328H200.894C200.267 27.9328 199.982 27.6507 199.982 27.0299V11.3993H197.19C196.563 11.3993 196.279 11.1172 196.279 10.4965V8.5779C196.279 7.95718 196.563 7.67505 197.19 7.67505H206.649C207.276 7.67505 207.56 7.95718 207.56 8.5779V10.4965C207.503 11.1172 207.162 11.3993 206.535 11.3993Z" fill="white"/>
<path d="M215.082 27.1988L214.341 23.4181H210.353L209.612 27.1988C209.498 27.7066 209.213 27.9323 208.7 27.9323H206.763C206.478 27.9323 206.193 27.8195 206.022 27.5938C205.851 27.3681 205.737 27.1424 205.851 26.8038L209.555 8.35173C209.669 7.84388 209.954 7.61816 210.467 7.61816H214.227C214.74 7.61816 215.025 7.84388 215.139 8.35173L218.842 26.8038C218.899 27.0859 218.842 27.3681 218.672 27.5938C218.501 27.8195 218.216 27.9323 217.931 27.9323H215.993C215.481 27.9323 215.196 27.7066 215.082 27.1988ZM213.6 19.6938L212.347 13.5996L211.093 19.6938H213.6Z" fill="white"/>
<path d="M223.629 27.9328H221.691C221.065 27.9328 220.78 27.6507 220.78 27.0299V8.5779C220.78 7.95718 221.065 7.67505 221.691 7.67505H223.629C224.255 7.67505 224.54 7.95718 224.54 8.5779V27.0299C224.597 27.6507 224.255 27.9328 223.629 27.9328Z" fill="white"/>
<path d="M234.056 27.3685L230.181 17.3243V27.0299C230.181 27.6507 229.896 27.9328 229.27 27.9328H227.389C226.762 27.9328 226.478 27.6507 226.478 27.0299V8.5779C226.478 7.95718 226.762 7.67505 227.389 7.67505H229.839C230.238 7.67505 230.523 7.90076 230.694 8.29575L234.626 18.34V8.63433C234.626 8.01362 234.91 7.73147 235.537 7.73147H237.418C238.044 7.73147 238.329 8.01362 238.329 8.63433V27.0299C238.329 27.6507 238.044 27.9328 237.418 27.9328H234.967C234.512 27.9328 234.227 27.7635 234.056 27.3685Z" fill="white"/>
<path d="M67.7485 32.3898H4.10252C1.88032 32.3898 0 30.5841 0 28.327V4.06283C0 1.86213 1.82334 0 4.10252 0H67.8055C70.0277 0 71.908 1.8057 71.908 4.06283V28.327C71.851 30.5841 70.0277 32.3898 67.7485 32.3898Z" fill="white"/>
<path d="M51.0535 27.9318H10.1992C9.91433 27.9318 9.80037 27.5932 9.97131 27.424L30.4269 7.10979C30.5409 6.99693 30.7118 6.99693 30.8258 7.10979L51.2814 27.424C51.4523 27.6497 51.3383 27.9318 51.0535 27.9318Z" fill="#0069D1"/>
<path d="M42.2219 15.7999L46.8373 11.2292C46.9512 11.1163 47.1222 11.1163 47.2361 11.2292L63.6462 27.4805C63.8171 27.6498 63.7032 27.9884 63.4183 27.9884H54.4155" fill="#DD071C"/>
</svg>
